<?xml version="1.0" encoding="UTF-8"?>
<svg id="Layer_1" xmlns="http://www.w3.org/2000/svg" version="1.1" xmlns:xlink="http://www.w3.org/1999/xlink" viewBox="0 0 409 251">
  <!-- Generator: Adobe Illustrator 30.3.0, SVG Export Plug-In . SVG Version: 2.1.3 Build 182)  -->
  <defs>
    <style>
      .st0 {
        stroke: #4272ef;
        stroke-linecap: round;
        stroke-width: 1.2px;
      }

      .st0, .st1 {
        fill: none;
      }

      .st2 {
        fill: #ffcf60;
      }

      .st3 {
        fill: #e3eafd;
      }

      .st4 {
        fill: #3c354c;
      }

      .st5 {
        fill-opacity: 0;
      }

      .st6 {
        fill-opacity: 0;
      }

      .st7 {
        fill: #3f3d56;
      }

      .st8 {
        fill: #f2f2f2;
      }

      .st9 {
        fill: #535461;
      }

      .st10 {
        fill: #222;
      }

      .st11 {
        fill: #4272ef;
      }

      .st12 {
        fill-opacity: .1;
      }

      .st13 {
        clip-path: url(#clippath);
      }

      .st14 {
        fill: #f4d8cf;
      }

      .st15 {
        fill: #ff5e5e;
      }
    </style>
    <clipPath id="clippath">
      <rect class="st1" width="409" height="251"/>
    </clipPath>
  </defs>
  <g class="st13">
    <g>
      <path class="st2" d="M426,50.6v139.9c0,.4,0,.7-.2,1.1-.3,1.1-1.1,2.1-2.3,2.8-1.2.7-2.6,1.1-4.2,1.1H10.4c-1.3,0-2.6-.3-3.7-.9-1.1-.6-1.9-1.3-2.4-2.3-.3-.6-.5-1.2-.5-1.9V50.6c0-.7.1-1.3.5-1.9.3-.6.8-1.2,1.4-1.6.6-.5,1.3-.8,2.1-1.1.8-.3,1.7-.4,2.6-.4h408.9c.9,0,1.7.1,2.6.4.8.3,1.5.6,2.1,1.1.6.5,1.1,1,1.4,1.6.3.6.5,1.3.5,1.9Z"/>
      <path class="st5" d="M310.3,59.9h-116.9v131.5h116.9V59.9Z"/>
      <path class="st3" d="M240.5,77.5h-27.1c-2.6,0-4.7,2.1-4.7,4.7v59c0,2.6,2.1,4.7,4.7,4.7h27.1c2.6,0,4.7-2.1,4.7-4.7v-59c0-2.6-2.1-4.7-4.7-4.7Z"/>
      <path class="st3" d="M263.2,145.8h27.1c2.6,0,4.7-2.1,4.7-4.7v-59c0-2.6-2.1-4.7-4.7-4.7h-27.1c-2.6,0-4.7,2.1-4.7,4.7v59c0,2.6,2.1,4.7,4.7,4.7Z"/>
      <path class="st3" d="M181.1,62.1h-71.1c-3.5,0-6.3,2.8-6.3,6.3v71.1c0,3.5,2.8,6.3,6.3,6.3h71.1c3.5,0,6.3-2.8,6.3-6.3v-71.1c0-3.5-2.8-6.3-6.3-6.3Z"/>
      <path class="st3" d="M89.4,62.1H18.2c-3.5,0-6.3,2.8-6.3,6.3v71.1c0,3.5,2.8,6.3,6.3,6.3h71.1c3.5,0,6.3-2.8,6.3-6.3v-71.1c0-3.5-2.8-6.3-6.3-6.3Z"/>
      <path class="st3" d="M322.6,145.8h71.1c3.5,0,6.3-2.8,6.3-6.3v-71.1c0-3.5-2.8-6.3-6.3-6.3h-71.1c-3.5,0-6.3,2.8-6.3,6.3v71.1c0,3.5,2.8,6.3,6.3,6.3Z"/>
      <path class="st8" d="M229.2,77.5l-20.5,22.4v6.9l25.4-29.3h-4.9Z"/>
      <path class="st8" d="M245.2,100.5l-36.4,35.5.2,6.3,36.4-35.6-.2-6.3Z"/>
      <path class="st8" d="M279.1,77.5l-20.5,22.4v6.9l25.4-29.3h-4.9Z"/>
      <path class="st8" d="M295,100.5l-36.4,35.5.2,6.3,36.4-35.6-.2-6.3Z"/>
      <path class="st8" d="M131.5,62.1l-27.8,31.8v20.4l41.8-52.2h-14.1Z"/>
      <path class="st8" d="M39.8,62.1l-27.8,31.8v20.4l41.8-52.2h-14.1Z"/>
      <path class="st8" d="M168.3,62.1l-64.7,63.5v4.8l73.2-68.3h-8.6Z"/>
      <path class="st8" d="M76.6,62.1L12,125.6v4.8L85.2,62.1h-8.6Z"/>
      <path class="st8" d="M344.6,62.3l-27.8,31.8v20.4l41.8-52.2h-14.1Z"/>
      <path class="st8" d="M381.5,62.3l-64.7,63.5v4.8l73.2-68.3h-8.6Z"/>
      <path class="st6" d="M253.8,59.9h-3.8v131.5h3.8V59.9Z"/>
      <path class="st7" d="M408.5,194c-.2.4-.8.8-1.7,1-.9.3-2,.4-3.1.4H100.4c-1,0-1.9-.1-2.7-.3-.8-.2-1.4-.5-1.8-.8,13.8-1.3,50.3-2.3,97.6-2.8,2.6,0,5.3,0,8,0h.5c.6,0,1.3,0,2,0,2.9,0,5.8,0,8.7,0h1s3.5,0,3.5,0h1.2c2.4,0,4.9,0,7.4,0,7.9,0,16,0,24.2,0h20.8c13.8,0,27,.1,39.6.2h4.9c2.4,0,4.7,0,7,.1,40,.5,71.3,1.3,86.2,2.4Z"/>
      <path class="st7" d="M271.2,80.5h-11.1v19.2h11.1v-19.2Z"/>
      <path class="st12" d="M271.2,80.5h-11.1v19.2h11.1v-19.2Z"/>
      <path class="st14" d="M314.8,96.2c.7-.4,1.5-.4,2.3-.3.5,0,.9,0,1.3.3.8.5.9,1.6,1,2.5,0,1.1,0,2.3-.7,3.2-.6.7-1.5.9-2.4,1.1-.6,0-1.2.2-1.8.5-.6.3-1.1.7-1.6,1.2-1,.9-2.4,1.8-3.8,2-.9-1.8-1.1-3.6.3-5.2.8-.9,1.8-1.5,2.7-2.4.9-.8,1.6-2.2,2.7-2.8Z"/>
      <path class="st3" d="M262.4,189.5c-.2.4-.2.8-.2,1.2,0,1,1,1.6,1.9,2,1.2.5,2.7.9,3.7.1,1.1-.9,1-2.6,1.4-4,.3-.8.8-1.5,1.1-2.3.9-2.1.4-4.6,0-6.8l-.7-3.3c0-.3-.1-.5-.3-.7-.5-.4-2.9-.6-3.5-.2-1,.7-.7,3-.9,4.1-.5,3.4-1.3,6.7-2.3,9.9Z"/>
      <path class="st3" d="M258.7,189.5c.2.4.2.8.2,1.2,0,1-1,1.6-1.9,2-1.2.5-2.7.9-3.7.1-1.1-.9-1-2.6-1.4-4-.3-.8-.8-1.5-1.1-2.3-.9-2.1-.4-4.6,0-6.8l.7-3.3c0-.3.1-.5.3-.7.5-.4,2.9-.6,3.5-.2,1,.7.7,3,.9,4.1.5,3.4,1.3,6.7,2.3,9.9Z"/>
      <path class="st14" d="M266.8,90.8c.2.2.3.4.4.7.1.6-.4,1.1-1,1.3-.6.2-1.2.3-1.7.6-.5.4-.9,1-1.1,1.6-1.1,3.1.1,6.9,3,8.4,2,1,4.4.9,6.6.7.3,0,.6,0,.9-.2.3-.2.5-.4.7-.7,1.2-1.6,2.1-3.4,2.5-5.4.4-2,.4-4-.1-6,0-.2,0-.3-.2-.5-.6-.8-2,.2-2.8-.4-.3-.2-.4-.5-.5-.8-.6-1.3-.9-2.7-1.1-4.1,0-.2-3.7,1.2-4,1.4-1.2.6-1.3,0-2.2,1.1,1,.3-.1,1.3.7,2.2Z"/>
      <path class="st12" d="M266.8,90.8c.2.2.3.4.4.7.1.6-.4,1.1-1,1.3-.6.2-1.2.3-1.7.6-.5.4-.9,1-1.1,1.6-1.1,3.1.1,6.9,3,8.4,2,1,4.4.9,6.6.7.3,0,.6,0,.9-.2.3-.2.5-.4.7-.7,1.2-1.6,2.1-3.4,2.5-5.4.4-2,.4-4-.1-6,0-.2,0-.3-.2-.5-.6-.8-2,.2-2.8-.4-.3-.2-.4-.5-.5-.8-.6-1.3-.9-2.7-1.1-4.1,0-.2-3.7,1.2-4,1.4-1.2.6-1.3,0-2.2,1.1,1,.3-.1,1.3.7,2.2Z"/>
      <path class="st4" d="M254.1,128.9c.2,2.1.4,4.1.5,6.2,0,2,.1,4-.5,5.9-.3,1.1-.9,2-1.2,3.1-.3,1.3-.3,2.6-.3,3.9,0,.8,0,1.5.2,2.2.2.7.5,1.3.7,1.9.9,2.3.7,4.8.4,7.2-.6,4.6-1.4,9.1-2.3,13.6l-1.6,8.2c1.7.7,3.5,1.2,5.3,1.6,1.1.2,2.6.2,3.1-.9.1-.5.2-1,0-1.5-.3-2.3,0-4.6.8-6.7.6-1.8,1.6-3.4,2-5.2.3-1.1.4-2.3.5-3.5.1-2,.2-4.1.2-6.1,0-2.8-.2-5.6.6-8.2,1.1-3.5,3.9-6.5,3.5-10.1,0,4,.1,7.9-.1,11.9-.2,1.6-.2,3.3-.2,4.9.1,2.4.8,4.9.3,7.2-.2,1-.6,1.9-.7,2.9-.2,1.5.4,3.2,0,4.6-.4,1.3-1.7,2.3-1.6,3.6,0,1,.8,1.9,1.7,2.3.9.4,1.9.5,2.9.6,1.1,0,2.4,0,2.9-.9.7-1.1-.4-2.5-.6-3.8-.2-1.3.5-2.6,1.1-3.8,3.5-6.6,5.5-14,5.7-21.5,0-2.3,0-4.5,0-6.8,0-5.2.7-10.4,1.9-15.4-8.5-.3-17.2-.2-25.3,2.7Z"/>
      <path class="st14" d="M267.8,90.8c3.6,0,6.4-2.9,6.4-6.4s-2.9-6.4-6.4-6.4-6.4,2.9-6.4,6.4,2.9,6.4,6.4,6.4Z"/>
      <path class="st11" d="M272.7,93.8c-.7,1.3-1.6,2.5-2.8,3.2-1.3.6-3.1.5-3.9-.7-.6-.9-.6-2.3-1.6-2.8-.8-.4-1.8,0-2.3.7-.5.7-.7,1.6-.8,2.5-.2,2.2-.3,4.3-.2,6.5.1,10.5,1,21.1.8,31.6,0,1.6,0,3.3-.3,4.9,3.9-1,7.8-2,11.8-2.2,1.9-.1,3.9,0,5.8-.3,1.3-.2,2.6-.5,3.9-.8.2,0,.3-.1.5-.2.1-.1.2-.3.2-.5.4-3.7-.9-7.4-1.5-11.1-.5-3.5-.4-7-.9-10.5-.6-4.9-2.4-9.6-2.4-14.5,0-1.8.3-3.6-.1-5.3-.3-1.4-1.4-3.4-3-3.6-1.8-.3-2.5,2.1-3.2,3.3Z"/>
      <path class="st3" d="M272,96.1c-2,3.9-4,7.9-4.6,12.3-.6,3.9,0,7.9-.5,11.9-.6,5-2.9,10.2-1.3,15,.3,1.1.9,2.1,1.2,3.2,1.6,4.7,0,10,1,14.8,0,.1,0,.2.1.4,0,.1.2.2.3.3.3.1.6,0,.9-.2,1.2-.4,2.1,1.2,3.1,2,.5.4,1.1.7,1.7.8.6,0,1.3,0,1.9-.3,1.8-.9,2.3-3.3,2.6-5.3,1.2-9.7,2-19.5,2.2-29.3,0-2.2,0-4.5-.3-6.7-.4-2.7-1.5-5.2-2-7.9-.9-4.3-.5-8.7-.3-13,0-1.3-.3-5-2.5-3.8-1.7.9-2.6,4.2-3.4,5.8Z"/>
      <path class="st12" d="M262.1,107.1c0,1.4,0,2.8-.5,4.1-.4,1.3-1.3,2.5-1.9,3.7-1.6,3-2.2,6.5-2.3,9.9,0,3.4.3,6.8.6,10.2.4,5.2.5,10.4.3,15.6,2.1-.7,4.4-.8,6.6-.3,1.3.3,2.8.8,3.8,0,.7-.6.8-1.7.8-2.6.3-9.6.4-19.2.3-28.8,0-1.3,0-2.5.1-3.8.1-1,.3-1.9.3-2.9s-.4-2.7-.7-4l-3.4-11.9c-.2-.8-.5-1.6-1-2.2-.5-.6-2.2-1.4-2.8-.6-.6.7-.1,3.1-.2,3.9v9.7Z"/>
      <path class="st3" d="M261.6,106.9c0,1.4,0,2.8-.5,4.1-.4,1.3-1.2,2.5-1.9,3.7-1.6,3-2.2,6.5-2.3,9.9,0,3.4.3,6.8.6,10.2.4,5.2.5,10.4.3,15.6,2.1-.7,4.4-.8,6.6-.3,1.3.3,2.8.8,3.8,0,.7-.6.8-1.7.8-2.6.3-9.6.4-19.2.3-28.8,0-1.3,0-2.5.1-3.8.2-1,.3-1.9.3-2.9,0-1.4-.4-2.7-.7-4l-3.4-11.9c-.2-.8-.5-1.6-1-2.2-.5-.6-2.2-1.4-2.8-.6-.6.7-.1,3.1-.2,3.9v9.6Z"/>
      <path class="st15" d="M263,92.3c-1.7.2-3.1,1.7-3.8,3.3-.7,1.6-.9,3.4-1.4,5-.9,2.9-2.8,5.5-3.1,8.5-.3,2.8.9,5.7.3,8.5-.2.7-.4,1.5-.7,2.2-1.1,3.2-1.7,6.5-2.3,9.8l-.9,4.9c-.6,3.5-1.3,7-.7,10.5.6-.4,1.4-.7,2.1-.6.8,0,1.5.4,2,.9.3.3.6.7,1,.7.7.1,1.2-.8,1.3-1.5.7-2.5,1.1-5,1.4-7.6.1-1.4.2-2.8.6-4.1.3-.8.6-1.6.9-2.5.6-2,.6-4.1.8-6.1.2-1.8.7-3.5,1-5.3.3-2.2.4-4.3.4-6.5v-12.5c.1-1.6.3-3.4,1.5-4.5.6-.5,2.3-1,2.1-2-.2-.9-1.9-1.2-2.7-1.1Z"/>
      <path class="st15" d="M273.3,91.1c1.9-1.4,3.9-2.9,6.3-2.8.8,0,1.5.2,2.3.4l5.3,1.3c-.5.9-1.3,1.6-2.3,2.1.9-.1,1.7,0,2.5.4.8.4,1.4,1.1,1.7,1.9.7,1.9-.2,4.1-1.1,5.9-1.5,3.2-2.7,6.6-2.7,10.2,0,1.8-1.2,3.6-1.4,5.4,0,1.1,0,2.3.3,3.3.3,1.1.7,2.1,1.2,3.1,3.2,7.6,4,16,3.6,24.3h-7.2c-.4,0-.8,0-1.2.2-.5.2-.8.5-1.2.8-.7.5-1.5.6-2.4.5-.8-3.5.4-7.1,1-10.6.3-1.9.5-3.9.6-5.8.2-3.1.3-6.2.3-9.3,0-2.3,0-4.7-.8-7-.4-1.1-.9-2.1-1.3-3.2-.3-1.1-.5-2.2-.7-3.4-.8-5.9-2-11.7-2.8-17.6Z"/>
      <path class="st15" d="M257.9,96.1c-.5.4-.7,1.1-.9,1.7-.6,1.6-1.9,2.8-2.7,4.3-.5.9-.9,1.8-1.2,2.8-1.1,3.2-2.2,6.5-1.8,9.8,0,.7.3,1.5.8,2.1,1.2,1.2,3.3.4,4.2-.9.9-1.4.9-3.1,1.1-4.7.3-3.1,1.2-6.1,1.9-9.1.4-1.5.6-3.1.8-4.6,0-.5.3-1.5-.1-1.8-.3-.2-1.7.4-2,.6Z"/>
      <path class="st15" d="M293.1,104.6c.8,1,1.8,2,3,1.9.6,0,1.2-.3,1.7-.6,4.1-2.1,8.5-3.8,12.9-5.1-.5,1.1-.6,2.4-.4,3.6.3,1.2.9,2.3,1.8,3.2-3.7,1-7.3,2.4-10.7,4.3-.7.4-1.4.8-2,1.4-.4.4-.8.9-1.2,1.3-1,.7-2.3.8-3.5.8-.7,0-1.5,0-2.2-.2-.7-.2-1.3-.6-1.9-1.1l-8.8-6.3c-.1,0-.3-.2-.4-.3,0-.1-.2-.3-.2-.4,0-.2,0-.3,0-.5,0-.1.1-.3.2-.4l2.8-5c.6-1.1,1.4-3,2.9-3.2,1.5-.2,2,1.4,2.8,2.5,1,1.4,2.1,2.8,3.2,4.1Z"/>
      <path class="st7" d="M255.4,89.5l-4.3.6c-.9.1-1.6,1-1.4,2l1.9,12.5c.1.9,1,1.6,2,1.4l4.3-.6c.9-.1,1.6-1,1.4-2l-1.9-12.5c-.1-.9-1-1.6-2-1.4Z"/>
      <path class="st12" d="M255.4,89.5l-4.3.6c-.9.1-1.6,1-1.4,2l1.9,12.5c.1.9,1,1.6,2,1.4l4.3-.6c.9-.1,1.6-1,1.4-2l-1.9-12.5c-.1-.9-1-1.6-2-1.4Z"/>
      <path class="st7" d="M254.8,89.6l-4.3.6c-.9.1-1.6,1-1.4,2l1.9,12.5c.1.9,1,1.6,2,1.4l4.3-.6c.9-.1,1.6-1,1.4-2l-1.9-12.5c-.1-.9-1-1.6-2-1.4Z"/>
      <path class="st11" d="M253.7,96.1c.5.1,1.1-.2,1.2-.8.1-.5-.2-1.1-.8-1.2-.5-.1-1.1.2-1.2.8-.1.5.2,1.1.8,1.2Z"/>
      <path class="st14" d="M251.7,105.7c-.4-.5-.9-.9-1.2-1.4-.4-.7-.7-1.5-.7-2.3-.1-.9-.2-1.8-.2-2.7,0-.1,0-.2,0-.3,0-.1.1-.2.2-.3,0,0,.2-.1.3-.2.1,0,.2,0,.3,0,1.3.3,2.4,1,3.3,2,1.1,1.2,1.7,2.8,1.9,4.4.1.8.2,1.7.2,2.5v3.4c-.7,0-1.9.2-2.7,0-1.1-.3-.7-.1-.6-1.2.1-1.4,0-2.7-.9-3.9Z"/>
      <path class="st15" d="M254,109.4c-.5,0-.9,0-1.4-.2-.9-.4-1.4-1.3-1.8-2.1,0,1.8,0,3.7-.3,5.5-.2,1-.4,1.9-.4,2.9,0,1.2.5,2.4,1.4,3.3.2.3.5.5.8.6.7.3,1.5,0,2.1-.4.9-.6,1.6-1.4,2.1-2.4.6-1.4.6-3,.6-4.5,0-1.4.5-2.9.5-4.3-1.1-.1-2.3,1.4-3.7,1.5Z"/>
      <path class="st7" d="M260.4,82.1c1.1.6,2.4.9,3.6,1,1.3,0,2.5-.1,3.7-.6-.4,1.6.5,3.3.9,4.9,1.2,4.3-.6,8.9-3.5,12.2,1.3.1,2.7,0,3.9-.5,1.3-.5,2.4-1.2,3.3-2.1-.8,2.2-2,4.2-3.6,6,5.5-1.7,9.5-6.8,11.2-12.3,1.4-4.2,1.6-9-.2-13-1.8-4-6.1-7.1-10.5-6.7-3.2.3-6.2,2.3-7.8,5.1-1.6,2.8-2,6.2-1.3,9.4l.2-3.3Z"/>
      <path class="st12" d="M268.7,87.4c.6,2.3.4,4.7-.4,6.9,1.1-2.6,1.6-5.4.8-8-.4-1.6-1.3-3.2-.9-4.9-1.2.5-2.4.7-3.7.6-1.3,0-2.5-.4-3.6-1v1.3c1,.5,2.2.8,3.4.8,1.2,0,2.4-.2,3.5-.6-.4,1.6.5,3.2.9,4.9Z"/>
      <path class="st12" d="M261,77c-1.2,2.6-1.5,5.6-.8,8.4l.2-2.7c-.2-1.9,0-3.8.6-5.6Z"/>
      <path class="st12" d="M272.9,95.9c-.9.9-2,1.6-3.1,2.1-1.2.5-2.5.7-3.7.6-.3.4-.6.7-.8,1.1,1.3.1,2.7,0,3.9-.5,1.3-.5,2.4-1.2,3.3-2.1.2-.4.3-.7.5-1.1Z"/>
      <path class="st12" d="M269.9,101.7c-.3.5-.7.9-1.1,1.3,5.2-1.6,9-6.3,10.9-11.4-1.9,4.5-5.3,8.4-9.9,10.1Z"/>
      <path class="st7" d="M322.3,59.1v-13.4h-7v141c0,.9.4,1.8,1,2.5.7.7,1.6,1,2.5,1s1.8-.4,2.5-1c.7-.7,1-1.6,1-2.5v-120.6h17.2v9.9c-6.1.4-10.9,2.9-10.9,6s4,5.2,9.5,5.9c1,.1,2,.2,3,.2,6.9,0,12.5-2.7,12.5-6.1s-2.6-4.3-6.5-5.3c-1.4-.4-2.9-.6-4.4-.7v-9.9h35.1v9.9c-1,0-2,.2-2.9.4-4.6.9-7.9,3.1-7.9,5.6,0,.5.1,1,.3,1.4,1.3,2.7,6.2,4.6,12.1,4.6s12.5-2.7,12.5-6.1-4.7-5.6-10.9-6v-9.9h27.9v-7h-86.7ZM389.4,82.1c0,2.7-4.4,4.8-9.9,4.8s-9.9-2.2-9.9-4.8,0-.5.1-.8c.3-1.1,1.4-2,2.9-2.7,1.8-.8,3.8-1.2,5.7-1.3h2.3c4.9.3,8.8,2.3,8.8,4.8ZM346.2,77.9c2.9.8,4.9,2.4,4.9,4.1,0,2.7-4.4,4.8-9.9,4.8-.7,0-1.4,0-2.1-.1-4.5-.5-7.8-2.4-7.8-4.7s3.8-4.5,8.8-4.8h2.3c1.3,0,2.6.3,3.9.6h0Z"/>
      <path class="st10" d="M218.3,119.7h-1.1v34.3h1.1v-34.3Z"/>
      <path class="st10" d="M221.7,119.7h-1.1v34.3h1.1v-34.3Z"/>
      <path class="st10" d="M214.6,189.3c1.1,0,1.9-.9,1.9-1.9s-.9-1.9-1.9-1.9-1.9.9-1.9,1.9.9,1.9,1.9,1.9Z"/>
      <path class="st10" d="M207.8,152.4s1.9-1.6,3.6-1c1.7.5,6.1,1.1,6.8,3.8.8,2.8,0,33,0,33,0,0-3.7,1-4.7.5-1-.5-.9-5-.9-5l-.3-26.8-4.5-4.4Z"/>
      <path class="st12" d="M207.8,152.4s1.9-1.6,3.6-1c1.7.5,6.1,1.1,6.8,3.8.8,2.8,0,33,0,33,0,0-3.7,1-4.7.5-1-.5-.9-5-.9-5l-.3-26.8-4.5-4.4Z"/>
      <path class="st11" d="M225.3,186.7l-8.1,1.8v-1.4c0,0-.1-28.2-.1-28.2,0-1.3-.3-2.6-.9-3.8-.6-1.2-1.4-2.2-2.5-3,0,0,4.2,0,7.4,1.4.7.3,1.4.6,2.1.9.9.3,2.1,1,2.1,2.4,0,1.8.4,19.2.6,25.6,0,1.5-.2,3-.6,4.5h0Z"/>
      <path class="st9" d="M218.5,117.2h-1.9v2.9h1.9v-2.9Z"/>
      <path class="st12" d="M218.5,117.2h-1.9v2.9h1.9v-2.9Z"/>
      <path class="st9" d="M222,117.6h-1.9v2.9h1.9v-2.9Z"/>
      <path class="st9" d="M222,117.6h-1.9c-.4,0-.7.1-1,.3-.3.2-.5.5-.7.8,0,0,0,.1,0,.2l-.4-.4-.9-.8-.5-.5s3.5-1.8,5.4.5Z"/>
      <path class="st10" d="M222.8,190.6c1.1,0,1.9-.9,1.9-1.9s-.9-1.9-1.9-1.9-1.9.9-1.9,1.9.9,1.9,1.9,1.9Z"/>
      <path class="st10" d="M203,188c1.1,0,1.9-.9,1.9-1.9s-.9-1.9-1.9-1.9-1.9.9-1.9,1.9.9,1.9,1.9,1.9Z"/>
      <path class="st11" d="M206.6,152s-5.5,1.4-5.8,15.2-.4,15.2-.4,15.2c0,0,.1,4,8.2,6.4h4.9l.8-31.5s-.9-4.8-7.7-5.2Z"/>
      <path class="st12" d="M206.1,173.3s-1.4-19.2,6.1-19.3l.7.7s-6.6-2.4-6.8,18.6Z"/>
      <path class="st10" d="M209.5,192.3c1.1,0,1.9-.9,1.9-1.9s-.9-1.9-1.9-1.9-1.9.9-1.9,1.9.9,1.9,1.9,1.9Z"/>
      <path class="st12" d="M220.1,117.6h0c-.4,0-.7.1-1,.3-.3.2-.5.5-.7.8,0,0,0,.1,0,.2l-.4-.4s0,0,0-.1c0-.3.2-.5.4-.7.2-.2.5-.3.7-.3.3,0,.6,0,.8,0,0,0,.2.1.2.2Z"/>
      <path class="st0" d="M237,88.6c-.5-5.8,6-10.1,11.3-8.5"/>
      <path class="st0" d="M230.9,85.4c-.7-8.7,8.9-15,16.8-12.6"/>
      <path class="st0" d="M223.1,83.4c-1-12.9,13.3-22.4,25.1-18.8"/>
    </g>
  </g>
</svg>