<?xml version="1.0" encoding="UTF-8"?>
<svg id="Layer_1" xmlns="http://www.w3.org/2000/svg" version="1.1" viewBox="0 0 860.2 646">
  <!-- Generator: Adobe Illustrator 30.3.0, SVG Export Plug-In . SVG Version: 2.1.3 Build 182)  -->
  <defs>
    <style>
      .st0 {
        fill: #2f2e41;
      }

      .st1 {
        fill: #fff;
      }

      .st2 {
        fill: #3f3d56;
      }

      .st3 {
        fill: #ffb8b8;
      }

      .st4 {
        fill: #cbcbcb;
      }

      .st5 {
        fill: #ccc;
      }

      .st6 {
        fill: #ff5e5e;
      }

      .st7 {
        fill: #ffb7b7;
      }
    </style>
  </defs>
  <path class="st2" d="M45.8,645.4l-1-1.8c12.8-6.9,28.6-15.5,36.9-29.6,8.2-13.9,8.4-32.7.5-49.2-6.7-14-19-26.6-35.6-36.3-3.3-1.9-6.7-3.7-10-5.5-8-4.3-16.3-8.7-23.2-14.9-9.4-8.6-16.6-23-11.2-35.9,3.6-8.4,11.6-14,20.7-14.5v2c-8.2.4-15.6,5.6-18.8,13.2-4.9,11.9,1.8,25.5,10.8,33.6,6.7,6.1,14.9,10.4,22.8,14.6,3.3,1.8,6.8,3.6,10.1,5.5,16.9,9.9,29.5,22.8,36.4,37.2,8.2,17.1,7.9,36.6-.6,51.1-8.6,14.6-24.7,23.3-37.7,30.3Z"/>
  <ellipse class="st2" cx="35.5" cy="459.9" rx="17.5" ry="8.5"/>
  <ellipse class="st2" cx="49.5" cy="515.9" rx="17.5" ry="8.5"/>
  <ellipse class="st2" cx="17.5" cy="524.9" rx="17.5" ry="8.5"/>
  <ellipse class="st2" cx="67.5" cy="571.9" rx="17.5" ry="8.5"/>
  <ellipse class="st2" cx="102.5" cy="571.9" rx="17.5" ry="8.5"/>
  <path class="st6" d="M220.5,437.9h41.3c2.8-16.3,2.8-33,0-49.2h-41.3c4.7,16.1,4.7,33.2,0,49.2Z"/>
  <polygon class="st7" points="93 633.4 104.3 633.4 109.7 589.7 93 589.7 93 633.4"/>
  <path class="st0" d="M90.1,629.7h22.3s0,0,0,0c7.9,0,14.2,6.4,14.2,14.2v.5h-36.6s0-14.7,0-14.7Z"/>
  <polygon class="st7" points="229.3 633 240.3 630.3 235.1 586.5 218.8 590.6 229.3 633"/>
  <path class="st0" d="M225.6,630.1l21.7-5.3h0c7.6-1.9,15.3,2.8,17.2,10.4v.4c.1,0-35.4,8.7-35.4,8.7l-3.5-14.3Z"/>
  <path class="st0" d="M86,623l2.4-12.1s4.3-46.5,35.5-93l10.1-50.5s-3-38.2,26-58.9l9-6.2,31.4,1.8,7.2,39.7,14.6,93.9s3.8.4,5.2,11.2c2.9,4.6,4.6,9.8,4.9,15.1,0,0,7.5,20.6,9.5,35.8l-.2,14.9-15.8,8.4-32.9-93-23.5-52s-11.3,36.7-28.7,68c0,0-23.8,51.4-28.5,61.9l-5.2,17.1-21-2.2Z"/>
  <circle class="st7" cx="191" cy="300.1" r="22.4"/>
  <circle class="st3" cx="191" cy="300.1" r="22.4"/>
  <path class="st2" d="M160.1,408.8l7.4-18.5c-5.2-16.9-4.9-35.1.9-51.9h0l1.4-1.2c12.3-10.2,23.2-8.3,33.2,4.1h0c1.6,2,3.5,3.8,5.6,5.3,4.4,3.1,11.5,20,2.2,29.9l-7.4,43.3c.8,23.9-16.6,14.9-43.3-11.1Z"/>
  <path class="st7" d="M225.8,434.4c-.6-4.5-4.7-7.7-9.2-7.1-.5,0-1,.2-1.4.3l-12-14.4-10.5,5.2,17.3,20.1c1.6,4.3,6.4,6.4,10.7,4.7,3.6-1.4,5.7-5,5.2-8.8h0Z"/>
  <path class="st5" d="M200.4,434.2l-30.1-45.1,8.7-32.7c3-6.2,10.4-8.7,16.6-5.7,6.1,3,8.7,10.4,5.7,16.5l-10.4,21.5,24.5,35.1-14.9,10.4Z"/>
  <circle class="st0" cx="151" cy="273.7" r="21.5"/>
  <path class="st0" d="M132.4,291.5c9.6,7,23.1,4.8,30.1-4.8,1.4-2,2.5-4.1,3.2-6.5-1.5,11.8-12.2,20.2-24,18.7-11.8-1.5-20.2-12.2-18.7-24,.1-1.2.4-2.3.7-3.5-1,7.8,2.4,15.5,8.7,20.1Z"/>
  <path class="st0" d="M217.4,291.5c-3.8-6.7-5.2-9.5-10-13.6-4.3-3.6-9.6-4.7-13.8-1.3-12.9-5.6-27.9.4-33.5,13.3-5.6,12.9.4,27.9,13.3,33.5s27.9-.4,33.5-13.3c1.4-3.2,2.1-6.6,2.1-10.1,0-1,0-1.9-.2-2.9,3.7-.5,5-5.1,8.7-5.6Z"/>
  <path class="st4" d="M325.3,646H20.3c-.6,0-1-.4-1-1s.4-1,1-1h305c.6,0,1,.4,1,1s-.4,1-1,1Z"/>
  <path class="st2" d="M790.4,80.6h-.9v-25.5c0-8.2-6.6-14.8-14.8-14.8h-54.1c-8.2,0-14.8,6.6-14.8,14.8h0v140.1c0,8.2,6.6,14.8,14.8,14.8h54.1c8.2,0,14.8-6.6,14.8-14.8h0v-96.4h.9v-18.2Z"/>
  <path class="st1" d="M774.7,44.2h-7.1c1.1,2.7-.2,5.7-2.9,6.8-.6.3-1.3.4-2,.4h-31c-2.9,0-5.2-2.3-5.2-5.2,0-.7.1-1.4.4-2h-6.6c-6.1,0-11,4.9-11,11v139.9c0,6.1,4.9,11,11,11h54.4c6.1,0,11-4.9,11-11h0V55.2c0-6.1-4.9-11-11-11h0Z"/>
  <rect class="st2" x="742.7" y="95.5" width="33.7" height="2.7"/>
  <rect class="st2" x="742.7" y="103.9" width="33.7" height="2.7"/>
  <rect class="st2" x="742.7" y="112.4" width="33.7" height="2.7"/>
  <rect class="st2" x="719.9" y="97.1" width="16.3" height="16.3"/>
  <circle class="st6" cx="731" cy="147.8" r="7.1"/>
  <circle class="st6" cx="749.9" cy="147.8" r="5.8"/>
  <circle class="st6" cx="768.8" cy="147.8" r="3.5"/>
  <path class="st2" d="M543.5,202.3h-124.2c-6.1,0-11.1-5-11.1-11.1V11.1c0-6.1,5-11.1,11.1-11.1h124.2c6.1,0,11.1,5,11.1,11.1v180.1c0,6.1-5,11.1-11.1,11.1Z"/>
  <path class="st1" d="M543.7,195.2h-124.6c-1.9,0-3.4-1.5-3.4-3.4V10.5c0-1.9,1.5-3.4,3.4-3.4h124.6c1.9,0,3.4,1.5,3.4,3.4v181.3c0,1.9-1.5,3.4-3.4,3.4Z"/>
  <circle class="st1" cx="481" cy="3.4" r=".9"/>
  <rect class="st2" x="463.8" y="62.7" width="69.3" height="4"/>
  <rect class="st2" x="463.8" y="75.3" width="69.3" height="4"/>
  <rect class="st2" x="463.8" y="87.9" width="69.3" height="4"/>
  <rect class="st2" x="429.8" y="65.1" width="24.3" height="24.3"/>
  <circle class="st6" cx="458.1" cy="130" r="9.6"/>
  <circle class="st6" cx="483.9" cy="130" r="7.9"/>
  <circle class="st6" cx="509.6" cy="130" r="4.8"/>
  <path class="st2" d="M779.7,219h-366.4c-5.6,0-10.1,4.5-10.1,10.1h0v204.1c0,5.6,4.5,10.1,10.1,10.1h366.4c5.6,0,10.1-4.5,10.1-10.1h0v-204.1c0-5.6-4.5-10.1-10.1-10.1h0Z"/>
  <rect class="st1" x="416.7" y="236.8" width="359.5" height="202.8"/>
  <circle class="st1" cx="596.2" cy="227.6" r="3.7"/>
  <path class="st2" d="M799.8,435.9h-35.1v-2.5c0-.3-.2-.5-.5-.5h-12c-.3,0-.5.2-.5.5h0v2.5h-7.5v-2.5c0-.3-.2-.5-.5-.5h-12c-.3,0-.5.2-.5.5h0v2.5h-7.5v-2.5c0-.3-.2-.5-.5-.5h-12c-.3,0-.5.2-.5.5h0v2.5h-7.5v-2.5c0-.3-.2-.5-.5-.5h-12c-.3,0-.5.2-.5.5h0v2.5h-7.5v-2.5c0-.3-.2-.5-.5-.5h-12c-.3,0-.5.2-.5.5h0v2.5h-7.5v-2.5c0-.3-.2-.5-.5-.5h-12c-.3,0-.5.2-.5.5h0v2.5h-7.5v-2.5c0-.3-.2-.5-.5-.5h-94.2c-.3,0-.5.2-.5.5h0v2.5h-7.5v-2.5c0-.3-.2-.5-.5-.5h-12c-.3,0-.5.2-.5.5h0v2.5h-7.5v-2.5c0-.3-.2-.5-.5-.5h-12c-.3,0-.5.2-.5.5h0v2.5h-7.5v-2.5c0-.3-.2-.5-.5-.5h-12c-.3,0-.5.2-.5.5h0v2.5h-7.5v-2.5c0-.3-.2-.5-.5-.5h-12c-.3,0-.5.2-.5.5h0v2.5h-7.5v-2.5c0-.3-.2-.5-.5-.5h-12c-.3,0-.5.2-.5.5v2.5h-7.5v-2.5c0-.3-.2-.5-.5-.5h-12c-.3,0-.5.2-.5.5h0v2.5h-23.1c-6.6,0-12,5.4-12,12v5.4c0,6.6,5.4,12,12,12h400c6.6,0,12-5.4,12-12v-5.4c0-6.6-5.4-12-12-12Z"/>
  <rect class="st4" x="560.3" y="256.1" width="116.3" height="4.3"/>
  <rect class="st4" x="560.3" y="269.8" width="116.3" height="4.3"/>
  <rect class="st4" x="560.3" y="283.4" width="116.3" height="4.3"/>
  <rect class="st4" x="523.5" y="258.8" width="26.3" height="26.3"/>
  <circle class="st6" cx="596.2" cy="355.7" r="46.1"/>
  <polygon class="st1" points="588.7 362.6 579 362.6 596.1 327.8 613.3 362.5 603.7 362.5 603.7 377 588.7 377 588.7 362.6"/>
  <path class="st2" d="M352.9,189c6.6-7.7,15.6-12.9,25.5-14.7l-4.4-3.7,4.7-.4,6,5.1-5.1,6-4.7.4,3.4-4c-22,4.4-36.3,25.8-31.9,47.8,3.9,19.6,21.4,33.4,41.3,32.7v3.3c-24.1.9-44.5-18.1-45.4-42.3-.4-11,3.4-21.8,10.5-30.1h0Z"/>
  <path class="st2" d="M850,219.2c-.9,24.2-21.2,43.2-45.5,42.3v-3.3c22.5.8,41.4-16.7,42.2-39.1.7-19.9-13.1-37.4-32.7-41.3l3.4,4-4.7-.4-5.1-6,6-5.1,4.7.4-4.4,3.7c21.5,3.9,36.8,23,36,44.8h0Z"/>
  <path class="st4" d="M859.2,466H333.2c-.6,0-1-.4-1-1s.4-1,1-1h526c.6,0,1,.4,1,1s-.4,1-1,1Z"/>
</svg>