<?xml version="1.0" encoding="UTF-8"?>
<svg id="Layer_1" xmlns="http://www.w3.org/2000/svg" version="1.1" viewBox="0 0 960 820.9">
  <!-- Generator: Adobe Illustrator 30.3.0, SVG Export Plug-In . SVG Version: 2.1.3 Build 182)  -->
  <defs>
    <style>
      .st0 {
        fill: #f2c9bb;
      }

      .st1 {
        fill: #f2bf5e;
      }

      .st2 {
        fill: #090814;
      }

      .st3 {
        fill: #447ef2;
      }

      .st4 {
        isolation: isolate;
        opacity: .1;
      }

      .st5 {
        fill: #0554f2;
      }

      .st6 {
        fill: none;
        stroke: #090814;
        stroke-miterlimit: 10;
      }
    </style>
  </defs>
  <path class="st1" d="M961,819.3c0,.5-.3.9-.8,1.2-.6.3-1.2.5-1.8.5H3.6c-1.4,0-2.6-.7-2.6-1.6s1.2-1.6,2.6-1.6h954.8c.6,0,1.3.2,1.8.5.4.2.7.7.8,1.2Z"/>
  <g>
    <path class="st1" d="M553.5,325.9c-1.1,0-2.1,0-3.2-.2l-117.2-18.4c-11.1-1.7-18.7-12.2-17-23.3,0-.2,0-.3,0-.5l24.4-133.5c2-10.8,12.2-18.2,23.1-16.5l115.3,17c11.2,1.6,18.9,12,17.2,23.2,0,.1,0,.3,0,.4l-22.5,134.9c-1.7,9.8-10.2,17-20.1,17h0Z"/>
    <path class="st5" d="M558.1,187.2c-.4,0-.7,0-1.1-.1l-91.9-17.1c-3.2-.6-5.3-3.7-4.7-6.8.6-3.2,3.7-5.3,6.8-4.7l91.9,17.1c3.2.6,5.3,3.7,4.7,6.8-.5,2.8-2.9,4.8-5.8,4.8h0Z"/>
    <path class="st5" d="M549.4,217.9c-.3,0-.5,0-.8,0l-88.1-12c-3.2-.4-5.5-3.3-5.1-6.5.4-3.2,3.3-5.5,6.5-5.1,0,0,0,0,.1,0l88.1,12c3.2.4,5.5,3.4,5,6.6-.4,2.9-2.9,5.1-5.8,5.1h0Z"/>
    <path class="st5" d="M514,249.4c-.3,0-.6,0-.9,0l-59.5-9.6c-3.2-.5-5.4-3.5-4.8-6.7.5-3.2,3.5-5.4,6.7-4.8h0l59.5,9.6c3.2.5,5.4,3.5,4.8,6.7-.5,2.8-2.9,4.9-5.8,4.9h0Z"/>
    <path class="st2" d="M557.5,303.1c-.3,0-.6,0-.9,0l-39.5-6.5c-3.2-.5-5.4-3.5-4.8-6.7.5-3.2,3.5-5.4,6.7-4.8l39.5,6.5c3.2.5,5.4,3.5,4.8,6.7-.5,2.8-2.9,4.9-5.8,4.9h0Z"/>
  </g>
  <g>
    <circle class="st5" cx="219.3" cy="143.6" r="13.8"/>
    <circle class="st1" cx="246.3" cy="17.4" r="7.2"/>
    <circle class="st1" cx="213.4" cy="96.4" r="7.2"/>
    <path class="st5" d="M217.9,0c-21.6.2-39.1,17.6-39.4,39.1v3.4c0,5.6,4.5,10.1,10.1,10.1h0c5.6,0,10.1-4.5,10.1-10.1h0v-2.2c0-10.6,8.6-19.2,19.1-19.2,10.6,0,19.2,8.6,19.2,19.1,0,6.5-3.3,12.6-8.8,16.1h0s-14.4,9.3-18.8,21.9h0c-.8,2.6-1.2,5.3-1.2,8,0,1.1,0,10.9.2,18.8,0,5.7,4.7,10.2,10.4,10.2h0c5.8,0,10.4-4.7,10.4-10.4,0,0,0,0,0,0,0-7.2,0-15.7,0-16.3,0-7.8,7.5-15.6,13.7-20.6,7.1-5.8,12.2-13.8,14.3-22.7.5-1.8.7-3.7.7-5.6C257.9,17.8,240.1,0,218.2,0c0,0-.2,0-.3,0h0Z"/>
    <path class="st3" d="M191.4,47.9h0c-5.6,0-10.1-4.5-10.1-10.1h0v-3.4c0-6.3,1.7-12.4,4.6-17.9-4.8,6.6-7.5,14.5-7.6,22.7v3.4c0,5.6,4.5,10.1,10.1,10.1h0c4.5,0,8.5-3,9.7-7.4-1.8,1.7-4.2,2.6-6.7,2.6Z"/>
    <path class="st3" d="M218.5,21.3c10.6.5,18.7,9.5,18.2,20-.1,2.3-.6,4.6-1.6,6.7,6.9-8.1,5.9-20.1-2.2-27s-20.1-5.9-27,2.2c-1.2,1.4-2.2,3.1-3,4.8,3.8-4.5,9.6-7,15.5-6.7h0Z"/>
    <path class="st3" d="M221.7,110.7h0c-5.7,0-10.3-4.6-10.4-10.2-.1-7.9-.2-17.7-.2-18.8,0-2.7.4-5.4,1.2-8h0c.5-1.3,1-2.6,1.6-3.8-2,2.6-3.5,5.5-4.6,8.6h0c-.8,2.6-1.2,5.3-1.2,8,0,1.1,0,10.9.2,18.8,0,5.7,4.7,10.2,10.4,10.2h0c4.6,0,8.7-3.1,10-7.5-1.9,1.7-4.4,2.7-7,2.7Z"/>
    <path class="st3" d="M216.3,154c-7-3-10.2-11.1-7.1-18.1.5-1.2,1.2-2.3,2-3.3-6.1,4.5-7.5,13.1-3,19.2,4.5,6.1,13.1,7.5,19.2,3,.9-.7,1.8-1.5,2.5-2.3-3.9,2.9-9.1,3.5-13.6,1.5h0Z"/>
  </g>
  <path class="st0" d="M189.1,478.9s20.5,42.7,6.8,44.4-17.1-38.4-17.1-38.4l10.2-6Z"/>
  <path class="st0" d="M944.3,769.8l-15.7,10.4-47.7-55.8,23.2-15.4,40.2,60.7Z"/>
  <path class="st0" d="M765.4,805h-22.2l-8.4-52.5h30.6v52.5Z"/>
  <path class="st0" d="M640.7,344.1l-66.2-47.3c.8-7.1-4.2-13.4-11.3-14.3-7.1-.8-13.4,4.2-14.3,11.3-.8,6.6,3.6,12.7,10.1,14.1,8.3,6.9,68.7,67,77.3,63.9,8.8-3.2,47.2-9,47.2-9l1.1-36.4-43.9,17.8Z"/>
  <path class="st2" d="M696.5,417.9l-10.2,89.2s15.4,132.7,21.1,155.1,19.4,104.7,19.4,104.7h42.7l-20-120.2,7.3-112.4,42.1,112.7,90.9,97.9,31.4-22.9-81.3-121.9-28.4-112.1s3.5-58-28.3-80.3l-86.7,10.2Z"/>
  <path class="st0" d="M718,254.2c-19.1-2.8-32.3-20.5-29.4-39.6,2.8-19.1,20.5-32.3,39.6-29.4,19.1,2.8,32.3,20.5,29.4,39.6-1.2,7.9-5,15.1-10.8,20.5l7.8,24.7-32.9,4.4-3.6-20.2Z"/>
  <path class="st1" d="M692.7,431.5l-1.7-.8c3.5-7,10.2-37.8,6.4-44.7-3.6-6.6-10.1-11.3-13.6-18-2.8-5.6-3.8-11.8-2.9-18l-14.3-18.9,45.8-47.1c.6-.7,1.3-1.3,2-2,.2-5.7-2.5-10,4.6-13.9,5.9-3.3,32.1-6.3,38.6-4.3,9.6,2.9,11.8,9.7,16.3,18.7,18.4,37,24,79.1,15.8,119.6-1.7,8.3,8.9,11.9,1.9,16.8-4.7,3.3-23.9,9.5-29.6,10.2-15.7,2-31.4,3-47.2,3-7.4,0-14.7-.2-22.1-.6Z"/>
  <path class="st0" d="M808.5,377.1c-3.2-8.8-9-47.2-9-47.2l-36.4-1.1,17.8,43.9-48.6,68.1s0,.1.3.4c-7-1.1-13.6,3.6-14.7,10.7-1.1,7,3.6,13.6,10.7,14.7s13.6-3.6,14.7-10.7c0-.4,0-.7.1-1.1.4.2.8.1,1.1-.2,5.4-6.8,67.4-68.9,64.1-77.7Z"/>
  <path class="st1" d="M812.2,352.9c-3.3-14.1-6.7-28.3-12.4-41.7s-13.7-26-25.1-35c-3.5-3.1-7.7-5.2-12.2-6.3-4.6-.9-9.7.1-12.9,3.5-5.1,5.4-3.6,14-1.7,21.2l16.6,63.5,47.9-5.1h-.3Z"/>
  <path class="st2" d="M912,754.3s-5.9-4.1-8-2.8-18.8,27.8-18.8,27.8c0,0-23.2,20.7-5.2,21.7,18,1,65.3-27.1,64.9-32.7-.4-5.6-14.7-21.6-14.7-21.6,0,0-8.7,14.8-18.2,7.6Z"/>
  <path class="st2" d="M744.2,788.4s-2.1-6.4-4.6-6.3-29.4,16.2-29.4,16.2c0,0-30.1,7.9-14.5,17s70.5,5.6,72.7.4-2.9-25.8-2.9-25.8c0,0-16.2,9.2-21.3-1.5"/>
  <g>
    <path class="st0" d="M111.4,752l16.7,31.6-27.7,8.1-5.9-28.6,17-11.1Z"/>
    <path class="st2" d="M126.9,779.9l29.3,15s45.9,10.9,16,20-43.3,2.6-43.3,2.6c0,0-39.1,2-38.5-8.9s8.1-26.2,8.1-26.2c0,0,26.2,6.8,28.3-2.5Z"/>
    <path class="st2" d="M50.8,478.4l12.8,154.9s.4,92.6,14.1,110.5,14.1,26.9,14.1,26.9l28.2-14.5s-14.5-24.2-11.5-27.9c1.8-2.3,3.2-5.1,3.8-8l-7.7-95.6,14.5-166.4-68.3,20.1Z"/>
    <path class="st6" d="M70.4,770.7"/>
    <path class="st0" d="M85.8,752l-11.9,31.6-34.1-12.8,21.3-22.2,24.7,3.4Z"/>
    <path class="st2" d="M159.2,478.9l6.8,142.5s-33.3,94.7-62.3,110.1c0,0,0,18.8-6.8,22.2-4.1,2.1-7.2,5.8-8.5,10.2l-37.6-9.4,17.1-27.3,37.5-91.3s6-2.6,7.7-11.1,5.1-8.5-3.4-10.2-8.5-10.2-8.5-10.2l-28.2-129.7,86.2,4.3Z"/>
    <path class="st0" d="M92.2,271.1c2.2-2.8,4.1-22.7,5.1-35.9-7.8-17.2-.1-37.4,17.1-45.2s37.4-.1,45.2,17.1.1,37.4-17.1,45.2c-4.4,2-9.2,3-14,3-.5,0-.9,0-1.4,0,.3,9.8,1,19.2,1,19.2,0,0-3.2,0-7.7,0-11.3,0-30.5-.4-28.1-3.5Z"/>
    <path class="st2" d="M71,767s11.3-7,12.7-4.2,7.1,14.7,7.1,14.7l6.3,17.5s38.8,24.5,5.6,25.9-41.6-17.5-41.6-17.5c0,0-37.4-16.1-31.7-25.9s25.4-19.9,25.4-19.9c0,0,9.9,17.1,16.2,9.5Z"/>
    <path class="st2" d="M110.6,236.2c2.6-1.2,5.6-1.3,8.4-2,10.3-2.8,17.1-12.8,15.9-23.4-.3-1.3-.4-2.7-.3-4,.6-3,3.7-4.7,6.7-5.2s6.1-.2,9-1.2c4.5-1.7,7.7-5.6,8.5-10.3.7-4.6,0-9.4-2.2-13.6l-1.2,3c-1.5-1.5-2.6-3.3-3.2-5.4-2.5.3-4.6,1.8-5.7,4-1.8.9-1.8-3.2-3.6-4-.8-.2-1.7,0-2.4.4-3.9,1.5-8.2-.2-12.2-1.5-6.9-2.1-14.3-2.6-21.4-1.3-4.8.6-9.3,2.6-13.1,5.7-2.8,2.8-5,6.2-6.5,9.8-4.1,8.8-7.1,18.5-6.5,28.2.5,8,3.4,15.6,8.2,21.9,2.5,3.3,10.7,14.7,15.7,13.2,6.2-2-1.5-11.2,5.9-14.5"/>
    <path class="st1" d="M167.7,473.7c-.8-.2-3.3-5.3-6.9-13.7l.9,28.2s-96.4-8.5-114.4,0c0,0-.9-19.6-2.6-22.2-1.2-1.9-3.4-76.3-4.5-116.5-.7-22.7,7.3-44.8,22.4-61.8,5.2-5.7,11-10.5,17.1-12.9,0,0-1.7-16.2,6.8-17.1,0,0,32.4-3.4,44.4,6.8,3.8,3.3,7.9,6.2,12.2,8.7,4.9,3,8.7,7.5,10.7,12.9,1.7,2.9,2.9,6.1,3.4,9.5l12.2,86.7,17.1,69.1s8.5,7.7,5.1,11.9,4.3,22.2,4.3,22.2l-21.3,6.8s-2.6-17.9-6.8-18.8Z"/>
    <path class="st4" d="M110.1,327.4l51.6,139.7s-49.9-94.4-51.6-139.7Z"/>
  </g>
  <path class="st2" d="M713.5,202.7c-2.4,6.6,1.1,13.9,7.7,16.2,1.6.6,3.4.8,5.1.7h.2c6.1,7.6,6.3,18.5.4,26.3h0c-.5,10.1,1.1,20.2,4.7,29.7,0,0,3.6,21.8,10,26.6,6.3,4.9,15.4-7.2,15.4-7.2,0,0,0,12.4,8.6,11.4s21.7,4.9,26-15.3-10.4-57.3-10.4-57.3l-7.9-31.8c-5.6-22.4-28.3-36-50.6-30.4-.2,0-.4.1-.6.2l-17.3,4.6c-13.2,3.5-21.1,17.1-17.6,30.3,0,.4.2.7.3,1.1h0l26-5.2"/>
</svg>