<?xml version="1.0" encoding="UTF-8"?>
<svg id="Layer_1" xmlns="http://www.w3.org/2000/svg" version="1.1" viewBox="0 0 709.7 800">
  <!-- Generator: Adobe Illustrator 30.3.0, SVG Export Plug-In . SVG Version: 2.1.3 Build 182)  -->
  <defs>
    <style>
      .st0 {
        fill: #ffcf60;
      }

      .st1 {
        fill: #fff;
      }

      .st2 {
        fill: #9f616a;
      }

      .st3 {
        fill: #090814;
      }

      .st4 {
        fill: #4272ef;
      }

      .st5 {
        fill: #ff5e5e;
      }
    </style>
  </defs>
  <g>
    <path class="st4" d="M311.4,352.9l53.9-45.5c3.8-3.2,4.3-9,1.1-12.8l-9.9-11.8c-3.2-3.8-9-4.3-12.8-1.1l-53.9,45.5c-3.8,3.2-4.3,9-1.1,12.8l9.9,11.8c3.2,3.8,9,4.3,12.8,1.1Z"/>
    <path class="st0" d="M362.5,295.5c1.7,2.1,1.5,5.2-.6,6.9l-53.9,45.5c-2.1,1.7-5.2,1.5-6.9-.6l-9.9-11.8c-1.7-2.1-1.5-5.2.6-6.9l53.9-45.5c2.1-1.7,5.2-1.5,6.9.6l9.9,11.8Z"/>
  </g>
  <rect class="st2" x="280.8" y="739.2" width="26.2" height="34.5"/>
  <path class="st3" d="M285.2,797.5h55.7c4.8,0,9.5-1.1,13.8-3.2l10.3-4.9c3.1-1.5,4.4-5.2,2.9-8.2-.8-1.6-2.2-2.8-3.9-3.3l-21.2-5.9-36.2-19.1h0c-.7,3.6-1.7,8.8-1.9,9.1-3.7,4.3-7.5,6.2-11.3,5.8-6.7-.7-11.1-8.4-11.1-8.4h0c0,0,0,0,0,0-1.4,0-2.6.7-3.4,1.9-1.5,2.3-.6,5.8-.4,6.3-1.8,1.8-2.6,11.7-2.7,12.5-2.6,2.8-3.9,5.5-3.7,8,.3,2.4,1.6,4.6,3.6,6,2.8,2.2,6.2,3.4,9.8,3.4h0Z"/>
  <rect class="st2" x="98.4" y="730.5" width="34.5" height="26.2" transform="translate(-630.7 647) rotate(-73.8)"/>
  <path class="st3" d="M95.9,780.7l53.5,15.6c4.6,1.3,9.4,1.6,14.2.8l11.2-1.9c3.4-.6,5.6-3.7,5.1-7.1-.3-1.7-1.3-3.3-2.8-4.2l-18.7-11.5-29.5-28.4h0c-1.6,3.2-4.1,7.9-4.3,8.2-4.8,3.1-9,3.9-12.5,2.4-6.2-2.5-8.3-11.1-8.3-11.2h0c0,0,0,0,0,0-1.3-.3-2.7,0-3.8.8-2.1,1.8-2.2,5.4-2.2,6-2.2,1.2-5.8,10.5-6.1,11.3-3.3,1.9-5.2,4.2-5.8,6.6-.4,2.4.2,4.9,1.8,6.8,2,2.9,5,5,8.4,6h0Z"/>
  <path class="st2" d="M182.6,118.5c0-23.5,19.1-42.6,42.6-42.6s42.6,19.1,42.6,42.6c0,18.6-12.1,35.1-29.8,40.6l-8.2,54.4-42-35c5.7-7.5,10.4-15.8,13.9-24.6-11.9-7.9-19.1-21.2-19.1-35.5h0Z"/>
  <path class="st0" d="M165.7,328.7l-6.2-86.1c-.5-7.5.4-15,2.8-22.1l18.2-54.7,53.7,17.2,22.6,51.8,12.3,22.6c5.6,10.3,3.8,23.1-4.5,31.4l-7.8,7.8,10.9,40h-1.1s1.5.2,1.5.2c0,0,72.9,219.2,70.3,405.7h-93.5l-5.6-216.4-16.2,224.8-123.3-7.1,65.9-415.2h0Z"/>
  <path class="st2" d="M320.1,345.7c.5-9.6-8.5-17.9-20.1-18.5-6.1-.4-12.1,1.6-16.7,5.7h-.3s-68.8-7.1-68.8-7.1l5.2-68.3c1.9-13.2-1.8-26.5-14.8-29.5h0c-13.8-3.2-27.6,5.4-30.8,19.3-.4,1.9-.7,3.9-.7,5.9l.4,86.1c0,12.2,10,22.1,22.2,22,0,0,0,0,0,0l86.4-6.5c4.1,4.5,9.9,7.2,16.1,7.4,11.6.6,21.4-6.7,21.9-16.3h0Z"/>
  <path class="st0" d="M225.9,227.3l-4.1,77.9-57.6-3.9,10.2-81.1"/>
  <path class="st0" d="M504.2,799.4l-502,.6c-1.2,0-2.2-1-2.2-2.2s1-2.2,2.2-2.2h0l502-.6c1.2,0,2.2,1,2.2,2.2s-1,2.2-2.2,2.2h0Z"/>
  <path class="st3" d="M237.1,98.8c2.7,7.4-1.2,15.6-8.7,18.3-1.8.7-3.8.9-5.8.8h-.2c-6.9,8.6-7.1,20.9-.5,29.7h0c.5,11.4-1.2,22.8-5.3,33.5,0,0-2.9,11.9-10,17.4s-17.4-8.1-17.4-8.1c0,0,0,14-9.7,12.9s-24.5,5.5-29.3-17.2,10.4-52.1,10.4-52.1l9-35.8c6.3-25.2,31.9-40.6,57.1-34.3.2,0,.4.1.7.2l19.5,5.2c7.4,2,13.6,6.9,17.3,13.5,3.7,6.7,6.4,14.7,4.1,22l-31.3-6"/>
  <g>
    <path d="M410.9,6h0c4.5-1.2,9.1,1.4,10.3,5.9.2.6.3,1.3.3,1.9l.2,6,8.9-2.5c3.2-.9,6.6.9,7.5,4.2.2.6.2,1.1.2,1.7v16.9c0,2.7-1.9,5.1-4.5,5.8l-26.3,7.5c-3.2.9-6.6-.9-7.5-4.2l-4.5-15.6c-.9-3.2.9-6.6,4.2-7.5l5.4-1.5c.7-.2,1.3-.8,1.4-1.6l2.9-15.4c.1-.8.7-1.4,1.4-1.6ZM432.8,42c.9-.3,1.5-1,1.5-1.9v-16.9c0-1.1-.8-2-2-2-.2,0-.4,0-.6,0l-11.4,3.3c-1.1.3-2.2-.3-2.5-1.4,0-.2,0-.3,0-.5l-.4-8.6c0-2.3-2-4.1-4.3-4.2l-2.6,13.9c-.4,2.3-2.1,4.1-4.3,4.7l-5.4,1.5c-1.1.3-1.7,1.4-1.4,2.5l4.5,15.6c.3,1.1,1.4,1.7,2.5,1.4l26.3-7.6Z"/>
    <path d="M413.4,51.7c-1.1.3-2.2-.3-2.5-1.4h0s-6.7-23.4-6.7-23.4c-.3-1.1.3-2.2,1.4-2.5s2.2.3,2.5,1.4h0s6.7,23.4,6.7,23.4c.3,1.1-.3,2.2-1.4,2.5h0Z"/>
  </g>
  <path class="st5" d="M440.1,161.2h0c0,0-.1,0-.2.1-6.3-9.6-19.1-12.4-28.9-6.3h0c-9.8,6.1-12.8,19-6.8,28.9h0l.2.2h0l22.3,35.5,35.7-22.5h0c0-.1.1-.2.2-.2h0c9.9-6.2,12.8-19.2,6.6-29.1h0c-6.2-9.9-19.2-12.8-29.1-6.6h0Z"/>
  <g>
    <path class="st3" d="M556.9,149.9c-.8,0-1.5-.2-2.1-.7l-7.1-6.4-6.4,7.1c-1.1,1.2-2.9,1.3-4.1.2-1.2-1.1-1.3-2.9-.2-4.1l8.3-9.2c1.1-1.2,2.9-1.3,4.1-.2h0s9.2,8.3,9.2,8.3c1.2,1.1,1.3,2.9.2,4.1-.5.6-1.2.9-2,1h0Z"/>
    <path class="st3" d="M572.9,175.5l-17.6.9c-4.9.2-9-3.5-9.2-8.3l-1.5-29.3c0-1.6,1.2-3,2.8-3,1.6,0,2.9,1.2,3,2.7l1.5,29.3c0,1.6,1.5,2.9,3.1,2.8l17.6-.9c1.6,0,3,1.2,3,2.8,0,1.6-1.1,2.9-2.7,3h0Z"/>
    <path class="st3" d="M590.5,174.6c-.8,0-1.5-.2-2.1-.7l-9.2-8.3c-1.2-1.1-1.4-2.9-.3-4.1,1.1-1.2,2.9-1.4,4.1-.3,0,0,0,0,0,0l7.1,6.4,6.4-7.1c1-1.2,2.9-1.4,4.1-.3,1.2,1,1.4,2.9.3,4.1,0,0,0,0-.1.1l-8.3,9.2c-.5.6-1.2.9-2,1h0Z"/>
    <path class="st3" d="M590.5,174.6c-1.6,0-3-1.2-3.1-2.8l-1.5-29.3c0-1.6-1.5-2.9-3.1-2.8l-17.6.9c-1.6,0-3-1.2-3.1-2.8s1.2-3,2.8-3.1l17.6-.9c4.9-.2,9,3.5,9.2,8.3l1.5,29.3c0,1.6-1.2,3-2.8,3.1,0,0,0,0,0,0Z"/>
  </g>
  <g>
    <path class="st5" d="M541.7,68.9c-3.4,0-6.1-2.7-6.1-6.1,0-.4,0-.8.1-1.2,0-.1,0-.2,0-.3l3.2-9.8c0-.5,0-1.1-.1-1.6-7.9-16.6-.9-36.6,15.8-44.5,16.6-7.9,36.6-.9,44.5,15.8,7.9,16.6.9,36.6-15.8,44.5-9,4.3-19.4,4.3-28.4.2-.5-.2-1-.2-1.5-.1l-10.2,3h0c-.5.2-1,.2-1.6.2h0ZM554,59.6c1.1,0,2.2.2,3.2.6,0,0,.1,0,.2,0,13.7,6.4,29.9.5,36.3-13.2s.5-29.9-13.2-36.3c-13.7-6.4-29.9-.5-36.3,13.2-3.5,7.4-3.4,16,.1,23.4,0,0,0,0,0,.1h0s0,0,0,.1c.7,1.7.8,3.5.4,5.3,0,0,0,.2,0,.3l-3.1,9.7,10.3-3c0,0,.2,0,.3,0,.6-.1,1.2-.2,1.8-.2h0Z"/>
    <path class="st5" d="M556.9,38.6h0c-1.7,0-3-1.4-3-3,0-1.7,1.4-3,3-3h0c1.7,0,3,1.4,3,3,0,1.7-1.4,3-3,3Z"/>
    <path class="st5" d="M569.1,38.6h0c-1.7,0-3-1.4-3-3,0-1.7,1.4-3,3-3h0c1.7,0,3,1.4,3,3,0,1.7-1.4,3-3,3Z"/>
    <path class="st5" d="M581.2,38.6h0c-1.7,0-3-1.4-3-3,0-1.7,1.4-3,3-3h0c1.7,0,3,1.4,3,3,0,1.7-1.4,3-3,3Z"/>
  </g>
  <g>
    <path class="st5" d="M671.9,86.5c16.8-2.1,32.1,9.9,34.1,26.7,2.1,16.8-9.9,32.1-26.7,34.1s-32.1-9.9-34.1-26.7h0c-2.1-16.8,9.9-32.1,26.7-34.1Z"/>
    <path class="st1" d="M664.6,115.3h0c-2,.2-3.7-1.2-3.9-3.2-.2-1.9,1.1-3.6,3-3.9h0c2-.2,3.7,1.2,3.9,3.2.2,1.9-1.1,3.6-3,3.9Z"/>
    <path class="st1" d="M685.9,112.7h0c-2,.2-3.7-1.2-3.9-3.2-.2-1.9,1.1-3.6,3-3.9h0c2-.2,3.7,1.2,3.9,3.2.2,1.9-1.1,3.6-3,3.9Z"/>
    <path class="st1" d="M677.4,132.6c-4.1.5-8.2-.4-11.6-2.6-1.4-.9-1.8-2.8-.9-4.3.9-1.4,2.8-1.8,4.3-.9,2.2,1.4,4.9,2,7.5,1.6,2.6-.3,5.1-1.5,6.9-3.4,1.1-1.3,3.1-1.3,4.3-.2,1.3,1.1,1.3,3.1.2,4.3,0,0,0,0,0,0-2.8,3-6.6,4.9-10.7,5.3Z"/>
  </g>
</svg>