<?xml version="1.0" encoding="UTF-8"?>
<svg id="Layer_1" xmlns="http://www.w3.org/2000/svg" version="1.1" viewBox="0 0 747.7 649.4">
  <!-- Generator: Adobe Illustrator 30.3.0, SVG Export Plug-In . SVG Version: 2.1.3 Build 182)  -->
  <defs>
    <style>
      .st0 {
        fill: #2f2e41;
      }

      .st1 {
        fill: #fff2d2;
      }

      .st2 {
        fill: #ffcf60;
      }

      .st3 {
        fill: #fff;
      }

      .st4 {
        fill: #ffe5a8;
      }

      .st5 {
        fill: #ffb8b8;
      }

      .st6, .st7 {
        fill: #4272ef;
      }

      .st7 {
        fill-rule: evenodd;
      }

      .st8 {
        fill: #ffb7b7;
      }
    </style>
  </defs>
  <path class="st1" d="M747.7,315.5c0,144.5-127.1,266.3-300.6,303.7-28.2,6.1-56.8,9.8-85.6,11.2-1.4,0-2.8.1-4.2.2-7.5.3-15,.5-22.6.5-13.2,0-26.3-.5-39.2-1.4-7.2-.5-14.3-1.2-21.3-2-68.5-7.7-131.5-28.2-184.7-58.2-6.6-3.8-13.1-7.7-19.5-11.7-11.6-7.4-22.8-15.4-33.6-24-71.1-56.7-11.8-177.6,25.2-253.7C161.7,74.5,106.6,0,334.7,0s413,141.3,413,315.5Z"/>
  <path class="st3" d="M584.2,130.1c-70.9-1.3-70.9-106.6,0-107.9,70.9,1.3,70.9,106.6,0,107.9Z"/>
  <path class="st3" d="M450.1,287.1c-70.9-1.3-70.9-106.6,0-107.9,70.9,1.3,70.9,106.6,0,107.9Z"/>
  <path class="st3" d="M590,446.5c-70.9-1.3-70.9-106.6,0-107.9,70.9,1.3,70.9,106.6,0,107.9Z"/>
  <path class="st4" d="M584.2,130.1c-70.9-1.3-70.9-106.6,0-107.9,70.9,1.3,70.9,106.6,0,107.9ZM584.2,25.5c-66.6,1.2-66.6,100.2,0,101.3,66.6-1.2,66.6-100.2,0-101.3h0Z"/>
  <path class="st0" d="M273.9,626.9c-.2-.5-.3-1-.3-1.6l-20.6-117.4c0-.3,0-.6-.1-.9-.9-4.4-4.4-7.7-8.9-8.4l-117.4.5c-4.6-.7-9,1.7-11,5.8-1.9,4-3.8,8-5.6,12.1-7.4,16.5-14.2,33.9-20.5,52.3,53.2,30,116.2,50.6,184.7,58.2l-.2-.8Z"/>
  <path class="st5" d="M388.5,312.7c-.3,1.3-.5,2.6-.6,3.9l-101.1,58.3-24.6-14.1-26.2,34.3,41.1,29.3c6.8,4.9,16,4.6,22.6-.6l104.2-82.2c12.8,4.7,27-1.8,31.7-14.6,4.7-12.8-1.8-27-14.6-31.7-12.8-4.7-27,1.8-31.7,14.6-.4,1-.6,1.9-.9,2.9h0Z"/>
  <path class="st2" d="M285.5,369.1c-.6-3-2.5-5.6-5.2-7.1l-46.4-25.9c-12.9-9.9-31.3-7.5-41.2,5.3-9.9,12.8-7.6,31.2,5.2,41.1l37,38.4c4.1,4.2,10.8,4.3,15,.3.4-.4.7-.7,1-1.2l7.2-9.3,2.5-3.2,23-29.8c.8-1.1,1.5-2.3,1.8-3.7.4-1.6.5-3.3.2-4.9Z"/>
  <circle class="st5" cx="177.5" cy="249.1" r="57.8"/>
  <path class="st2" d="M250.6,467.8c2.3-3.5,17.1-26.9,11.5-54.3-.4-2-.9-4-1.5-6-2.6-8.3-6.8-15.9-12.4-22.6,0-1.8,0-3.6,0-5.5h0c-1.7-25.9-22.2-46.5-48-48.5l-64.6-4.9c-16.9-1.4-33.4,5.6-44.1,18.8-1.2,1.5-2.4,3-3.4,4.6,0,0,0,0,0,0h0c-8.2,12.4-10.7,27.9-6.7,42.2l.6,2.4,6.9,30.2,11.5,50.5,9.6,42.3,1,4.5c1.1,4.8,5.4,8.2,10.3,8.2.6,0,1.2,0,1.7-.1l125-20.5c1.8-.3,3.4-1,4.8-2.1.8-.7,1.6-1.5,2.2-2.3,1.6-2.4,2.2-5.3,1.6-8.2l-6.1-28.7Z"/>
  <path class="st5" d="M4.5,638.5c-8-11.4-5.2-27.2,6.2-35.2,1.2-.9,2.5-1.6,3.9-2.2l71.2-218.9,41.3,19.6-77.9,213.1c5.1,13.1-1.5,27.8-14.5,32.9-11,4.2-23.4.4-30.1-9.2Z"/>
  <path class="st2" d="M126.5,330.4c-15.8-4.8-32.6,3.5-38.5,19,0,0,0,0,0,0h0c-.3.7-.5,1.4-.7,2.1l-6,12.8-18.2,38.7c-2.7,5.7-.3,12.4,5.4,15.1.5.2,1,.4,1.6.6l3.6,1.1,15.2,4.6,27,8.2,9,2.7c6,1.8,12.3-1.6,14.1-7.6.2-.5.3-1.1.4-1.6l8.3-56.4c4.9-16.6-4.5-34.1-21.1-39.1Z"/>
  <path class="st0" d="M230.6,228.1c-20.6,18-52.2,22.2-76.8,10.2,11,13.1,32,77.7,32,77.7,0,0-59.2-6.2-67.5-8-49.4-10.6-31.4-138.4,21.2-137.8,8.9.1,16.7,1.2,22.6,7.8,3.9-11,16.5-17.5,28.1-16.7s22.3,7.9,29.8,16.8c12.1,14.7,17.1,34.1,13.6,52.8l-3.1-2.9Z"/>
  <path class="st4" d="M450.1,287.1c-70.9-1.3-70.9-106.6,0-107.9,70.9,1.3,70.9,106.6,0,107.9ZM450.1,182.5c-66.6,1.2-66.6,100.2,0,101.3,66.6-1.2,66.6-100.2,0-101.3Z"/>
  <path class="st4" d="M590,446.5c-70.9-1.3-70.9-106.6,0-107.9,70.9,1.3,70.9,106.6,0,107.9ZM590,341.9c-66.6,1.2-66.6,100.2,0,101.3,66.6-1.2,66.6-100.2,0-101.3Z"/>
  <path class="st6" d="M595.7,48.5c-13.3.4-39.2-4.4-39.2,16.1.4,13.3-4.4,39.2,16.1,39.2,13.3-.4,39.2,4.4,39.2-16.1-.4-13.3,4.4-39.2-16.1-39.2Z"/>
  <path class="st3" d="M599.2,64.6c-4.5,0-4.5-7,0-6.9,4.5,0,4.5,7,0,6.9Z"/>
  <path class="st3" d="M584.2,66.9c12-.2,12,18.6,0,18.4-12,.2-12-18.6,0-18.4ZM584.2,62.3c-17.9-.3-17.9,27.9,0,27.7,17.9.3,17.9-27.9,0-27.7h0Z"/>
  <path class="st8" d="M492.6,401.6c-.9,0-1.7-.7-1.7-1.6,0-.4.1-.9.4-1.2l5.4-5.8c.4-.4.3-1,0-1.3l-5.8-5.5c-.7-.6-.7-1.7,0-2.4,0,0,0,0,0,0h0c.6-.7,1.7-.7,2.4,0l7.8,7.3c.6.6.7,1.6,0,2.2,0,0,0,0,0,0l-7.4,7.7c-.3.3-.7.5-1.1.5Z"/>
  <path class="st8" d="M486.7,393.3c-.2.2-.4.3-.6.3l-18.1.5c-.6,0-1-.4-1-1,0-.6.4-1,1-1,0,0,0,0,0,0l18.1-.5c.6,0,1,.4,1,1,0,.3-.1.6-.3.8h0Z"/>
  <path class="st8" d="M352.6,242.2c-.9,0-1.7-.7-1.7-1.6,0-.4.1-.9.4-1.2l5.4-5.8c.4-.4.3-1,0-1.3l-5.8-5.5c-.7-.6-.7-1.7,0-2.4,0,0,0,0,0,0h0c.6-.7,1.7-.7,2.4,0l7.8,7.3c.6.6.7,1.6,0,2.2,0,0,0,0,0,0l-7.4,7.7c-.3.3-.7.5-1.1.5Z"/>
  <path class="st8" d="M346.7,233.9c-.2.2-.4.3-.6.3l-18.1.5c-.6,0-1-.4-1-1,0-.6.4-1,1-1l18.1-.5c.6,0,1,.4,1,1,0,.3-.1.6-.3.8Z"/>
  <path class="st8" d="M486.6,85.2c-.9,0-1.7-.7-1.7-1.6,0-.4.1-.9.4-1.2l5.4-5.8c.4-.4.3-1,0-1.3l-5.8-5.5c-.7-.6-.7-1.7,0-2.4,0,0,0,0,0,0h0c.6-.7,1.7-.7,2.4,0l7.8,7.3c.6.6.7,1.6,0,2.2,0,0,0,0,0,0l-7.4,7.7c-.3.3-.7.5-1.1.5Z"/>
  <path class="st8" d="M480.7,76.9c-.2.2-.4.3-.6.3l-18.1.5c-.6,0-1-.4-1-1,0-.6.4-1,1-1,0,0,0,0,0,0l18.1-.5c.6,0,1,.4,1,1,0,.3-.1.6-.3.8Z"/>
  <path class="st3" d="M468,594.9c-4.7,9.7-12.3,17.6-21,24.3-28.2,6.1-56.8,9.8-85.6,11.2-1.4,0-2.8.1-4.2.2-7.5.3-15,.5-22.6.5-13.2,0-26.3-.5-39.2-1.4-.5-3-.6-6-.2-9,1.4-11.7,10.3-22.4,21.8-24.9,11.5-2.5,24.6,4.4,28.1,15.6,1.9-21.7,4.1-44.3,15.7-62.7,10.4-16.7,28.5-28.7,48.1-30.8,11.5-1.2,23.1.9,33.5,6.1,1,.5,1.9,1,2.8,1.5,6.2,3.5,11.7,8.2,16.1,13.8,12.2,15.5,15.2,37.9,6.6,55.7Z"/>
  <path class="st1" d="M445.3,525.4c0,.5-.2,1.1-.6,1.4-34.7,28.3-63,63.5-83.1,103.5-1.4,0-2.8.1-4.2.2,1.8-3.6,3.6-7.2,5.5-10.7,9.9-18.3,21.6-35.6,34.9-51.7,13.3-16.1,28.1-30.8,44.3-44,.1-.1.3-.2.4-.3,1-.4,2.2,0,2.7,1.1,0,.1.1.3.1.4Z"/>
  <path class="st6" d="M619.3,378.9s-4.6,5.1-5.5,5.5c-2.4,26.3-18.9,32.3-32.1,32.3s-17.3-3.1-17-3.9c14.1.3,15.3-5.4,15.3-5.4-8.2-1.2-9.8-6.6-9.8-6.6,1.5.8,3.4.3,4.4-1.1-8.8-2.3-7.6-10.9-7.6-10.9,1.6,1.1,3.4,1.9,5.3,2.1-1-1.2-9.2-11.1-4.3-16.2.3.8,8.9,12.5,23.3,11.6-1.3-6.3,2.8-12.4,9-13.6.7-.1,1.5-.2,2.2-.2,7.6,0,9.3,4.4,9.3,4.4l5.5-3.3c-.1,0-.7,5.5-3.4,6.5l5.5-1.1Z"/>
  <path class="st7" d="M479.9,233.3c0,14.7-10.7,27.3-25.3,29.6v-20.9h7l1.3-8.7h-8.3c-.3-7.2-.6-11.3,8.7-10.3v-7.4c-13.8-3-19.6,4-18,17.7h-7.6v8.7h7.6v20.9c-35.8-5.5-31.6-59.7,4.7-59.6,16.5,0,30,13.4,30,30h0Z"/>
</svg>