<?xml version="1.0" encoding="UTF-8"?>
<svg id="Layer_1" xmlns="http://www.w3.org/2000/svg" version="1.1" viewBox="0 0 982 469.8">
  <!-- Generator: Adobe Illustrator 30.3.0, SVG Export Plug-In . SVG Version: 2.1.3 Build 182)  -->
  <defs>
    <style>
      .st0 {
        opacity: 0;
      }

      .st0, .st1 {
        isolation: isolate;
      }

      .st2 {
        fill: #ff6584;
      }

      .st3 {
        fill: #3c354c;
      }

      .st4 {
        fill: #3f3d56;
      }

      .st5 {
        fill: #f2f2f2;
      }

      .st1 {
        opacity: .1;
      }

      .st6 {
        fill: #535461;
      }

      .st7 {
        fill: #a0616a;
      }

      .st8 {
        fill: #6c63ff;
      }

      .st9 {
        fill: #575a89;
      }
    </style>
  </defs>
  <path class="st5" d="M981,15.8v438.2c0,1.2-.1,2.3-.4,3.5-1.5,7.1-7.7,12.2-15,12.3H15.3c-6.3,0-11.9-3.9-14.2-9.8-.8-1.9-1.1-3.9-1.1-5.9V15.8C-.1,7.2,6.7.1,15.3,0h0s950.4,0,950.4,0c8.6.1,15.4,7.2,15.3,15.7,0,0,0,0,0,0Z"/>
  <rect class="st0" x="307" y="45" width="366" height="412"/>
  <rect class="st0" x="355" y="100" width="114" height="214" rx="14.6" ry="14.6"/>
  <rect class="st0" x="511" y="100" width="114" height="214" rx="14.6" ry="14.6"/>
  <rect class="st0" x="26" y="52" width="262" height="262" rx="19.6" ry="19.6"/>
  <rect class="st0" x="692" y="52" width="262" height="262" rx="19.6" ry="19.6"/>
  <polygon class="st5" points="419.2 100 355 170.2 355 191.9 434.6 100 419.2 100"/>
  <polygon class="st5" points="469 172.3 355 283.6 355.5 303.5 469.5 191.9 469 172.3"/>
  <polygon class="st5" points="575.2 100 511 170.2 511 191.9 590.6 100 575.2 100"/>
  <polygon class="st5" points="625 172.3 511 283.6 511.5 303.5 625.5 191.9 625 172.3"/>
  <polygon class="st5" points="113 52 26 151.7 26 215.6 157 52 113 52"/>
  <polygon class="st5" points="228.4 52 26 251 26 266.1 255.2 52 228.4 52"/>
  <polygon class="st5" points="780.5 52.5 693.5 152.2 693.5 216.1 824.5 52.5 780.5 52.5"/>
  <polygon class="st5" points="895.9 52.5 693.5 251.5 693.5 266.6 922.7 52.5 895.9 52.5"/>
  <path class="st5" d="M288,285.3v9.1c0,10.8-8.8,19.6-19.6,19.6h-33.3c-1-.9-1.9-1.9-2.9-2.9-4.1-4.2-8.2-8.8-10.7-14.5-3.8-8.4-3.5-17.8-3.3-25.4,0-.7,0-1.5,0-2.2-8.1,13.9-25.9,18.7-39.8,10.6-7-4-11.9-10.7-13.8-18.6-.6-2.6-.9-5.3-.7-8,.3-7.7,3.7-14.9,9.4-20.1l10.6,10.2-5.1-14.1c14-7.9,31.7-2.9,39.6,11.1.3.5.6,1,.8,1.6.3-7.2.7-14.4,1.1-21.6h-.1c-.6-.1-1.2-.2-1.8-.4l-1-.3c-.5-.2-1.1-.3-1.6-.5l-1-.4c-.5-.2-1.1-.4-1.6-.7-.3-.1-.6-.2-.8-.4-.6-.3-1.3-.6-1.9-1-.1,0-.3-.1-.4-.2-.7-.5-1.5-.9-2.1-1.4-.2-.2-.5-.4-.7-.5-.5-.4-.9-.7-1.3-1.1l-.8-.7c-.4-.4-.8-.7-1.1-1.1s-.5-.5-.7-.8-.7-.8-1-1.2l-.6-.8c-.3-.5-.7-.9-1-1.4-.2-.2-.3-.5-.5-.7-.4-.7-.8-1.5-1.2-2.2-.1-.3-.3-.6-.4-.9-.2-.5-.5-1-.6-1.5-.1-.3-.2-.7-.4-1.1s-.3-.9-.5-1.4-.2-.8-.3-1.1c0-.2-.1-.4-.1-.6h0c-2.7-12.4,2.9-25.1,13.9-31.4l6.5,12.9-.2-15.6c13.5-4,27.9,2.3,34.2,14.8h0v.2c.2.3.4.5.5.8.2.5.5,1,.7,1.6.1.2.2.5.3.7.3.7.5,1.5.7,2.2,0,.2.1.5.2.8.2.7.3,1.4.4,2.1,0,.1,0,.2,0,.4.1.8.2,1.7.3,2.5v.6c0,.9,0,1.8,0,2.6-.7,14.3-11.6,26-25.9,27.6-1,17.1-1.7,34.2-2.1,51.2-.2,8.6-.2,15.6,2.6,21.9,1.5,3.1,3.4,6,5.8,8.5v-1.6c.7-16.1,14.4-28.5,30.5-27.8,0,0,0,0,0,0h0l6.6,13.1v-12c6.6,1.8,12.4,6,16.4,11.7Z"/>
  <rect class="st0" x="484" y="45" width="12" height="412"/>
  <path class="st4" d="M980.6,457.5c-1.5,7.1-7.7,12.2-15,12.3H15.3c-6.3,0-11.9-3.9-14.2-9.8,43.1-10.9,157.6-19.8,305.9-23.9,8.3-.2,16.6-.5,25.1-.6h1.6c2,0,4.1,0,6.2-.1,9-.2,18.1-.4,27.3-.5h3.2c0,0,10.9-.2,10.9-.2h3.9c7.7-.2,15.4-.3,23.2-.4,24.7-.3,50-.5,75.7-.5h65.1c43.1.4,84.6,1.1,123.9,2.1l15.5.4c7.4.2,14.8.4,22,.7,125.2,4,223.4,11.5,270.1,20.7Z"/>
  <path class="st4" d="M288.5,342.5h0c0,6.1-4.4,11-9.8,11H36.3c-5.4,0-9.8-4.9-9.8-11h0c0-6.1,4.4-11,9.8-11h242.4c5.4,0,9.8,4.9,9.8,11Z"/>
  <rect class="st4" x="515.8" y="109.4" width="34.9" height="60.2"/>
  <rect class="st1" x="515.8" y="109.4" width="34.9" height="60.2"/>
  <path class="st7" d="M687.2,158.6c2.1-1.2,4.7-1.2,7.1-1,1.5,0,2.9.3,4.2.9,2.5,1.5,2.9,4.9,3,7.8.1,3.5.1,7.3-2.2,10-1.8,2.1-4.7,2.8-7.4,3.3-1.9.2-3.8.7-5.6,1.4-1.8,1-3.4,2.3-4.9,3.7-3.2,2.8-7.6,5.5-11.8,6.2-2.9-5.8-3.6-11.3.9-16.3,2.5-2.7,5.7-4.9,8.3-7.4s5.1-6.7,8.4-8.7Z"/>
  <path class="st9" d="M523,451.2c-.5,1.2-.7,2.5-.7,3.8.3,3,3.2,4.9,6,6.1,3.7,1.7,8.3,2.9,11.5.4,3.6-2.8,3-8.2,4.4-12.5.8-2.5,2.4-4.7,3.4-7.2,2.8-6.7,1.3-14.3-.2-21.4l-2.2-10.3c0-.8-.4-1.6-1-2.2-1.6-1.4-9.2-1.9-11.1-.6-3.1,2.1-2.3,9.3-2.8,12.7-1.5,10.5-4,20.9-7.3,31Z"/>
  <path class="st9" d="M511.4,451.2c.5,1.2.7,2.5.7,3.8-.3,3-3.2,4.9-6,6.1-3.7,1.7-8.3,2.9-11.5.4-3.6-2.8-3-8.2-4.4-12.5-.8-2.5-2.3-4.7-3.4-7.2-2.8-6.7-1.3-14.3.2-21.4l2.2-10.3c0-.8.4-1.6,1-2.2,1.6-1.4,9.2-1.9,11.1-.6,3.1,2.1,2.3,9.3,2.8,12.7,1.5,10.5,4,20.9,7.3,31Z"/>
  <path class="st7" d="M536.7,141.9c.6.6,1,1.3,1.2,2.1.4,1.9-1.4,3.5-3.2,4.2s-3.8.8-5.4,1.9c-1.7,1.2-2.9,3-3.4,5-3.4,9.6.4,21.6,9.4,26.3,6.2,3.2,13.6,2.7,20.6,2.1,1,0,1.9-.2,2.8-.6.9-.5,1.7-1.2,2.3-2.1,7.9-10.1,10.7-23.2,7.5-35.6-.1-.5-.3-1-.6-1.4-1.8-2.5-6.1.6-8.7-1.1-.8-.6-1.4-1.5-1.7-2.4-1.8-4.1-3-8.4-3.6-12.9,0-.5-11.4,3.8-12.4,4.3-3.9,2-4.1.2-6.9,3.4,3.1.9-.5,3.9,2.1,6.9Z"/>
  <path class="st1" d="M536.7,141.9c.6.6,1,1.3,1.2,2.1.4,1.9-1.4,3.5-3.2,4.2s-3.8.8-5.4,1.9c-1.7,1.2-2.9,3-3.4,5-3.4,9.6.4,21.6,9.4,26.3,6.2,3.2,13.6,2.7,20.6,2.1,1,0,1.9-.2,2.8-.6.9-.5,1.7-1.2,2.3-2.1,7.9-10.1,10.7-23.2,7.5-35.6-.1-.5-.3-1-.6-1.4-1.8-2.5-6.1.6-8.7-1.1-.8-.6-1.4-1.5-1.7-2.4-1.8-4.1-3-8.4-3.6-12.9,0-.5-11.4,3.8-12.4,4.3-3.9,2-4.1.2-6.9,3.4,3.1.9-.5,3.9,2.1,6.9Z"/>
  <path class="st3" d="M496.8,261.1c.7,6.4,1.1,12.9,1.4,19.4.3,6.2.4,12.6-1.5,18.5-1,3.3-2.7,6.4-3.6,9.8-1,4-1,8.1-1,12.2,0,2.4.2,4.7.7,7,.5,2.1,1.6,4,2.3,6,2.7,7.2,2.1,15.1,1.2,22.7-1.8,14.3-4.5,28.5-7.2,42.6l-4.9,25.6c5.4,2.2,11,3.8,16.7,4.9,3.5.6,8.2.5,9.6-2.8.5-1.5.5-3.1.2-4.7-.8-7.1,0-14.3,2.4-21.1,1.9-5.5,4.9-10.6,6.4-16.2.9-3.6,1.4-7.2,1.5-10.8.5-6.4.7-12.8.6-19.2,0-8.7-.7-17.5,1.9-25.8,3.4-10.8,12.1-20.5,11.1-31.8.2,12.5.4,24.9-.4,37.3-.5,5.1-.7,10.3-.6,15.5.4,7.6,2.6,15.2,1,22.6-.7,3-1.9,5.9-2.2,9-.5,4.8,1.3,9.9-.3,14.5-1.4,4-5.3,7.2-5.1,11.4,0,3.2,2.5,5.8,5.4,7.2s6.1,1.5,9.2,1.8c3.4.2,7.5,0,9.2-2.9,2.1-3.6-1.2-7.8-1.8-11.9s1.6-8.1,3.5-11.8c11.1-20.8,17.1-43.8,17.7-67.4.2-7.1-.2-14.2-.1-21.3,0-16.3,2.1-32.6,6-48.4-26.8-1-53.9-.8-79.2,8.3Z"/>
  <circle class="st7" cx="539.8" cy="121.7" r="20.2"/>
  <path class="st8" d="M555.2,151.1c-2.2,3.9-4.9,7.9-8.9,9.9s-9.7,1.5-12.2-2.2c-1.9-2.8-2-7.1-4.9-8.7-2.4-1.3-5.5,0-7.2,2.1s-2.1,5-2.5,7.7c-.7,6.8-.9,13.5-.7,20.3.4,33,3.1,66.1,2.6,99.1,0,5.2-.3,10.3-.9,15.5,12.2-3.1,24.4-6.2,37-6.9,6.1-.4,12.2-.2,18.2-1,4.1-.6,8.2-1.5,12.3-2.6.5,0,1-.3,1.5-.7.3-.4.5-1,.5-1.5,1.2-11.7-2.8-23.2-4.7-34.8-1.7-10.8-1.4-21.9-2.9-32.8-2-15.2-7.5-30.1-7.4-45.5,0-5.6.8-11.3-.4-16.7-1-4.5-4.5-10.5-9.5-11.4-5.6-1-7.9,6.5-10,10.3Z"/>
  <path class="st9" d="M552.9,158.4c-6.2,12.3-12.4,24.9-14.5,38.5-1.8,12.3,0,24.9-1.6,37.2-1.9,15.8-9.1,31.9-4.2,47.1,1.1,3.4,2.7,6.6,3.9,9.9,5,14.8,0,31.2,3.2,46.5,0,.8.5,1.5,1.2,1.9.8.4,1.8-.2,2.7-.5,3.8-1.2,6.5,3.7,9.5,6.3,3.1,2.6,7.5,3.2,11.2,1.4,5.7-2.9,7.2-10.3,8-16.6,3.8-30.5,6.2-61.1,7-91.8.2-7,.3-14-.9-20.9-1.4-8.4-4.6-16.3-6.3-24.6-2.8-13.4-1.6-27.2-.9-40.8.2-4-.9-15.5-7.7-11.8-5.2,2.9-8.2,13.3-10.7,18.3Z"/>
  <path class="st1" d="M521.9,193c0,4.4-.1,8.8-1.5,12.9s-3.9,7.8-6,11.7c-5,9.5-6.8,20.4-7.1,31.1s1,21.4,1.8,32.1c1.3,16.3,1.5,32.6.8,48.9,6.7-2.3,13.9-2.6,20.8-.9,4,1,8.8,2.6,11.9,0,2.2-1.9,2.5-5.2,2.6-8.2,1.1-30.1,1.4-60.1,1-90.2-.1-3.9,0-7.9.3-11.8.3-3,1-6.1,1-9.1s-1.2-8.5-2.3-12.6l-10.5-37.4c-.7-2.5-1.4-5-3.1-6.9s-6.9-4.5-8.9-2c-1.7,2.2-.5,9.6-.5,12.2l-.4,30.3Z"/>
  <path class="st9" d="M520.6,192.3c0,4.4-.1,8.8-1.5,13s-3.9,7.8-6,11.7c-5,9.5-6.8,20.4-7.1,31.1s1,21.4,1.8,32.1c1.3,16.3,1.5,32.6.8,48.9,6.7-2.3,13.9-2.6,20.8-.9,4,1,8.8,2.7,11.9,0,2.2-1.9,2.5-5.2,2.6-8.2,1.1-30.1,1.4-60.1,1-90.2-.1-3.9,0-7.9.3-11.8.5-3,.8-6.1,1-9.1,0-4.3-1.1-8.5-2.3-12.6l-10.5-37.4c-.7-2.5-1.4-5-3.2-6.9s-6.9-4.5-8.9-2c-1.7,2.1-.4,9.6-.5,12.2l-.4,30.2Z"/>
  <path class="st2" d="M524.8,146.5c-5.5.5-9.6,5.2-11.8,10.3s-2.8,10.6-4.4,15.8c-2.8,9-8.7,17.2-9.7,26.6-.9,8.9,2.8,17.9,1,26.7-.5,2.3-1.3,4.7-2.1,6.9-3.4,10-5.3,20.3-7.3,30.7l-2.9,15.4c-2,10.9-4.1,22-2.2,32.9,4-2.9,9.4-2.5,13,.8,1,.9,1.8,2.1,3.1,2.3,2.2.3,3.6-2.4,4.2-4.5,2.1-7.8,3.5-15.8,4.2-23.9.4-4.4.6-8.8,1.8-13,.8-2.6,2-5.1,2.9-7.7,2-6.2,1.7-12.8,2.6-19.2.7-5.6,2.2-11,3.1-16.5.9-6.7,1.3-13.6,1.2-20.4l.4-39.2c0-5.1.4-10.8,4.2-14.1,2-1.7,7.2-3.2,6.7-6.4-.5-3-6.1-3.7-8.3-3.5Z"/>
  <path class="st2" d="M557,142.9c5.8-4.4,12.3-9,19.6-8.8,2.4.1,4.8.6,7.2,1.2l16.5,4.1c-1.6,2.8-4.1,5.1-7,6.5,5.5-1,11,2.1,13.1,7.2,2.3,6.1-.7,12.7-3.4,18.6-4.6,10.1-8.4,20.8-8.4,31.9,0,5.6-3.9,11.2-4.3,16.8-.3,3.5,0,7.1.9,10.5,1,3.3,2.3,6.6,3.8,9.8,10.1,23.8,12.4,50.2,11.3,76.1h-22.6c-1.2,0-2.5,0-3.7.5-1.4.5-2.5,1.7-3.8,2.6-2.2,1.5-4.8,2-7.4,1.5-2.4-11,1.4-22.2,3.3-33.2.9-6.1,1.5-12.2,1.8-18.3.5-9.7.8-19.4.8-29.2,0-7.4-.2-14.9-2.6-21.8-1.2-3.4-2.9-6.7-4.1-10.2-1-3.5-1.7-7-2.1-10.6-2.5-18.6-6.4-36.6-8.9-55.2Z"/>
  <path class="st2" d="M508.8,158.4c-1.7,1.2-2.2,3.5-3,5.5-1.9,4.9-5.9,8.7-8.5,13.3-1.5,2.8-2.7,5.8-3.7,8.8-3.5,9.9-7,20.2-5.8,30.6.3,2.3.9,4.8,2.5,6.4,3.6,3.6,10.3,1.4,13.1-2.9s3-9.7,3.5-14.8c1.1-9.7,3.9-19,6-28.5,1.2-4.8,2-9.6,2.5-14.5.2-1.5,1-4.8-.4-5.8-.9-.6-5.5,1.2-6.3,1.8Z"/>
  <path class="st2" d="M619.1,185.1c2.5,3,5.5,6.2,9.4,6.1,1.9-.2,3.8-.8,5.4-1.8,13-6.5,26.5-11.8,40.3-16.1-3.2,7.3-1.4,15.8,4.4,21.2-11.7,3-23,7.5-33.5,13.4-2.2,1.2-4.3,2.6-6.2,4.3-1.2,1.4-2.5,2.7-3.9,3.9-3.1,2.3-7.2,2.5-11.1,2.6-4.6.6-9.2-.8-12.7-3.9l-27.6-19.8c-1.5-.6-2.2-2.4-1.6-3.9.1-.4.4-.7.6-.9l8.7-15.6c2-3.5,4.2-9.4,8.9-10s6.4,4.4,8.6,7.7c3.1,4.4,6.5,8.7,10,12.8Z"/>
  <rect class="st4" x="489.8" y="151.8" width="18.5" height="38.3" rx="4.1" ry="4.1" transform="translate(-27.9 195.4) rotate(-21.6)"/>
  <rect class="st1" x="489.8" y="151.8" width="18.5" height="38.3" rx="4.1" ry="4.1" transform="translate(-27.9 195.4) rotate(-21.6)"/>
  <rect class="st4" x="488.5" y="152.5" width="18.5" height="38.3" rx="4.1" ry="4.1" transform="translate(-28.2 195) rotate(-21.6)"/>
  <circle class="st8" cx="496.3" cy="165.1" r="2.4"/>
  <path class="st7" d="M489.6,188.5c-1.2-1.5-2.8-2.8-3.9-4.5-1.3-2.2-2.1-4.7-2.3-7.2-.4-2.8-.6-5.6-.7-8.4,0-1.3,1-2.4,2.4-2.5.2,0,.4,0,.6,0,4,.9,7.6,3.1,10.3,6.2,3.3,3.9,5.4,8.6,6.1,13.7.3,2.6.5,5.2.6,7.8l.4,10.7c-2.6,0-6.4.7-8.9,0-3.6-1-2.1-.4-1.8-3.9.4-4.4.1-8.5-2.8-12.1Z"/>
  <path class="st2" d="M496.6,200c-1.4.1-2.9,0-4.2-.6-2.7-1.1-4.3-4-5.7-6.6.2,5.7,0,11.5-.9,17.2-.5,3-1.3,6-1.3,9.1.1,3.9,1.6,7.6,4.3,10.4.7.8,1.6,1.5,2.6,1.9,2.2.9,4.6,0,6.6-1.1,2.9-1.7,5.2-4.3,6.5-7.4,2-4.4,1.9-9.3,2-14.1,0-4.5,1.5-9.1,1.5-13.4-3.5-.4-7.3,4.4-11.5,4.6Z"/>
  <path class="st4" d="M516.7,114.6c7.1,3.8,15.5,4.2,23,1.3-1.2,5.1,1.5,10.2,2.9,15.3,3.7,13.3-2,27.8-11,38.3,8.4.8,16.8-2.2,22.8-8.2-2.6,6.9-6.4,13.2-11.2,18.7,17.3-5.4,29.7-21.4,35.2-38.7,4.2-13.2,5-28.1-.8-40.7s-19.1-22.2-32.9-21.1c-10.1.8-19.3,7.3-24.5,16s-6.3,19.4-4.2,29.4l.7-10.3Z"/>
  <path class="st1" d="M542.6,131.2c1.8,7.2,1.4,14.8-1.3,21.8,3.6-8,4.9-16.8,2.6-25.2-1.4-5.1-4.1-10.2-2.9-15.3-7.5,2.9-15.9,2.5-23-1.3l-.3,4c6.9,3.3,14.9,3.5,22,.7-1.2,5.1,1.4,10.2,2.8,15.2Z"/>
  <path class="st1" d="M518.6,98.6c-3.6,8.2-4.5,17.4-2.6,26.2l.6-8.6c-.6-6,0-12,2-17.7Z"/>
  <path class="st1" d="M555.8,157.8c-5.6,5.7-13.5,8.8-21.5,8.4-.8,1.1-1.7,2.3-2.7,3.3,8.4.8,16.7-2.2,22.7-8.2.5-1.2,1-2.3,1.5-3.5Z"/>
  <path class="st1" d="M546.5,175.9c-1,1.4-2.1,2.8-3.3,4.1,16.3-5.1,28.2-19.6,34.2-35.7-6,14-16.7,26.4-30.9,31.6Z"/>
  <path class="st4" d="M710.5,42.5V.5h-22v442c0,6.1,4.9,11,11,11s11-4.9,11-11V64.5h54v31.1c-19.2,1.2-34,9.2-34,18.9s12.6,16.4,29.6,18.4c3.1.4,6.3.6,9.4.6,21.5,0,39-8.5,39-19s-8.2-13.5-20.3-16.7c-4.5-1.2-9.1-1.9-13.7-2.2v-31.1h110v31.1c-3.1.2-6.2.6-9.2,1.1-14.5,2.8-24.8,9.6-24.8,17.7,0,1.5.4,3.1,1.1,4.5,4.1,8.3,19.5,14.5,37.9,14.5s39-8.5,39-19-14.8-17.6-34-18.9v-31.1h87.5v-22h-271.5ZM920.5,114.5c0,8.3-13.9,15.1-31,15.1s-31-6.8-31-15.1c0-.8.1-1.6.4-2.4,1.1-3.3,4.4-6.3,9.1-8.5,5.7-2.5,11.7-3.9,17.9-4.1h7.1c15.4.9,27.4,7.2,27.4,15ZM785.3,101.5c9.1,2.6,15.2,7.5,15.2,13,0,8.3-13.9,15.1-31,15.1-2.2,0-4.3-.1-6.5-.3-14-1.4-24.5-7.5-24.5-14.8s12-14.1,27.4-15h7.1c4.1.2,8.2.9,12.2,2h0Z"/>
  <rect class="st9" x="381.2" y="232.4" width="3.5" height="107.5"/>
  <rect class="st9" x="392.1" y="232.4" width="3.5" height="107.5"/>
  <circle class="st9" cx="373.4" cy="444.4" r="6"/>
  <path class="st8" d="M352.1,334.9s6-4.9,11.3-3.2,19,3.4,21.4,12,0,103.5,0,103.5c0,0-11.6,3-14.8,1.5s-2.8-15.8-2.8-15.8l-.9-84.1-14.1-13.9Z"/>
  <path class="st1" d="M352.1,334.9s6-4.9,11.3-3.2,19,3.4,21.4,12,0,103.5,0,103.5c0,0-11.6,3-14.8,1.5s-2.8-15.8-2.8-15.8l-.9-84.1-14.1-13.9Z"/>
  <path class="st8" d="M406.8,442.3l-25.3,5.6-.3-4.5-.2-88.5c0-8.4-3.9-16.3-10.6-21.4h0s13.1-.2,23.1,4.3c2.1,1,4.3,1.9,6.5,2.7,2.7,1,6.4,3.2,6.7,7.4.3,5.5,1.4,60.2,1.7,80.1,0,4.8-.5,9.5-1.7,14.1h0Z"/>
  <rect class="st6" x="379.6" y="224.4" width="5.9" height="9.2"/>
  <rect class="st1" x="379.6" y="224.4" width="5.9" height="9.2"/>
  <rect class="st6" x="390.6" y="225.9" width="5.9" height="9.2"/>
  <path class="st6" d="M396.5,225.9h-5.9c-2.2,0-4.2,1.4-5.2,3.4,0,.2-.2.4-.2.6l-1.3-1.2-2.7-2.6-1.6-1.6s10.8-5.5,16.9,1.5Z"/>
  <circle class="st9" cx="399" cy="448.7" r="6"/>
  <circle class="st9" cx="336.9" cy="440.4" r="6"/>
  <path class="st8" d="M348.2,333.6s-17.1,4.5-18,47.5-1.1,47.5-1.1,47.5c0,0,.4,12.4,25.5,20.1h15.4l2.4-98.8s-2.8-15-24.2-16.3Z"/>
  <path class="st1" d="M346.7,400.2s-4.4-60.1,19.2-60.4l2.2,2.2s-20.7-7.5-21.4,58.2Z"/>
  <circle class="st9" cx="357.3" cy="453.9" r="6"/>
  <path class="st1" d="M390.7,225.8h0c-2.2,0-4.2,1.4-5.2,3.4,0,.2-.2.4-.2.6l-1.3-1.2c0-.1,0-.2,0-.3.1-.9.6-1.7,1.3-2.2,1.4-1.1,3.2-1.5,4.9-.9.3.1.6.4.6.7Z"/>
</svg>