<?xml version="1.0" encoding="UTF-8"?>
<svg id="Layer_1" xmlns="http://www.w3.org/2000/svg" version="1.1" viewBox="0 0 799 618.1">
  <!-- Generator: Adobe Illustrator 30.3.0, SVG Export Plug-In . SVG Version: 2.1.3 Build 182)  -->
  <defs>
    <style>
      .st0 {
        fill: #d6d6e3;
      }

      .st1 {
        fill: #fff;
      }

      .st2 {
        fill: #090814;
      }

      .st3 {
        fill: #3f3d56;
      }

      .st4 {
        fill: #f2f2f2;
      }

      .st5 {
        fill: #4272ef;
      }

      .st6 {
        fill: #ccc;
      }

      .st7 {
        fill: #ff5e5e;
      }

      .st8 {
        fill: #e6e6e6;
      }
    </style>
  </defs>
  <g id="Group_212">
    <path id="Path_782-2976" class="st6" d="M130.7,616.5c0,.9.5,1.6,1.1,1.6h535.1c.6,0,1.1-.7,1.1-1.6s-.5-1.6-1.1-1.6H131.7c-.6,0-1.1.7-1.1,1.6Z"/>
    <rect id="Rectangle_253" class="st5" x="305.2" y="611.4" width="19.1" height="3.4"/>
    <rect id="Rectangle_254" class="st5" x="474.3" y="611.9" width="19.1" height="3.4"/>
    <path id="Path_783-2977" class="st0" d="M426.7,461.3c-2.5,15-16.6,25.2-31.6,22.7-11.6-1.9-20.7-11-22.7-22.7h-69.5v150.6h193.3v-150.6h-69.5Z"/>
    <rect id="Rectangle_255" class="st2" x="303.4" y="600" width="193.3" height="5.2"/>
    <path id="Path_784-2978" class="st2" d="M788.3,465.3H10.8c-5.9,0-10.8-4.8-10.8-10.8V10.8C0,4.8,4.8,0,10.8,0h777.5c5.9,0,10.8,4.8,10.8,10.8v443.7c0,5.9-4.8,10.8-10.8,10.8Z"/>
    <rect id="Rectangle_256" class="st1" x="19.5" y="18" width="760.8" height="429.3"/>
    <g id="Group_209">
      <rect id="Rectangle_774" class="st4" x="548.4" y="98.6" width="149.2" height="114" rx="8" ry="8"/>
      <rect id="Rectangle_775" class="st1" x="555.8" y="104.2" width="134.3" height="102.6"/>
      <path id="Path_3446-2979" class="st2" d="M625.3,180.4h0c19.8-1,34.9-17.9,33.9-37.6-.9-18-15.1-32.5-33.1-33.8-.2,0-.5,0-.6.2-.2.2-.3.4-.3.6l-.8,69.9c0,.5.4.8.8.8h0Z"/>
      <path id="Path_3447-2980" class="st8" d="M597.2,120.4c.3,0,.5.1.7.3l24,24.6c.2.2.3.5.3.7l-.4,33.4c0,.3-.1.6-.3.8-.2.2-.5.3-.8.3-19.9-1.5-34.7-18.8-33.3-38.6.6-7.8,3.7-15.2,8.9-21.1.2-.2.5-.3.8-.4h0Z"/>
      <path id="Path_3448-2981" class="st7" d="M621.7,108.6c.3,0,.5.1.7.3.2.2.3.5.3.8l-.3,30.2c0,.6-.5,1-1.1,1-.3,0-.5-.1-.7-.3l-21-21.5c-.4-.4-.4-1.1,0-1.5,0,0,0,0,0,0,6.1-5.4,13.8-8.5,22-9h0Z"/>
      <path id="Path_3449-2982" class="st7" d="M610.8,194.8c0,3.6-3,6.4-6.5,6.4-3.6,0-6.4-3-6.4-6.5,0-3.6,3-6.4,6.5-6.4h0c3.6,0,6.4,3,6.4,6.5Z"/>
      <path id="Path_3450-2983" class="st2" d="M629.2,195c0,3.6-3,6.4-6.5,6.4-3.6,0-6.4-3-6.4-6.5,0-3.6,3-6.4,6.5-6.4h0c3.6,0,6.4,3,6.4,6.5Z"/>
      <path id="Path_3451-2984" class="st8" d="M647.6,195.3c0,3.6-3,6.4-6.5,6.4-3.6,0-6.4-3-6.4-6.5,0-3.6,3-6.4,6.5-6.4h0c3.6,0,6.4,3,6.4,6.5Z"/>
      <rect id="Rectangle_776" class="st4" x="546.8" y="230.5" width="149.2" height="114" rx="8" ry="8"/>
      <rect id="Rectangle_777" class="st1" x="554.2" y="236.1" width="134.3" height="102.6"/>
      <circle id="Ellipse_536" class="st2" cx="577" cy="264.3" r="5.6"/>
      <path id="Path_3452-2985" class="st3" d="M666.6,259.9c2.1,0,3.8,1.7,3.8,3.8s-1.7,3.8-3.8,3.8h-58.7c-2.1,0-3.8-1.7-3.8-3.8s1.7-3.8,3.8-3.8h58.7M666.6,259h-58.7c-2.6,0-4.7,2-4.8,4.6,0,2.6,2,4.7,4.6,4.8,0,0,0,0,.1,0h58.7c2.6,0,4.7-2,4.8-4.6,0-2.6-2-4.7-4.6-4.8,0,0,0,0-.1,0Z"/>
      <path id="Path_3453-2986" class="st7" d="M643.5,268.4h-44.2c-2.6,0-4.7-2.2-4.6-4.8,0-2.5,2.1-4.6,4.6-4.6h44.2c2.6,0,4.7,2.2,4.6,4.8,0,2.5-2.1,4.6-4.6,4.6Z"/>
      <circle id="Ellipse_537" class="st2" cx="577" cy="287.4" r="5.6"/>
      <path id="Path_3454-2987" class="st3" d="M666.6,283.1c2.1,0,3.8,1.7,3.8,3.8s-1.7,3.8-3.8,3.8h-58.7c-2.1,0-3.8-1.7-3.8-3.8s1.7-3.8,3.8-3.8h58.7M666.6,282.2h-58.7c-2.6,0-4.7,2.2-4.6,4.8,0,2.5,2.1,4.6,4.6,4.6h58.7c2.6,0,4.7-2,4.8-4.6,0-2.6-2-4.7-4.6-4.8,0,0,0,0-.1,0Z"/>
      <path id="Path_3455-2988" class="st7" d="M660.1,291.6h-60.8c-2.6,0-4.7-2.2-4.6-4.8,0-2.5,2.1-4.6,4.6-4.6h60.8c2.6,0,4.7,2.2,4.6,4.8,0,2.5-2.1,4.6-4.6,4.6h0Z"/>
      <circle id="Ellipse_538" class="st2" cx="577" cy="310.6" r="5.6"/>
      <path id="Path_3456-2989" class="st3" d="M666.6,306.3c2.1,0,3.8,1.7,3.8,3.8s-1.7,3.8-3.8,3.8h-58.7c-2.1,0-3.8-1.7-3.8-3.8s1.7-3.8,3.8-3.8h58.7M666.6,305.3h-58.7c-2.6,0-4.7,2.2-4.6,4.8,0,2.5,2.1,4.6,4.6,4.6h58.7c2.6,0,4.7-2,4.8-4.6,0-2.6-2-4.7-4.6-4.8,0,0,0,0-.1,0Z"/>
      <path id="Path_3457-2990" class="st7" d="M624,314.8h-24.7c-2.6,0-4.7-2.2-4.6-4.8,0-2.5,2.1-4.6,4.6-4.6h24.7c2.6,0,4.7,2.2,4.6,4.8,0,2.5-2.1,4.6-4.6,4.6h0Z"/>
      <rect id="Rectangle_778" class="st4" x="102.9" y="98.6" width="405.1" height="245.9" rx="8" ry="8"/>
      <rect id="Rectangle_779" class="st1" x="110.9" y="105.9" width="389" height="230.6"/>
      <path id="Path_3458-2991" class="st2" d="M451.7,292.4H168.1c-.5,0-.9-.4-.9-.9v-135.9c0-.5.4-.9.9-.9s.9.4.9.9v135h282.7c.5,0,.9.4.9.9s-.4.9-.9.9h0Z"/>
      <path id="Path_3459-2992" class="st7" d="M228.7,282.6h-25.8c-1.5,0-2.6-1.2-2.6-2.6v-35.6c0-1.5,1.2-2.6,2.6-2.6h25.8c1.5,0,2.6,1.2,2.6,2.6v35.6c0,1.5-1.2,2.6-2.6,2.6Z"/>
      <path id="Path_3460-2993" class="st7" d="M275.7,282.6h-25.8c-1.5,0-2.6-1.2-2.6-2.6v-69.3c0-1.5,1.2-2.6,2.6-2.6h25.8c1.5,0,2.6,1.2,2.6,2.6v69.3c0,1.5-1.2,2.6-2.6,2.6Z"/>
      <path id="Path_3461-2994" class="st7" d="M322.8,282.6h-25.8c-1.5,0-2.6-1.2-2.6-2.6v-35.6c0-1.5,1.2-2.6,2.6-2.6h25.8c1.5,0,2.6,1.2,2.6,2.6v35.6c0,1.5-1.2,2.6-2.6,2.6h0Z"/>
      <path id="Path_3462-2995" class="st7" d="M369.8,282.6h-25.8c-1.4,0-2.6-1.1-2.6-2.5v-82.8c0-1.4,1.2-2.5,2.6-2.5h25.8c1.4,0,2.6,1.1,2.6,2.5v82.8c0,1.4-1.2,2.5-2.6,2.5h0Z"/>
      <path id="Path_3463-2996" class="st7" d="M416.8,282.6h-25.8c-1.5,0-2.6-1.2-2.6-2.6v-106.5c0-1.5,1.2-2.6,2.6-2.6h25.8c1.5,0,2.6,1.2,2.6,2.6v106.5c0,1.5-1.2,2.6-2.6,2.6Z"/>
      <circle id="Ellipse_539" class="st2" cx="215.8" cy="225.8" r="5.3"/>
      <circle id="Ellipse_540" class="st2" cx="262.8" cy="191.2" r="5.3"/>
      <circle id="Ellipse_541" class="st2" cx="309.9" cy="225.8" r="5.3"/>
      <circle id="Ellipse_542" class="st2" cx="356.9" cy="174.3" r="5.3"/>
      <circle id="Ellipse_543" class="st2" cx="403.9" cy="154.8" r="5.3"/>
      <path id="Path_3464-2997" class="st2" d="M310,227l-47.1-35.3-46.5,34.8-1.1-1.4,47.6-35.6,46.9,35.1,46.6-51h.2c0,0,47-19,47-19l.7,1.6-46.8,18.9-47.4,51.9Z"/>
    </g>
  </g>
</svg>