<?xml version="1.0" encoding="UTF-8"?>
<svg id="Layer_1" xmlns="http://www.w3.org/2000/svg" version="1.1" viewBox="0 0 527.1 800">
  <!-- Generator: Adobe Illustrator 30.3.0, SVG Export Plug-In . SVG Version: 2.1.3 Build 182)  -->
  <defs>
    <style>
      .st0 {
        fill: #2f2e41;
      }

      .st1 {
        fill: #ffcf60;
      }

      .st2 {
        fill: #090814;
      }

      .st3 {
        fill: #ed9da0;
      }

      .st4 {
        fill: #ff5e5e;
      }
    </style>
  </defs>
  <path class="st3" d="M353.9,709.1s6.6,19,12.4,37.2,33.6,27.8,33.6,27.8l5.1,13.1-15.3,7.3-44.5-11s1.5-14.6,1.5-19.7-23.4-48.2-23.4-48.2l30.7-6.6Z"/>
  <path class="st1" d="M88.4,794.9c-15.4-4.2-34.2-21.5-30.2-45.3,2-11.8,9.6-19.5,17.6-24.4,11-6.8,23.5-9.4,35.5-10.1,13.9-.8,27.8,1.1,41.6,3.1,13.6,2,27.2,3.7,40.9,4.8,53.5,4.2,107.3.2,159.6-11.9,12.9-3,25.7-6.5,38.5-10.5,12.1-3.6,23.9-8,35.4-13.2,15.2-7.3,39.8-21.4,37.8-47.7-1.1-13.9-9.3-25-17.5-32.8-10-9.4-21.6-15.5-32.9-21.5-52.7-27.8-105.4-55.3-158.2-82.9-12.3-6.5-24.7-12.7-36.6-20.3-11.2-7.1-22.3-15.3-31.3-26.7-7.9-9.9-14.9-23.3-14.6-38.2.2-12.4,5.8-22.8,12.7-30.7,17.1-19.4,41.2-27.3,63-31.4,27.1-5.1,54.6-5.1,81.7-10,21.9-4,45.3-11.7,63.1-29.8,7.5-7.3,12.9-16.7,15.4-26.9,2.3-10.7,1.2-21.8-3.2-31.9-4.8-11.5-12.5-20.7-20.6-28.2-9.3-8.5-19.8-15.5-31.3-20.9-24-11.5-49.3-17.4-74-26.2-12.1-4.3-24.3-9-35.5-16.4-9.5-6.3-19.9-14.7-25.1-27.3-10.9-25.9,15.1-41.4,29.9-47.3,10-3.8,20.3-6.8,30.9-8.8,2.2-.5,1.3-4.9-.9-4.4-11.1,2.2-21.9,5.3-32.4,9.5-8.9,3.7-18.1,8.5-25,16.9-6.4,7.6-9.3,17.6-8,27.5,1.9,12.5,9.9,22,17.4,29,10,9.2,21.4,15.2,32.9,20.1,12.2,5.2,24.6,9.2,37,13.1,24.8,7.9,50.7,14.9,73.1,31.6,15.7,11.7,36.9,33.7,31.7,60.9-2.3,12.1-9.3,21.5-16.9,28.5-8.9,7.9-19.2,14.2-30.3,18.4-49.6,20-104.2,5.7-152.6,32.8-16.4,9.2-36.4,26-36.6,52.4,0,13.7,5.4,26.3,12.2,36.3,8.1,11.9,18.7,20.7,29.4,28.1,11.3,7.5,23,14.3,35.1,20.3,13.2,6.9,26.4,13.9,39.7,20.8l80.3,42.1,39.9,20.9c12.2,6.4,24.7,12.5,35.7,21.9,9.1,7.7,19.8,20.3,18.8,35.9-.7,12.4-9,21.4-16.5,27.4-9.8,7.8-20.7,12.8-31.6,16.9-12.6,4.8-25.4,8.8-38.2,12.4-26.2,7.3-53,12.6-80.1,15.7-27,3.1-54.2,4.1-81.4,3-13.7-.6-27.4-1.6-41.1-3.3-14.1-1.7-28.1-4.3-42.3-5.5-12.8-1-25.7-.8-38.3,2.6-10.5,2.8-21.6,7.8-29.6,17.6-5.9,7.5-8.8,16.9-8.3,26.4.5,9.5,3.9,18.6,9.7,26.1,5.9,7.7,14.1,13.2,23.5,15.8,2.2.6,3.1-3.8.9-4.4h0Z"/>
  <rect class="st1" x="0" y="797" width="527.1" height="2.8"/>
  <circle class="st4" cx="454.1" cy="640.3" r="26.2"/>
  <circle class="st4" cx="182.4" cy="403.5" r="26.2"/>
  <path class="st3" d="M231.2,693s-22.6,30.7-27.8,35.8-6.6,24.1-6.6,24.1l8.8,20.4-5.1,10.2-39.4-39.4,42.4-62.8,27.7,11.7Z"/>
  <path class="st2" d="M319.8,769.5c-9-.7-29.3-83.7-37.3-129.1,0-.1,0-.2,0-.4-20.6,60-41.3,118-45.5,120.8-8.8,5.8-51.9-30.8-64.3-39.6-11.8-8.3,83.9-160,93-174.4h0c-1.9-9.4-4.3-18.6-7.3-27.7-16.1-44.5,11.7-86.9,11.7-86.9h38.7c12.5,0,22.8,9.9,23.1,22.4l1,38.2,5.1,8.8s31.5,234.6,31.5,241.9-29.1,26.1-47.5,26.1c-.7,0-1.3,0-1.9,0Z"/>
  <path class="st2" d="M199,777.7s0-8.8,2.8-13.1,8.1,15.3,8.1,15.3c0,0,32.1,8.8,17.5,18.3s-57.7-20.4-70.1-28.5-8-17.5-1.5-24.1l12.8-12.8,30.3,44.9Z"/>
  <circle class="st3" cx="280.9" cy="259.5" r="30.7"/>
  <path class="st3" d="M270.9,275.3c0,4.4-13.5,35-13.5,35l32.1,7.6v-38.2l-18.6-4.4Z"/>
  <path class="st2" d="M393.7,783.9s4,1.1-.4-.4-2.9-9.5-2.7-13.6,42.9,9.2,42.9,19.4-54.8,10.2-70.8,8.8-19.7,0-21.9-10.2,6.2-24.5,6.2-24.5l46.7,20.4Z"/>
  <path class="st4" d="M309.3,457.5c-1.6-1.8-3.2-3.7-5-5.6h-.5s-.5-1.1-.5-1.1c-1.9-2.1-3.9-4.2-6.1-6.4-6.4-6.4-18.7,8.2-24.4,8.2-3.8,0-7.5.9-10.9,2.5-2.1.9-4.5.7-6.3-.7-1.3-1-2.1-2.5-2.4-4.1-3.1-17.7-6.8-66.6-8.9-91.4-1.5-19.1,2.3-38.2,10.9-55.3l7.9-10.9c1.7-2.3,4.8-3.2,7.5-2.1,0,0,24.8,25.7,24.9,26.7.4,4.3,3.3,13.7,18.7,29.1,16.8,16.8,16.9,31.5,16.5,35.6,0,.3,0,.5,0,.8,0,1.8-.2,3.7-.7,5.4-7,22.2-1.5,48.8,7.3,76.5.7,2.6-.3,5.3-2.5,6.8-.1.1-.3.2-.4.3h0c-1.1,1.6-2.8,2.5-4.7,2.5-5.6,0-12.5-8.1-20.2-16.8Z"/>
  <path class="st0" d="M284.3,249.8l-5.5-6.4c.5,33.7,29.2,63.2,29.2,63.2l-64.5-7.1-1.6-8.9-3.4,7.4-7.9-2.2-2.3-5.5-4.9,2.9,10-43.4c9.9-41.4,39.9-35.3,39.9-35.3,41.3-.2,34.7,28.9,34.7,28.9l-23.7,6.4Z"/>
  <path class="st3" d="M359.4,494.2l20.9,14.8c6.6,4.7,8.2,13.9,3.5,20.5-.7.9-1.4,1.8-2.3,2.6h0c-6.1,5.4-15.4,4.8-20.8-1.3-.5-.6-1-1.3-1.5-2l-12.1-19.5-42.5-64.2c3.5,0,7-1.1,9.9-3.1,4.4-3.2,7.7-9.9,7.7-9.9l37.1,62.1Z"/>
  <path class="st4" d="M347.1,1.1l-72.7,31.6c-6.7,2.9-9.8,10.7-6.9,17.4l22.6,51.9c2.9,6.7,10.7,9.8,17.4,6.9l72.7-31.6c6.7-2.9,9.8-10.7,6.9-17.4l-22.6-51.9c-2.9-6.7-10.7-9.8-17.4-6.9h0ZM350.2,8c.4-.2.9-.3,1.4-.4l-24.6,46.4-50.5-13.8c.3-.2.6-.4,1-.6l72.7-31.6ZM377.3,70.3l-72.7,31.6c-2.9,1.2-6.2,0-7.5-2.9l-22.4-51.5,53.1,14.5c1.7.5,3.5-.3,4.3-1.9l25.7-48.6,22.3,51.2c1.2,2.9,0,6.2-2.9,7.5h0Z"/>
</svg>