<?xml version="1.0" encoding="UTF-8" standalone="no"?>
<!-- Created with Inkscape (http://www.inkscape.org/) -->

<svg
   xmlns:dc="http://purl.org/dc/elements/1.1/"
   xmlns:cc="http://creativecommons.org/ns#"
   xmlns:rdf="http://www.w3.org/1999/02/22-rdf-syntax-ns#"
   xmlns:svg="http://www.w3.org/2000/svg"
   xmlns="http://www.w3.org/2000/svg"
   xmlns:sodipodi="http://sodipodi.sourceforge.net/DTD/sodipodi-0.dtd"
   xmlns:inkscape="http://www.inkscape.org/namespaces/inkscape"
   width="245.26279"
   height="62.968399"
   viewBox="0 0 64.892444 16.660388"
   version="1.1"
   id="svg1847"
   inkscape:version="0.92.0 r15299"
   sodipodi:docname="tilburg university.svg">
  <defs
     id="defs1841">
    <clipPath
       id="clipPath818"
       clipPathUnits="userSpaceOnUse">
      <path
         inkscape:connector-curvature="0"
         id="path816"
         d="M 536.906,27.76 H 720.104 V 81.945 H 536.906 Z" />
    </clipPath>
  </defs>
  <sodipodi:namedview
     id="base"
     pagecolor="#ffffff"
     bordercolor="#666666"
     borderopacity="1.0"
     inkscape:pageopacity="0.0"
     inkscape:pageshadow="2"
     inkscape:zoom="3.283349"
     inkscape:cx="122.1314"
     inkscape:cy="30.984199"
     inkscape:document-units="mm"
     inkscape:current-layer="layer1"
     showgrid="false"
     fit-margin-top="0"
     fit-margin-left="0"
     fit-margin-right="0"
     fit-margin-bottom="0"
     units="px"
     inkscape:window-width="1280"
     inkscape:window-height="744"
     inkscape:window-x="-4"
     inkscape:window-y="-4"
     inkscape:window-maximized="1" />
  <metadata
     id="metadata1844">
    <rdf:RDF>
      <cc:Work
         rdf:about="">
        <dc:format>image/svg+xml</dc:format>
        <dc:type
           rdf:resource="http://purl.org/dc/dcmitype/StillImage" />
        <dc:title></dc:title>
      </cc:Work>
    </rdf:RDF>
  </metadata>
  <g
     inkscape:label="Layer 1"
     inkscape:groupmode="layer"
     id="layer1"
     transform="translate(-65.203921,-179.68037)">
    <g
       id="g812"
       transform="matrix(0.35277777,0,0,-0.35277777,-124.07229,207.72098)">
      <g
         id="g814"
         clip-path="url(#clipPath818)">
        <g
           id="g820"
           transform="translate(627.2339,46.6801)">
          <path
             d="m 0,0 c -0.041,-0.006 -0.174,-0.012 -0.209,-0.012 -0.038,0 -0.108,-0.032 -0.108,-0.032 0,0 -0.033,0.012 -0.062,0.025 -0.019,0.013 -0.152,-0.013 -0.213,-0.018 -0.061,-0.007 -0.159,-0.013 -0.237,0.005 -0.081,0.02 -0.269,0.051 -0.343,0.032 -0.07,-0.019 -0.293,-0.019 -0.4,-0.019 -0.101,0 -0.311,0.024 -0.415,0.013 C -2.093,-0.019 -2.2,-0.024 -2.253,-0.012 -2.31,0 -2.366,0.024 -2.398,0 c -0.028,-0.024 -0.053,0.036 -0.115,0.005 -0.061,-0.029 -0.071,-0.024 -0.134,-0.011 -0.062,0.011 -0.07,0.018 -0.118,0.025 -0.051,0.005 -0.034,0.027 -0.078,0.05 -0.051,0.015 -0.105,-0.023 -0.154,-0.088 -0.052,-0.068 -0.328,-0.455 -0.427,-0.54 -0.1,-0.087 -0.184,-0.198 -0.242,-0.262 -0.055,-0.06 -0.14,-0.189 -0.165,-0.243 -0.026,-0.058 -0.1,-0.179 -0.173,-0.184 -0.074,-0.008 -0.05,0.072 -0.118,0.016 -0.066,-0.055 -0.409,-0.368 -0.499,-0.413 -0.085,-0.042 -0.311,-0.15 -0.35,-0.223 -0.034,-0.072 -0.098,-0.171 -0.126,-0.195 -0.02,-0.025 -0.414,-0.327 -0.49,-0.34 -0.075,-0.011 -0.233,-0.087 -0.315,-0.103 -0.079,-0.019 -0.153,-0.063 -0.213,-0.075 -0.064,-0.011 -0.674,-0.095 -0.79,-0.129 -0.118,-0.038 -0.278,-0.069 -0.359,-0.117 -0.078,-0.049 -0.078,-0.043 -0.145,-0.037 -0.069,0.008 -0.433,0.008 -0.568,-0.055 -0.135,-0.06 -0.344,-0.091 -0.441,-0.136 -0.101,-0.043 -0.269,-0.074 -0.342,-0.062 -0.075,0.015 -0.534,0.045 -0.627,0.031 -0.083,-0.012 -0.151,-0.024 -0.209,-0.036 -0.055,-0.012 -0.125,-0.029 -0.157,-0.012 -0.042,0.017 -0.379,0.057 -0.448,0.048 -0.066,-0.007 -0.163,0 -0.219,0 -0.058,0 -0.228,0.031 -0.297,0.061 -0.067,0.03 -0.32,0.037 -0.368,0.051 -0.05,0.01 -0.076,-0.036 -0.151,-0.014 -0.07,0.024 -0.07,0.058 -0.12,0.069 -0.05,0.011 -0.148,0.025 -0.225,0.035 -0.072,0.014 -0.185,0.028 -0.261,0.033 -0.075,0.007 -0.099,0.06 -0.162,0.072 -0.062,0.014 -0.109,0.045 -0.188,0.037 -0.083,-0.006 -0.2,-0.03 -0.263,0 -0.063,0.032 -0.318,0.15 -0.418,0.167 -0.099,0.019 -0.326,0.148 -0.445,0.166 -0.115,0.019 -0.159,-0.005 -0.238,0.048 -0.08,0.057 -0.121,0.076 -0.16,0.083 -0.036,0.005 -0.598,0.354 -0.708,0.425 -0.11,0.066 -0.209,0.097 -0.241,0.134 -0.029,0.038 -0.21,0.226 -0.276,0.296 -0.069,0.068 -0.148,0.16 -0.24,0.227 -0.092,0.069 -0.076,0.041 -0.099,0.132 -0.025,0.086 0.012,0.054 -0.08,0.172 -0.094,0.117 -0.192,0.183 -0.252,0.277 -0.064,0.092 -0.12,0.18 -0.142,0.25 -0.024,0.076 -0.055,0.082 -0.093,0.13 -0.037,0.049 -0.054,0.031 -0.054,0.082 0,0.048 -0.013,0.029 -0.043,0.073 -0.032,0.043 0.011,0 0.005,0.085 -0.005,0.087 0.011,0.131 -0.086,0.094 -0.1,-0.036 -0.158,-0.068 -0.241,-0.087 -0.079,-0.018 -0.185,0 -0.284,-0.024 -0.096,-0.025 -0.159,-0.012 -0.216,-0.025 -0.053,-0.013 -0.053,0.031 -0.085,0.037 -0.031,0.005 -0.165,-0.006 -0.203,-0.012 -0.036,-0.007 -0.138,0.024 -0.138,0.024 0,0 -0.065,-0.024 -0.127,0.007 -0.061,0.027 -0.074,0.027 -0.121,0.05 -0.049,0.015 -0.193,0.083 -0.272,0.059 -0.083,-0.023 -0.137,-0.005 -0.197,-0.023 -0.063,-0.021 -0.21,-0.026 -0.26,-0.026 -0.049,0 -0.13,-0.016 -0.149,-0.043 -0.016,-0.024 -0.086,-0.073 -0.109,-0.086 -0.025,-0.011 -0.031,0.031 -0.131,0.038 -0.099,0.006 -0.154,-0.007 -0.227,0.031 -0.075,0.036 -0.096,0.036 -0.171,0.036 -0.075,0 -0.191,0.055 -0.239,-0.019 0,-0.097 -0.013,-0.246 0.1,-0.256 0.109,-0.012 0.121,-0.051 0.257,-0.163 0.134,-0.108 0.197,-0.148 0.256,-0.231 0.063,-0.087 0.075,-0.159 0.163,-0.087 0.085,0.073 0.201,-0.001 0.262,0.012 0.063,0.012 0.087,0.043 0.18,0.074 0.092,0.03 0.136,0.049 0.279,0.04 0.138,-0.004 0.246,0.016 0.276,-0.03 0.029,-0.041 0.135,-0.109 0.188,-0.061 0.058,0.051 0.065,0.025 0.112,0.032 0.049,0.004 0.201,-0.007 0.282,-0.007 0.082,0 0.101,0 0.156,0.021 0.056,0.015 0.007,-0.033 0.056,-0.075 0.049,-0.043 0.112,-0.153 0.195,-0.197 0.088,-0.046 0.076,-0.118 0.088,-0.142 0.011,-0.025 0.031,-0.106 0.121,-0.243 0.095,-0.136 0.131,-0.188 0.216,-0.281 0.086,-0.092 0.094,-0.178 0.199,-0.242 0.105,-0.059 0.144,-0.037 0.171,-0.037 0.026,0 0.112,-0.054 0.179,-0.117 0.069,-0.06 0.202,-0.116 0.202,-0.116 l 0.106,-0.069 0.068,-0.122 0.135,-0.06 0.093,-0.106 c 0,0 0.172,-0.026 0.226,-0.05 0.057,-0.024 0.213,-0.098 0.242,-0.136 0.032,-0.038 0.006,-0.129 0.073,-0.152 0.068,-0.026 0.229,-0.124 0.278,-0.119 0.05,0.008 0.122,-0.024 0.147,-0.029 0.027,-0.006 0.169,-0.051 0.191,-0.087 0.023,-0.038 0.093,-0.11 0.161,-0.098 0.069,0.012 0.524,-0.159 0.622,-0.167 0.099,-0.004 0.405,-0.079 0.436,-0.066 0.031,0.01 0.113,-0.038 0.162,-0.071 0.046,-0.041 0.29,-0.046 0.326,-0.046 0.036,0 0.241,-0.03 0.277,-0.048 0.035,-0.019 0.117,-0.062 0.166,-0.055 0.052,0.005 0.493,-0.068 0.554,-0.086 0.064,-0.021 0.363,-0.041 0.437,-0.049 0.073,-0.015 0.362,-0.034 0.407,-0.034 0.045,0 0.05,-0.066 0.095,-0.066 0.053,0 0.228,-0.012 0.274,-0.019 0.05,-0.007 0.247,0.012 0.305,0.007 0.052,-0.007 0.222,-0.054 0.282,-0.032 0.057,0.025 0.095,0.049 0.154,0.092 0.055,0.046 0.127,0.014 0.171,0.018 0.041,0.006 0.744,0.068 0.812,0.083 0.066,0.011 0.272,0.054 0.345,0.067 0.074,0.012 0.141,0.05 0.166,0.05 0.027,0 0.019,-0.038 0.122,-0.019 0.107,0.019 0.308,0.068 0.425,0.074 0.118,0.006 0.154,0.044 0.248,0.092 0.091,0.048 0.123,0.096 0.184,0.092 0.063,-0.007 0.088,-0.027 0.129,-0.02 0.045,0.008 0.553,0.088 0.642,0.142 0.088,0.057 0.318,0.087 0.417,0.18 0.103,0.09 0.34,0.182 0.408,0.225 0.07,0.044 0.307,0.185 0.372,0.229 0.06,0.044 0.195,0.111 0.256,0.148 0.061,0.036 0.227,0.104 0.289,0.158 0.062,0.059 0.149,0.112 0.237,0.194 0.084,0.078 0.255,0.188 0.333,0.238 0.072,0.051 0.139,0.142 0.199,0.204 0.065,0.063 0.164,0.106 0.227,0.164 0.061,0.064 0.078,0.064 0.11,0.076 0.029,0.012 0.128,0.066 0.165,0.155 0.036,0.085 0.136,0.109 0.199,0.216 0.059,0.103 0.17,0.209 0.203,0.27 0.029,0.061 0.015,-0.007 0.077,0 0.062,0.007 0.267,-0.024 0.326,0 0.062,0.025 0.13,0.02 0.162,-0.007 0.029,-0.024 0.066,0 0.122,0.027 0.054,0.021 0.384,-0.044 0.522,-0.007 0.145,0.036 0.244,0.012 0.296,0.007 0.052,-0.007 0.139,-0.093 0.217,-0.093 0.073,0 0.097,0.018 0.146,0.037 0.05,0.017 0.131,0.036 0.171,0.104 0.033,0.068 0.158,0.14 0.195,0.204 0.033,0.062 0.099,0.115 0.153,0.141 0.054,0.025 0.074,0.073 0.081,0.103 0.006,0.033 0.041,0.051 0.056,0.087 0.011,0.038 0.036,0.067 0,0.099 C 0.103,0.031 0.043,0.005 0,0"
             style="fill:#093158;fill-opacity:1;fill-rule:nonzero;stroke:none"
             id="path822"
             inkscape:connector-curvature="0" />
        </g>
        <g
           id="g824"
           transform="translate(617.0712,45.4567)">
          <path
             d="m 0,0 c -0.116,-0.016 -0.273,0.036 -0.321,0.053 -0.046,0.015 -0.13,0 -0.182,0.005 C -0.56,0.064 -0.554,0.102 -0.632,0.116 -0.714,0.127 -0.767,0.134 -0.825,0.121 -0.88,0.107 -0.892,0.089 -0.954,0.144 -1.016,0.201 -1.09,0.193 -1.169,0.171 c -0.082,-0.027 -0.13,0.004 -0.221,0 -0.094,-0.006 -0.227,-0.032 -0.265,0.012 -0.038,0.04 -0.043,-0.018 -0.099,0.068 -0.056,0.084 -0.11,0.073 -0.186,0.08 -0.077,0.004 -0.011,0.028 -0.084,0.05 -0.075,0.016 -0.094,-0.027 -0.171,0.03 -0.07,0.055 -0.107,0.066 -0.132,0.123 -0.029,0.055 -0.007,0.077 -0.131,0.115 -0.12,0.037 -0.13,0.052 -0.195,0.08 -0.065,0.032 -0.075,0.02 -0.114,0.092 C -2.804,0.896 -2.785,0.89 -2.882,0.98 -2.982,1.076 -2.906,1.081 -3.024,1.13 -3.139,1.18 -3.122,1.212 -3.171,1.236 -3.219,1.26 -3.332,1.287 -3.402,1.254 -3.469,1.223 -3.474,1.18 -3.565,1.223 -3.659,1.265 -3.713,1.278 -3.786,1.265 -3.861,1.254 -3.842,1.236 -3.991,1.26 -4.137,1.287 -4.158,1.229 -4.206,1.303 -4.253,1.375 -4.354,1.322 -4.347,1.278 -4.322,1.223 -4.243,1.143 -4.181,1.1 c 0.062,-0.044 0.11,-0.054 0.146,-0.12 0.04,-0.06 0.181,-0.255 0.261,-0.294 0.079,-0.037 0.165,-0.134 0.238,-0.209 0.074,-0.075 0.279,-0.306 0.352,-0.325 0.071,-0.018 0.234,-0.191 0.328,-0.209 0.089,-0.02 0.424,-0.259 0.489,-0.259 0.071,0 0.138,-0.018 0.22,-0.039 0.078,-0.014 0.17,-0.121 0.225,-0.134 0.058,-0.012 0.267,-0.092 0.358,-0.098 0.095,-0.005 0.259,-0.049 0.303,-0.069 0.04,-0.017 0.098,-0.074 0.153,-0.061 0.057,0.012 0.154,-0.079 0.239,-0.062 0.088,0.018 0.185,-0.017 0.271,-0.023 0.09,-0.006 0.302,-0.07 0.372,-0.086 0.068,-0.02 0.14,-0.07 0.201,-0.038 0.062,0.03 0.129,0 0.257,0.007 0.129,0.003 0.285,-0.007 0.373,-0.007 0.087,0 0.142,-0.008 0.208,0.01 0.066,0.02 0.132,0.052 0.176,0.059 0.049,0.004 0.029,-0.051 0.063,-0.059 0.036,-0.003 0.255,-0.067 0.383,-0.018 0.13,0.051 0.23,0.081 0.258,0.102 0.032,0.017 0.086,0.036 0.124,0.03 0.037,-0.006 0.091,0 0.161,0.033 0.066,0.039 0.221,0.068 0.282,0.073 0.06,0.01 0.112,0.028 0.146,0.046 0.039,0.02 0.083,0.031 0.125,0.051 0.044,0.018 0.161,0.036 0.261,0.082 0.096,0.041 0.183,0.076 0.243,0.12 0.061,0.042 0.099,0.032 0.141,0.042 0.045,0.016 0.117,0.064 0.117,0.064 0,0 0.126,-0.037 0.181,-0.025 0.055,0.013 0.043,0.013 0.142,0.068 0.098,0.053 0.134,0.085 0.166,0.092 0.03,0.005 0.141,0.11 0.214,0.14 0.074,0.03 0.091,0.044 0.091,0.044 0,0 0.086,0.05 0.12,0.069 0.037,0.019 0.026,0.024 0.116,0.068 0.094,0.042 0.132,0.028 0.205,0.066 0.073,0.038 0.136,0.05 0.225,0.104 C 4.849,0.392 4.97,0.411 5.046,0.466 5.116,0.522 5.15,0.57 5.166,0.522 5.186,0.471 5.18,0.411 5.253,0.439 5.328,0.471 5.382,0.471 5.441,0.552 5.495,0.633 5.513,0.681 5.542,0.729 5.576,0.78 5.632,0.78 5.666,0.804 5.705,0.829 5.722,0.856 5.728,0.89 5.735,0.928 5.767,0.959 5.8,1.007 5.84,1.056 5.88,1.088 5.887,1.148 5.892,1.212 5.875,1.243 5.846,1.243 5.813,1.243 5.784,1.217 5.759,1.2 5.735,1.18 5.742,1.18 5.705,1.205 5.666,1.229 5.632,1.236 5.58,1.212 5.53,1.186 5.461,1.168 5.389,1.157 5.314,1.143 5.312,1.114 5.266,1.157 5.225,1.2 5.161,1.148 5.161,1.148 5.161,1.148 5.112,1.137 5.09,1.173 5.062,1.212 4.93,1.217 4.89,1.191 4.853,1.168 4.747,1.13 4.699,1.106 4.651,1.081 4.449,1.003 4.361,0.996 4.274,0.988 4.189,0.915 4.104,0.884 4.016,0.856 3.837,0.804 3.794,0.749 3.75,0.691 3.75,0.681 3.646,0.638 3.541,0.594 3.459,0.534 3.386,0.49 3.312,0.449 3.362,0.417 3.27,0.46 3.176,0.502 3.12,0.589 2.892,0.439 2.665,0.292 2.617,0.261 2.58,0.24 2.542,0.213 2.5,0.219 2.472,0.245 2.451,0.269 2.412,0.236 2.35,0.247 2.289,0.26 2.289,0.168 2.213,0.18 2.14,0.192 2.095,0.207 1.988,0.18 1.884,0.154 1.731,0.107 1.658,0.053 1.585,0 1.402,0.047 1.357,0.009 1.319,-0.028 1.158,-0.077 1.117,-0.057 1.07,-0.039 0.989,-0.039 0.906,-0.063 0.819,-0.088 0.672,-0.088 0.567,-0.088 c -0.103,0 -0.135,0.005 -0.215,0 C 0.27,-0.096 0.295,-0.112 0.198,-0.039 0.098,0.036 0.116,0.009 0,0"
             style="fill:#093158;fill-opacity:1;fill-rule:nonzero;stroke:none"
             id="path826"
             inkscape:connector-curvature="0" />
        </g>
        <g
           id="g828"
           transform="translate(608.2281,47.6552)">
          <path
             d="M 0,0 C 0.048,-0.012 0.109,0.049 0.162,0.033 0.216,0.022 0.252,0.027 0.375,0.015 0.496,0 0.707,0.042 0.761,0.022 0.818,0 0.825,-0.019 0.892,-0.054 c 0.069,-0.033 0.075,0.042 0.147,0.027 0.077,-0.011 0.15,-0.008 0.225,0.015 0.079,0.02 0.097,0.027 0.15,0.034 0.057,0.005 0.196,0.054 0.22,0.005 0.02,-0.043 0.061,-0.019 0.109,-0.046 0.048,-0.029 0.071,-0.016 0.106,0.014 C 1.884,0.022 2.033,0 2.104,0.015 2.171,0.027 2.3,0.063 2.362,0.033 2.424,0.008 2.431,0.008 2.463,-0.027 2.498,-0.06 2.552,-0.038 2.593,-0.019 2.634,0 2.668,0 2.723,-0.005 2.777,-0.012 2.85,0.022 2.94,0.027 3.028,0.033 3.314,0.054 3.375,0.015 3.437,-0.027 3.456,-0.027 3.552,-0.019 3.648,-0.012 3.98,0.022 4.03,0 4.079,-0.019 4.082,-0.08 4.173,-0.074 4.26,-0.065 4.867,0.008 4.92,-0.027 4.975,-0.06 4.941,-0.074 5.015,-0.074 c 0.074,0 0.122,0 0.193,-0.022 0.066,-0.018 0.244,0.069 0.346,0.104 0.1,0.034 0.082,0.019 0.115,0.041 0.037,0.019 0.042,0.041 0.042,0.113 0,0.078 0.026,0.069 0.052,0.126 C 5.791,0.342 5.81,0.356 5.819,0.408 5.827,0.465 5.85,0.505 5.873,0.565 5.893,0.628 5.908,0.608 5.978,0.687 6.042,0.77 5.94,0.852 5.88,0.832 5.819,0.812 5.783,0.795 5.704,0.77 5.624,0.74 5.494,0.77 5.419,0.778 5.343,0.783 5.224,0.77 5.137,0.74 5.049,0.714 4.293,0.763 4.251,0.749 4.212,0.736 4.219,0.72 4.177,0.687 4.137,0.653 4.091,0.702 4.071,0.749 4.051,0.795 3.892,0.758 3.805,0.709 3.714,0.661 3.601,0.687 3.532,0.682 3.462,0.676 3.462,0.648 3.462,0.72 3.462,0.795 3.437,0.819 3.398,0.933 3.355,1.05 3.382,1.078 3.389,1.152 c 0.009,0.074 0.013,0.081 0,0.17 C 3.375,1.41 3.368,1.477 3.336,1.533 3.301,1.587 3.308,1.642 3.329,1.686 c 0.02,0.05 0.02,0.105 0.02,0.201 0,0.093 -0.041,0.075 -0.062,0.128 C 3.266,2.07 3.254,2.104 3.234,2.138 3.21,2.174 3.206,2.246 3.261,2.315 3.314,2.385 3.301,2.512 3.273,2.574 3.245,2.637 3.21,2.696 3.186,2.772 3.159,2.847 3.148,2.894 3.194,2.962 3.234,3.03 3.196,3.05 3.234,3.137 3.266,3.228 3.278,3.209 3.295,3.261 3.308,3.316 3.301,3.325 3.336,3.351 3.368,3.378 3.408,3.412 3.451,3.464 3.49,3.52 3.518,3.587 3.574,3.603 3.627,3.615 3.654,3.684 3.735,3.646 3.82,3.615 4.079,3.684 4.131,3.675 4.185,3.669 4.212,3.703 4.246,3.718 4.28,3.73 4.306,3.799 4.381,3.792 4.457,3.784 4.532,3.887 4.544,3.926 4.558,3.969 4.642,4.044 4.75,4.153 4.86,4.261 4.809,4.104 4.784,4.039 4.758,3.969 4.8,3.96 4.8,3.893 4.8,3.825 4.777,3.703 4.784,3.646 4.793,3.595 4.793,3.499 4.8,3.431 4.803,3.363 4.71,3.392 4.662,3.392 4.613,3.392 4.569,3.434 4.51,3.407 4.448,3.379 4.438,3.358 4.401,3.302 4.368,3.246 4.387,3.181 4.401,3.185 4.462,3.197 4.444,3.152 4.43,3.089 4.418,3.03 4.438,2.968 4.486,2.914 4.532,2.858 4.567,2.898 4.635,2.907 4.701,2.914 4.71,2.922 4.784,2.914 4.86,2.907 4.809,2.894 4.817,2.838 4.824,2.784 4.771,2.799 4.771,2.751 4.771,2.704 4.777,2.67 4.824,2.628 4.872,2.587 5.021,2.547 5.089,2.566 5.159,2.587 5.137,2.67 5.159,2.719 5.179,2.763 5.208,2.818 5.199,2.894 5.195,2.968 5.212,3.016 5.186,3.099 5.159,3.18 5.194,3.351 5.194,3.418 c 0,0.069 -0.022,0.185 -0.022,0.239 0,0.052 -0.006,0.127 0.04,0.176 0.05,0.049 -0.004,0.088 -0.013,0.136 -0.004,0.048 0.02,0.075 0.02,0.13 0,0.054 -0.007,0.176 -0.011,0.259 -0.009,0.08 0,0.141 0.046,0.209 0.048,0.069 0.008,0.118 -0.014,0.158 -0.021,0.039 0,0.088 0.014,0.171 0.012,0.077 -0.014,0.168 0,0.251 0.012,0.082 0,0.197 -0.008,0.244 -0.007,0.047 -0.034,0.09 -0.022,0.131 0.015,0.039 0.07,0.053 0.083,0.079 0.017,0.028 0.067,0.028 0.097,0.037 0.057,0.011 0.052,0.075 0.118,0.122 0.069,0.049 0.057,0.097 0.057,0.159 0,0.061 0.027,0.239 0.013,0.314 C 5.579,6.308 5.546,6.35 5.511,6.378 5.479,6.405 5.401,6.41 5.35,6.414 5.292,6.421 5.274,6.413 5.24,6.458 5.208,6.507 5.186,6.507 5.15,6.481 5.117,6.453 5.081,6.471 5.043,6.491 5.009,6.511 5.016,6.513 4.948,6.546 4.88,6.581 4.809,6.543 4.769,6.519 4.729,6.501 4.742,6.501 4.682,6.475 4.62,6.446 4.572,6.421 4.496,6.38 4.421,6.341 4.362,6.267 4.377,6.222 4.387,6.172 4.389,6.127 4.357,6.093 4.32,6.058 4.362,6.016 4.362,6.016 c 0,0 -0.005,-0.078 0.027,-0.094 C 4.424,5.91 4.43,5.853 4.424,5.805 4.418,5.757 4.409,5.753 4.462,5.655 4.518,5.561 4.537,5.601 4.573,5.595 4.607,5.589 4.642,5.529 4.723,5.507 4.803,5.488 4.832,5.472 4.92,5.488 5.009,5.5 4.946,5.446 4.907,5.425 4.867,5.403 4.872,5.397 4.86,5.321 4.847,5.247 4.847,5.268 4.867,5.203 4.886,5.132 4.915,5.147 4.879,5.097 4.847,5.052 4.879,5.048 4.86,4.969 4.838,4.896 4.872,4.875 4.852,4.84 4.832,4.806 4.803,4.849 4.764,4.821 4.723,4.792 4.687,4.716 4.655,4.698 4.62,4.677 4.532,4.677 4.497,4.622 4.462,4.567 4.418,4.533 4.389,4.473 4.362,4.411 4.274,4.405 4.193,4.405 4.111,4.405 4.104,4.399 4.043,4.37 3.98,4.343 3.859,4.317 3.785,4.28 3.709,4.248 3.669,4.288 3.643,4.336 3.614,4.386 3.648,4.427 3.601,4.499 3.552,4.575 3.525,4.555 3.476,4.539 3.429,4.526 3.416,4.526 3.382,4.539 3.349,4.555 3.308,4.629 3.254,4.589 3.199,4.549 3.178,4.555 3.056,4.545 2.932,4.53 2.863,4.636 2.804,4.764 2.742,4.896 2.613,5.032 2.552,5.069 2.491,5.112 2.403,5.173 2.329,5.215 2.253,5.256 2.349,5.358 2.38,5.403 2.417,5.454 2.456,5.494 2.483,5.572 2.511,5.644 2.539,5.712 2.523,5.8 2.511,5.886 2.494,5.88 2.504,5.931 2.511,5.975 2.539,5.975 2.57,6.016 2.582,6.032 2.564,6.082 2.554,6.13 2.55,6.151 2.504,6.172 2.539,6.228 2.57,6.285 2.565,6.309 2.539,6.366 2.511,6.419 2.523,6.433 2.546,6.475 2.565,6.514 2.531,6.619 2.511,6.637 2.491,6.657 2.438,6.669 2.41,6.7 2.38,6.725 2.349,6.766 2.3,6.781 2.253,6.793 2.22,6.793 2.171,6.828 2.123,6.863 2.171,6.888 2.123,6.929 2.075,6.97 2.041,7.01 1.988,7.005 1.932,6.999 1.743,6.936 1.674,6.936 1.606,6.936 1.407,6.835 1.324,6.772 1.244,6.71 1.171,6.543 1.157,6.437 1.143,6.34 1.13,6.222 1.123,6.132 1.116,6.044 1.15,6.039 1.177,5.964 1.203,5.886 1.227,5.88 1.279,5.848 1.334,5.815 1.319,5.792 1.314,5.74 1.309,5.685 1.309,5.663 1.285,5.621 1.264,5.581 1.219,5.581 1.177,5.557 1.138,5.529 1.108,5.572 1.039,5.541 0.972,5.517 0.959,5.481 0.939,5.425 0.918,5.37 0.967,5.384 0.983,5.349 1.007,5.316 0.926,5.321 0.88,5.291 0.831,5.257 0.742,5.147 0.707,5.097 0.675,5.052 0.632,4.99 0.619,4.88 0.608,4.77 0.579,4.792 0.496,4.732 0.413,4.67 0.448,4.649 0.408,4.602 0.368,4.555 0.352,4.506 0.334,4.473 0.315,4.438 0.299,4.386 0.266,4.336 0.23,4.288 0.212,4.221 0.178,4.193 0.142,4.168 0.15,4.092 0.158,4.039 0.162,3.981 0.212,4.008 0.216,3.955 0.221,3.901 0.197,3.934 0.162,3.941 0.127,3.949 0.162,3.882 0.178,3.819 0.191,3.758 0.216,3.758 0.257,3.703 0.299,3.649 0.291,3.637 0.291,3.587 0.291,3.54 0.339,3.52 0.388,3.451 0.435,3.382 0.623,3.157 0.639,3.093 0.658,3.03 0.623,2.877 0.61,2.795 0.591,2.715 0.575,2.574 0.548,2.463 0.525,2.353 0.484,2.03 0.438,1.935 0.388,1.835 0.366,1.655 0.392,1.518 0.415,1.407 0.339,1.072 0.32,0.907 0.305,0.744 0.287,0.778 0.468,0.664 0.405,0.677 0.32,0.696 0.221,0.677 0.127,0.664 -0.012,0.707 -0.096,0.688 -0.177,0.674 -0.285,0.792 -0.348,0.76 -0.416,0.728 -0.559,0.739 -0.69,0.774 -0.82,0.804 -0.999,0.838 -0.999,0.838 L -1.166,0.744 c 0,0 -0.061,0.048 -0.126,0.096 -0.066,0.051 -0.099,-0.058 -0.067,-0.191 0.031,-0.13 0.339,-0.322 0.401,-0.607 0.109,0.021 0.279,0 0.353,-0.015 0.074,-0.012 0.163,0 0.223,0.022 0.062,0.019 0.226,0.036 0.246,0.005 C -0.114,0.027 -0.047,0.015 0,0 M 4.872,5.876 C 4.816,5.853 4.784,5.857 4.734,5.885 4.71,5.914 4.668,5.932 4.685,5.956 4.707,5.982 4.732,5.992 4.682,6.016 4.647,6.036 4.655,6.072 4.676,6.103 4.729,6.175 4.72,6.162 4.758,6.162 c 0.038,0 0.038,-0.015 0.085,-0.015 0.044,0 0.079,0.006 0.148,0.031 C 5.026,6.19 5.1,6.182 5.122,6.167 5.172,6.132 5.162,6.076 5.205,6.093 5.24,6.107 5.257,6.088 5.262,6.039 5.267,5.987 5.262,5.98 5.226,5.955 5.194,5.932 5.192,5.932 5.127,5.91 5.06,5.881 5.086,5.878 5.023,5.878 4.955,5.878 4.925,5.902 4.872,5.876 M 1.563,6.265 C 1.57,6.314 1.571,6.308 1.597,6.35 1.626,6.391 1.644,6.374 1.626,6.428 1.606,6.481 1.597,6.487 1.594,6.525 1.591,6.565 1.584,6.57 1.606,6.613 1.63,6.653 1.638,6.664 1.674,6.657 1.714,6.651 1.747,6.637 1.807,6.641 1.871,6.645 1.913,6.634 1.981,6.657 2.049,6.68 2.058,6.672 2.081,6.63 2.104,6.589 2.135,6.584 2.147,6.546 2.155,6.507 2.151,6.481 2.188,6.463 2.226,6.449 2.239,6.41 2.258,6.391 2.273,6.374 2.292,6.341 2.273,6.318 2.253,6.299 2.262,6.292 2.27,6.238 2.275,6.183 2.3,6.14 2.292,6.068 2.285,5.997 2.275,5.97 2.282,5.912 2.285,5.857 2.273,5.872 2.216,5.819 2.155,5.776 2.16,5.713 2.075,5.733 1.991,5.753 1.952,5.773 1.884,5.818 1.819,5.865 1.811,5.881 1.785,5.932 1.759,5.983 1.747,6.008 1.721,6.036 1.695,6.063 1.721,6.075 1.695,6.104 1.666,6.135 1.666,6.14 1.594,6.172 1.573,6.216 1.557,6.216 1.563,6.265 M 0.782,4.113 C 0.818,4.168 0.825,4.153 0.836,4.212 0.85,4.275 0.831,4.323 0.892,4.312 0.952,4.295 0.918,4.363 0.914,4.375 0.873,4.463 0.925,4.454 0.952,4.499 1,4.579 1.039,4.549 1.076,4.629 1.108,4.71 1.13,4.753 1.15,4.806 1.171,4.86 1.165,4.866 1.238,4.957 1.314,5.048 1.334,5.023 1.389,5.097 1.444,5.173 1.435,5.18 1.447,5.241 1.463,5.301 1.565,5.311 1.61,5.339 1.661,5.365 1.715,5.339 1.715,5.263 1.715,5.188 1.666,5.195 1.734,5.12 1.803,5.048 1.849,4.969 1.932,4.929 2.014,4.888 2.062,4.792 2.123,4.875 2.184,4.957 2.213,4.957 2.253,4.982 2.293,5.009 2.3,4.969 2.329,4.913 2.356,4.86 2.341,4.813 2.362,4.725 2.38,4.636 2.38,4.589 2.417,4.499 2.449,4.411 2.424,4.392 2.478,4.33 2.531,4.269 2.546,4.248 2.559,4.2 2.57,4.153 2.638,4.18 2.697,4.168 2.75,4.153 2.763,4.127 2.839,4.104 2.913,4.085 2.932,4.153 2.961,4.072 2.988,3.989 3.007,3.96 2.968,3.873 2.927,3.784 2.863,3.758 2.884,3.67 2.906,3.579 2.932,3.507 2.913,3.438 2.893,3.368 2.858,3.316 2.833,3.261 2.804,3.209 2.769,2.997 2.782,2.956 2.796,2.914 2.809,2.928 2.777,2.826 2.742,2.725 2.764,2.532 2.769,2.493 2.777,2.452 2.769,2.43 2.757,2.348 2.742,2.267 2.728,2.146 2.742,2.034 2.757,1.927 2.898,1.635 2.881,1.562 2.865,1.496 2.845,1.475 2.837,1.416 2.828,1.356 2.796,1.321 2.812,1.262 2.828,1.208 2.807,1.17 2.842,1.129 2.876,1.089 2.85,1.035 2.845,0.981 2.842,0.923 2.787,0.923 2.842,0.832 2.898,0.744 2.969,0.65 2.828,0.65 2.688,0.65 2.581,0.671 2.537,0.677 2.494,0.687 2.332,0.677 2.266,0.664 2.199,0.648 2.187,0.618 2.143,0.639 2.095,0.658 1.839,0.674 1.732,0.671 1.631,0.664 1.52,0.722 1.468,0.677 1.42,0.633 1.383,0.584 1.325,0.628 1.272,0.674 1.242,0.65 1.208,0.639 1.175,0.624 1.211,0.648 1.165,0.683 1.113,0.717 0.979,0.698 0.937,0.683 0.892,0.671 0.896,0.704 0.886,0.72 0.896,0.795 0.926,0.87 0.911,0.933 0.896,0.991 0.87,1.021 0.88,1.143 c 0.006,0.123 -0.022,0.173 0.006,0.24 0.025,0.066 0.02,0.135 0.02,0.243 0,0.11 -0.01,0.192 0.041,0.267 0.047,0.076 0.06,0.049 0.067,0.122 0.006,0.077 0,0.145 -0.02,0.191 C 0.972,2.254 1,2.361 1.007,2.43 1.014,2.499 1.014,2.52 1.039,2.6 1.068,2.683 1.048,2.683 1.061,2.763 1.076,2.847 1.084,2.826 1.171,2.772 1.26,2.719 1.279,2.683 1.324,2.711 1.376,2.735 1.463,2.719 1.514,2.688 1.558,2.662 1.654,2.623 1.715,2.637 1.776,2.648 1.784,2.623 1.844,2.676 1.906,2.73 1.967,2.731 1.913,2.784 1.857,2.838 1.824,2.894 1.803,2.976 1.784,3.057 1.743,3.072 1.715,3.18 1.687,3.288 1.666,3.343 1.578,3.351 1.49,3.358 1.425,3.344 1.376,3.358 1.324,3.368 1.319,3.399 1.272,3.423 1.227,3.451 1.196,3.46 1.138,3.478 1.076,3.499 1.082,3.525 1.014,3.553 0.947,3.579 0.926,3.61 0.863,3.67 0.803,3.73 0.775,3.771 0.761,3.847 c -0.011,0.074 0,0.142 -0.011,0.176 -0.014,0.033 0,0.037 0.032,0.09"
             style="fill:#093158;fill-opacity:1;fill-rule:nonzero;stroke:none"
             id="path830"
             inkscape:connector-curvature="0" />
        </g>
        <g
           id="g832"
           transform="translate(610.1425,63.8476)">
          <path
             d="m 0,0 c 0.077,-0.008 0.088,-0.061 0.088,-0.14 0,-0.076 0.031,-0.104 0.11,-0.087 0.079,0.019 0.087,-0.024 0.15,-0.058 0.06,-0.034 0.118,-0.019 0.197,0 0.078,0.014 0.062,0.025 0.095,0.102 0.034,0.079 0.079,0.112 0.121,0.183 0.044,0.068 0.019,0.154 0,0.196 C 0.743,0.243 0.726,0.257 0.726,0.346 0.726,0.433 0.71,0.399 0.692,0.467 0.674,0.536 0.614,0.562 0.555,0.605 0.494,0.649 0.432,0.665 0.374,0.639 0.311,0.615 0.19,0.639 0.119,0.625 0.05,0.605 0.05,0.605 0.008,0.554 -0.036,0.501 -0.022,0.467 -0.052,0.406 -0.086,0.346 -0.107,0.336 -0.111,0.251 -0.107,0.174 -0.097,0.224 -0.078,0.127 -0.062,0.035 -0.078,0.006 0,0"
             style="fill:#093158;fill-opacity:1;fill-rule:nonzero;stroke:none"
             id="path834"
             inkscape:connector-curvature="0" />
        </g>
        <g
           id="g836"
           transform="translate(607.1558,60.6423)">
          <path
             d="m 0,0 c 0.069,-0.07 0.15,-0.212 0.212,-0.259 0.06,-0.05 0.089,-0.043 0.133,-0.112 0.045,-0.068 0.098,-0.093 0.185,-0.142 0.085,-0.049 0.241,-0.178 0.296,-0.256 0.055,-0.082 0.074,-0.114 0.122,-0.159 0.05,-0.052 0.31,-0.145 0.399,-0.213 0.094,-0.067 0.18,-0.097 0.268,-0.141 0.085,-0.043 0.257,-0.043 0.3,-0.087 0.044,-0.042 0.125,-0.062 0.197,-0.042 0.073,0.019 0.066,0.008 0.147,-0.01 0.081,-0.021 0.383,-0.055 0.469,-0.063 0.087,-0.007 0.228,-0.037 0.285,-0.007 0.054,0.031 0.102,-0.012 0.159,-0.061 0.055,-0.05 0.179,-0.025 0.254,-0.006 0.073,0.018 0.11,-0.031 0.201,-0.007 0.094,0.025 0.322,-0.02 0.402,0 0.079,0.02 0.098,0.057 0.183,0.048 0.088,-0.004 0.297,0.125 0.34,0.192 0.043,0.069 0.092,0.048 0.14,0.098 0.051,0.048 0.18,0.048 0.261,0.06 0.078,0.013 0.232,0.071 0.287,0.094 0.057,0.026 0.167,0.093 0.222,0.082 0.056,-0.013 0.346,0.127 0.413,0.147 0.069,0.018 0.223,-0.084 0.273,-0.132 0.048,-0.043 0.055,-0.084 0.103,-0.108 0.048,-0.026 0.123,0.024 0.196,-0.051 0.075,-0.073 0.494,-0.228 0.538,-0.239 0.043,-0.013 0.053,0 0.126,0.011 0.076,0.013 0.064,-0.011 0.12,-0.073 0.053,-0.061 0.097,-0.072 0.149,-0.122 0.047,-0.051 0.144,-0.107 0.188,-0.162 0.046,-0.055 0.121,-0.104 0.18,-0.136 0.055,-0.027 0.086,-0.011 0.122,-0.055 0.039,-0.04 0.172,-0.203 0.224,-0.197 0.051,0.006 0.067,0.006 0.123,-0.054 0.056,-0.064 0.194,-0.143 0.264,-0.173 0.074,-0.03 0.113,-0.084 0.146,-0.146 0.032,-0.06 0.112,-0.083 0.207,-0.227 0.094,-0.145 0.481,-0.547 0.513,-0.617 0.031,-0.071 0.075,-0.011 0.05,-0.064 C 9.376,-3.437 9.347,-3.49 9.296,-3.624 9.241,-3.758 9.232,-3.748 9.214,-3.862 9.191,-3.974 9.191,-3.964 9.11,-3.954 9.027,-3.944 8.974,-3.85 8.874,-3.818 8.772,-3.79 8.71,-3.706 8.627,-3.645 8.543,-3.583 8.513,-3.532 8.388,-3.543 8.265,-3.552 8.225,-3.48 8.121,-3.47 c -0.1,0.01 -0.318,0.063 -0.389,0.113 -0.074,0.053 -0.17,0.073 -0.271,0.084 -0.103,0.008 -0.185,0.051 -0.245,0.083 -0.064,0.031 -0.188,0.123 -0.261,0.153 -0.072,0.032 -0.141,0.094 -0.237,0.103 -0.09,0.01 -0.1,0.081 -0.151,0.092 C 6.513,-2.831 6.453,-2.788 6.391,-2.708 6.33,-2.624 6.29,-2.634 6.224,-2.613 6.162,-2.594 6.092,-2.582 6.028,-2.541 5.968,-2.5 5.907,-2.5 5.835,-2.493 5.763,-2.481 5.752,-2.521 5.639,-2.533 5.524,-2.541 5.35,-2.429 5.226,-2.472 5.104,-2.512 4.764,-2.449 4.619,-2.5 4.475,-2.553 4.333,-2.582 4.247,-2.603 4.167,-2.624 4.073,-2.594 3.939,-2.645 3.805,-2.696 3.632,-2.728 3.55,-2.747 3.468,-2.772 3.453,-2.788 3.364,-2.81 3.271,-2.831 2.876,-3.088 2.777,-3.18 2.672,-3.273 2.527,-3.284 2.434,-3.428 2.343,-3.572 2.251,-3.572 2.188,-3.653 2.125,-3.738 2.052,-3.748 2.037,-3.839 2.015,-3.933 1.881,-4.129 1.911,-4.212 1.94,-4.292 1.89,-4.325 1.86,-4.427 1.827,-4.529 1.749,-4.531 1.696,-4.628 1.594,-4.824 1.672,-4.705 1.777,-4.788 c 0.104,-0.085 0.176,-0.061 0.216,-0.009 0.044,0.051 0.236,-0.052 0.331,-0.076 0.092,-0.018 0.083,-0.079 0.203,-0.142 0.124,-0.061 0.14,-0.018 0.235,-0.01 0.092,0.01 0.19,0.004 0.271,-0.035 0.085,-0.042 0.217,-0.051 0.299,-0.073 0.082,-0.019 0.164,-0.08 0.298,-0.047 0.134,0.031 0.165,-0.02 0.287,-0.071 0.127,-0.05 0.166,-0.01 0.269,-0.021 0.102,-0.011 0.186,0.059 0.268,0.032 0.083,-0.032 0.174,0.019 0.281,0 0.1,-0.021 0.11,-0.053 0.202,-0.032 0.094,0.021 0.158,0.072 0.248,0.102 0.094,0.03 0.465,0.147 0.518,0.155 0.05,0.01 0.109,-0.018 0.132,0.042 0.021,0.061 0.238,0.176 0.287,0.227 0.053,0.052 0.216,0.032 0.29,0.134 0.073,0.101 0.306,0.236 0.379,0.32 0.072,0.081 0.494,0.297 0.558,0.328 0.063,0.031 0.094,0.092 0.112,0.194 0.022,0.106 0.227,-0.039 0.312,-0.092 0.08,-0.048 0.113,-0.06 0.205,-0.082 0.092,-0.02 0.143,0.011 0.207,-0.061 0.06,-0.071 0.268,-0.184 0.328,-0.239 0.064,-0.049 0.163,-0.112 0.226,-0.183 0.063,-0.073 0.268,-0.123 0.268,-0.123 0,0 0.031,0.112 0.071,-0.072 C 9.12,-4.808 9.276,-4.921 9.397,-5.089 9.521,-5.251 9.493,-5.116 9.481,-5.231 9.468,-5.343 9.397,-5.407 9.41,-5.6 9.422,-5.798 9.422,-5.805 9.389,-6.022 9.359,-6.238 9.315,-6.272 9.347,-6.405 9.378,-6.538 9.337,-6.538 9.315,-6.65 9.296,-6.765 9.287,-6.836 9.265,-7.033 9.241,-7.23 9.22,-7.187 9.24,-7.43 9.264,-7.677 9.241,-7.629 9.191,-7.795 9.142,-7.959 9.133,-8.206 9.142,-8.37 9.152,-8.538 9.142,-8.608 9.11,-8.742 9.078,-8.877 9.09,-8.948 9.078,-9.071 9.069,-9.196 9.069,-9.361 9.069,-9.504 c 0,-0.147 -0.078,-0.738 -0.04,-0.824 0.037,-0.084 -0.01,-0.181 -0.06,-0.304 -0.046,-0.118 -0.096,-0.146 -0.087,-0.257 0.009,-0.115 -0.005,-0.118 -0.08,-0.24 -0.073,-0.119 -0.019,-0.101 -0.029,-0.24 -0.009,-0.142 -0.038,-0.114 -0.129,-0.217 -0.094,-0.107 -0.179,-0.244 -0.188,-0.346 -0.009,-0.106 0.009,-0.097 -0.087,-0.16 -0.091,-0.067 -0.061,-0.14 -0.12,-0.292 -0.056,-0.151 -0.047,-0.13 -0.102,-0.233 -0.058,-0.103 -0.021,-0.16 -0.083,-0.273 -0.068,-0.11 -0.027,-0.158 -0.023,-0.289 0.012,-0.132 0,-0.094 -0.043,-0.198 -0.05,-0.104 -0.05,-0.055 -0.031,-0.129 0.097,-0.025 0.2,0.025 0.277,0.043 0.078,0.015 0.061,0.034 0.139,0.01 0.076,-0.028 0.172,-0.028 0.247,-0.034 0.082,-0.012 0.22,0.006 0.321,0 0.106,-0.012 0.056,0.049 0.131,0.127 0.078,0.079 0.064,0.141 0.13,0.199 0.071,0.062 0.034,0.157 0.103,0.304 0.07,0.148 0.07,0.208 0.09,0.331 0.017,0.12 0,0.163 0.032,0.294 0.038,0.129 0.038,0.112 0.078,0.189 0.047,0.077 0.037,0.148 0.037,0.252 0,0.102 0,0.189 0.048,0.302 0.052,0.113 0.035,0.138 0.043,0.26 0.009,0.124 -0.035,0.164 -0.015,0.309 0.015,0.151 -0.02,0.134 0.062,0.305 0.078,0.175 0.087,0.063 0.102,0.164 0.017,0.105 0,0.131 0.007,0.236 0.01,0.103 0.038,0.078 0.038,0.163 0,0.086 -0.045,0.132 -0.06,0.234 -0.02,0.104 -0.02,0.123 0,0.166 0.015,0.043 0.006,0.136 0,0.268 -0.009,0.129 -0.02,0.215 0,0.306 0.015,0.083 0.015,0.136 0,0.23 -0.02,0.093 -0.02,0.184 -0.02,0.296 v 0.45 c 0,0.12 -0.049,0.071 -0.033,0.172 0.016,0.105 0.044,0.087 0.023,0.156 -0.018,0.069 0,0.131 0,0.257 0,0.131 -0.007,0.156 0.045,0.281 0.053,0.121 0.045,0.32 0.038,0.44 -0.012,0.121 -0.021,0.209 0,0.338 0.015,0.131 0.031,0.166 0.038,0.277 0.009,0.113 0.009,0.164 0.046,0.233 0.034,0.072 0.016,0.14 0.062,0.271 0.04,0.127 0.014,0.207 0.008,0.31 -0.008,0.105 -0.016,0.146 0.032,0.251 0.053,0.102 0.029,0.156 0.038,0.242 0.008,0.086 -0.03,0.149 -0.078,0.174 -0.056,0.026 -0.077,0.007 -0.077,0.078 0,0.068 -0.054,0.131 -0.09,0.19 -0.032,0.06 -0.032,0.12 -0.032,0.235 0,0.109 -0.02,0.146 -0.037,0.26 -0.016,0.109 -0.026,0.129 0,0.215 0.028,0.087 0.007,0.119 0,0.214 -0.011,0.098 0.052,0.08 0.059,0.176 0.01,0.094 0.053,0.147 0.078,0.234 0.028,0.085 0.028,0.172 0.053,0.224 0.026,0.052 0.052,0.091 0.092,0.192 0.054,0.118 0.09,0.222 0.054,0.265 -0.034,0.045 0.004,0.046 -0.076,0.22 -0.076,0.171 -0.016,0.233 -0.07,0.354 -0.053,0.122 -0.093,0.199 -0.147,0.33 -0.054,0.129 -0.043,0.206 -0.085,0.294 -0.046,0.086 -0.07,0.345 -0.07,0.345 0,0 0.062,0.037 0.043,0.078 -0.019,0.044 -0.036,0.13 -0.063,0.182 C 9.582,-0.562 9.569,-0.499 9.543,-0.415 9.515,-0.331 9.569,-0.31 9.515,-0.208 9.463,-0.106 9.43,-0.062 9.351,0.028 9.275,0.115 9.297,0.132 9.291,0.219 9.284,0.303 9.22,0.347 9.152,0.408 9.082,0.468 9.029,0.599 8.979,0.65 8.929,0.703 8.9,0.713 8.877,0.824 8.85,0.936 8.798,0.97 8.702,1.039 8.607,1.11 8.535,1.249 8.459,1.318 8.383,1.385 8.364,1.402 8.314,1.516 8.26,1.628 8.236,1.691 8.191,1.775 8.148,1.862 8.096,1.966 8.079,2.029 8.064,2.088 8.111,2.14 8.105,2.281 8.096,2.417 8.111,2.48 8.131,2.555 8.148,2.635 8.183,2.694 8.167,2.78 8.148,2.867 8.131,2.93 8.131,3.014 8.131,3.101 8.111,3.189 8.064,3.221 8.009,3.257 7.993,3.307 7.974,3.37 7.956,3.429 7.903,3.487 7.862,3.571 7.819,3.658 7.774,3.714 7.723,3.774 7.671,3.836 7.681,3.89 7.612,4.025 7.543,4.165 7.592,4.191 7.548,4.276 7.507,4.366 7.49,4.479 7.412,4.523 7.334,4.563 7.231,4.694 7.134,4.738 7.036,4.781 7.021,4.791 6.971,4.781 6.919,4.771 6.795,4.876 6.737,4.927 6.675,4.98 6.485,5.101 6.398,5.135 6.311,5.171 6.121,5.295 6.033,5.327 5.947,5.361 5.747,5.403 5.688,5.37 5.628,5.335 5.636,5.335 5.585,5.295 5.532,5.248 5.437,5.301 5.367,5.301 c -0.07,0 -0.474,0.015 -0.474,0.015 0,0 -0.063,-0.015 -0.115,-0.057 C 4.725,5.215 4.684,5.274 4.545,5.259 4.406,5.239 4.388,5.239 4.399,5.152 4.406,5.066 4.406,5.048 4.475,4.953 4.545,4.859 4.562,4.867 4.562,4.824 4.562,4.781 4.631,4.721 4.674,4.659 4.718,4.599 4.725,4.563 4.736,4.443 4.744,4.321 4.736,4.27 4.76,4.124 4.786,3.976 4.787,3.88 4.866,3.799 4.942,3.724 4.934,3.638 5.019,3.514 5.106,3.395 5.065,3.395 5.073,3.247 5.08,3.101 5.106,3.101 5.176,3.014 5.245,2.93 5.272,2.807 5.349,2.703 5.429,2.598 5.479,2.624 5.55,2.538 5.618,2.452 5.585,2.48 5.654,2.382 5.725,2.288 5.733,2.297 5.808,2.253 5.886,2.208 5.99,2.018 6.059,1.905 6.13,1.794 6.189,1.794 6.267,1.716 6.345,1.637 6.441,1.663 6.538,1.628 6.631,1.595 6.76,1.62 6.848,1.613 6.934,1.604 7.071,1.595 7.141,1.604 7.212,1.613 7.334,1.587 7.417,1.604 7.507,1.62 7.567,1.637 7.661,1.62 7.758,1.604 7.965,1.298 8.001,1.23 8.037,1.16 8.105,1.11 8.183,1.075 8.26,1.039 8.26,0.963 8.269,0.909 8.278,0.859 8.314,0.824 8.336,0.762 8.364,0.703 8.444,0.633 8.493,0.554 8.546,0.478 8.946,-0.162 8.989,-0.231 c 0.04,-0.071 0.068,-0.133 0.049,-0.184 -0.016,-0.052 0.019,-0.084 0.06,-0.174 0.048,-0.086 0.038,-0.12 0.069,-0.18 0.037,-0.061 0.061,-0.105 0.053,-0.175 -0.008,-0.069 0.036,-0.129 0.036,-0.215 0,-0.087 0.019,-0.121 0.05,-0.233 0.037,-0.115 0.07,-0.598 0.079,-0.866 0.01,-0.27 -0.07,-0.089 -0.145,-0.053 -0.08,0.036 -0.233,0.198 -0.323,0.231 -0.085,0.038 -0.31,0.237 -0.382,0.28 -0.068,0.045 0,0.114 -0.059,0.147 -0.059,0.035 -0.216,0.191 -0.328,0.227 -0.111,0.034 -0.398,0.225 -0.477,0.247 -0.079,0.027 -0.223,0.159 -0.267,0.15 -0.046,-0.01 -0.167,0.033 -0.22,0.085 -0.05,0.054 -0.265,0.166 -0.345,0.219 -0.079,0.05 -0.518,0.215 -0.604,0.231 -0.087,0.018 -0.081,0.104 -0.081,0.192 0,0.087 -0.071,0.182 -0.095,0.251 -0.026,0.069 -0.034,0.085 0,0.174 C 6.093,0.209 6.042,0.243 6,0.311 5.955,0.378 5.984,0.408 5.984,0.486 5.984,0.563 5.922,0.616 5.854,0.625 5.782,0.633 5.585,0.876 5.471,0.945 5.357,1.014 5.038,1.274 4.926,1.326 4.813,1.378 4.518,1.62 4.44,1.663 4.363,1.706 3.78,1.974 3.689,2.011 3.593,2.045 3.542,2.078 3.402,2.045 3.263,2.011 3.097,2.07 2.924,2.104 2.752,2.14 2.646,2.131 2.501,2.114 2.352,2.098 2.143,2.148 2.016,2.131 1.89,2.114 1.68,2.07 1.642,2.054 1.61,2.035 1.565,2.002 1.522,1.974 1.479,1.948 1.383,1.925 1.314,1.905 1.246,1.887 1.211,1.974 1.16,1.951 1.106,1.925 0.936,1.883 0.862,1.845 0.787,1.808 0.739,1.776 0.66,1.764 0.578,1.754 0.509,1.73 0.405,1.669 0.301,1.605 0.301,1.599 0.228,1.595 0.155,1.589 0.091,1.537 0.037,1.488 -0.019,1.441 -0.078,1.426 -0.148,1.434 -0.216,1.441 -0.264,1.378 -0.314,1.324 -0.363,1.266 -0.479,1.255 -0.532,1.21 -0.578,1.17 -0.829,1.079 -0.913,1.003 -0.994,0.924 -0.935,0.906 -0.906,0.818 -0.877,0.729 -0.837,0.805 -0.762,0.745 -0.689,0.684 -0.61,0.616 -0.536,0.558 -0.462,0.505 -0.403,0.43 -0.369,0.35 -0.332,0.27 -0.247,0.232 -0.184,0.184 -0.125,0.135 -0.068,0.068 0,0 M 6.424,-3.9 C 6.203,-4.042 6.077,-4.188 6.022,-4.188 5.968,-4.188 5.856,-4.225 5.832,-4.269 5.808,-4.312 5.723,-4.388 5.649,-4.448 5.575,-4.511 5.31,-4.674 5.204,-4.686 5.1,-4.7 5.019,-4.73 4.948,-4.754 4.872,-4.781 4.839,-4.812 4.743,-4.797 4.644,-4.788 4.44,-4.764 4.359,-4.764 4.28,-4.764 4.177,-4.705 4.088,-4.7 4.002,-4.693 3.906,-4.674 3.842,-4.679 3.78,-4.686 3.793,-4.67 3.702,-4.67 3.609,-4.67 3.595,-4.705 3.499,-4.679 3.401,-4.656 3.432,-4.656 3.312,-4.64 3.196,-4.62 3.136,-4.632 3.136,-4.632 l -0.044,0.056 c 0,0 -0.025,0.029 -0.093,0.018 -0.067,-0.011 -0.09,-0.026 -0.155,0 -0.059,0.025 -0.102,-0.049 -0.139,0.011 -0.038,0.064 -0.02,0.036 -0.075,0.116 -0.054,0.081 -0.105,0.075 -0.073,0.133 0.032,0.054 0.069,0.029 0.11,0.092 0.044,0.061 0.061,0.103 0.044,0.171 -0.02,0.07 -0.026,0.081 0.007,0.119 0.03,0.036 0.078,0 0.121,0.06 0.042,0.061 0.074,0.102 0.063,0.135 -0.016,0.032 0.036,0.062 0.06,0.099 0.026,0.038 0.057,0.038 0.1,0.105 0.042,0.067 0.081,0.085 0.147,0.155 0.067,0.067 0.044,0.085 0.111,0.115 0.065,0.033 0.074,0.006 0.142,0.057 0.066,0.049 0.074,-0.007 0.154,0.049 0.08,0.056 0.093,0.011 0.182,0.068 0.097,0.054 0.146,0.016 0.204,0.055 0.062,0.041 0.081,0.01 0.218,0.058 0.139,0.051 0.239,0.051 0.388,0.058 0.149,0.012 0.317,0.052 0.396,0.071 0.078,0.021 0.345,-0.048 0.462,-0.048 0.121,0 0.318,-0.06 0.436,-0.081 C 6.02,-2.977 6.061,-3.038 6.159,-3.088 6.26,-3.138 6.265,-3.179 6.318,-3.197 6.374,-3.214 6.312,-3.272 6.207,-3.277 6.103,-3.284 6.054,-3.277 5.974,-3.328 5.891,-3.374 5.782,-3.389 5.691,-3.357 5.597,-3.328 5.55,-3.328 5.449,-3.362 5.353,-3.4 5.185,-3.421 5.1,-3.426 5.014,-3.432 4.982,-3.426 4.883,-3.461 4.784,-3.499 4.748,-3.513 4.631,-3.556 4.515,-3.598 4.459,-3.622 4.38,-3.643 4.3,-3.659 4.285,-3.708 4.171,-3.77 4.053,-3.833 3.949,-3.863 3.849,-3.929 3.752,-3.997 3.764,-4.035 3.842,-4.046 c 0.081,-0.014 0.111,-0.03 0.179,0.004 0.067,0.04 0.274,0.045 0.325,0.063 0.056,0.019 0.107,0.014 0.188,0.057 0.078,0.042 0.134,0.022 0.25,0.066 0.119,0.042 0.211,0.006 0.291,0.038 0.079,0.028 0.07,0.036 0.191,0.054 0.123,0.018 0.135,0.043 0.252,0.029 0.118,-0.011 0.179,-0.04 0.279,-0.035 0.094,0.006 0.27,-0.037 0.337,-0.02 0.069,0.02 0.199,-0.028 0.29,0.008 0.089,0.036 0.221,0.024 0,-0.118 M 7.858,2.936 C 7.811,2.926 7.802,2.926 7.804,2.844 7.811,2.77 7.811,2.738 7.787,2.704 7.758,2.671 7.745,2.591 7.745,2.591 c 0,0 -0.016,-0.054 0.007,-0.118 C 7.773,2.41 7.745,2.379 7.778,2.32 7.811,2.254 7.87,2.135 7.778,2.196 7.688,2.26 7.71,2.248 7.639,2.302 7.567,2.361 7.472,2.41 7.461,2.473 7.455,2.537 7.477,2.579 7.407,2.625 7.337,2.677 7.337,2.65 7.27,2.753 7.207,2.859 7.101,2.961 7.036,3.028 6.974,3.098 6.862,3.211 6.798,3.256 6.735,3.296 6.726,3.319 6.642,3.348 6.557,3.373 6.496,3.348 6.453,3.402 6.412,3.46 6.398,3.475 6.291,3.475 6.185,3.475 6.255,3.338 6.321,3.296 6.382,3.256 6.433,3.207 6.482,3.164 6.533,3.121 6.61,3.044 6.63,2.979 6.651,2.918 6.639,2.909 6.728,2.839 6.822,2.77 6.899,2.732 6.953,2.655 7.009,2.579 7.067,2.6 7.097,2.52 7.124,2.445 7.149,2.431 7.185,2.353 7.22,2.277 7.207,2.205 7.27,2.141 7.337,2.077 7.484,1.872 7.349,1.916 7.266,1.916 7.201,1.893 7.073,1.901 6.948,1.909 6.855,1.887 6.785,1.951 6.712,2.013 6.54,2.085 6.468,2.135 6.398,2.184 6.199,2.275 6.171,2.325 6.144,2.374 6.015,2.463 5.961,2.52 5.904,2.579 5.875,2.591 5.827,2.683 5.776,2.775 5.741,2.823 5.693,2.887 5.641,2.951 5.593,2.988 5.587,3.092 5.578,3.198 5.636,3.193 5.544,3.283 5.453,3.373 5.346,3.39 5.338,3.508 5.331,3.627 5.359,3.655 5.312,3.726 5.261,3.798 5.24,3.821 5.205,3.938 5.171,4.06 5.163,4.073 5.128,4.191 5.093,4.312 5.087,4.34 5.049,4.417 5.016,4.495 5.02,4.463 4.979,4.635 4.937,4.814 4.867,4.834 5.009,4.834 5.151,4.834 5.218,4.814 5.331,4.798 5.445,4.786 5.693,4.75 5.763,4.706 5.832,4.664 5.873,4.587 5.994,4.575 6.114,4.558 6.255,4.496 6.412,4.463 6.568,4.422 6.557,4.417 6.63,4.363 6.702,4.305 6.761,4.276 6.839,4.27 6.919,4.264 6.993,4.207 7.065,4.128 7.137,4.051 7.161,4.017 7.207,3.931 7.256,3.846 7.321,3.79 7.37,3.763 7.417,3.734 7.477,3.651 7.505,3.584 7.53,3.52 7.582,3.396 7.639,3.381 7.694,3.368 7.702,3.283 7.745,3.218 7.787,3.155 7.839,3.057 7.87,3.052 7.897,3.044 7.897,2.951 7.858,2.936 M 0.119,0.686 C 0.138,0.789 0.18,0.824 0.259,0.902 0.335,0.978 0.536,1.005 0.596,1.075 0.655,1.144 0.751,1.154 0.822,1.23 0.892,1.31 0.9,1.326 1.02,1.351 1.139,1.378 1.296,1.455 1.34,1.483 1.383,1.507 1.445,1.535 1.532,1.561 1.62,1.587 1.75,1.567 1.842,1.613 1.937,1.657 1.896,1.577 1.99,1.567 2.086,1.561 2.31,1.577 2.457,1.613 2.603,1.648 2.916,1.663 2.995,1.648 3.074,1.628 3.143,1.577 3.213,1.613 3.282,1.648 3.375,1.62 3.542,1.561 3.705,1.498 4.235,1.274 4.406,1.212 4.58,1.154 4.57,1.091 4.664,1.057 4.76,1.022 4.83,0.978 4.926,0.902 5.019,0.824 4.926,0.78 5.013,0.713 5.1,0.641 5.073,0.608 5.185,0.505 5.297,0.399 5.307,0.303 5.332,0.2 5.357,0.098 5.462,-0.026 5.349,0.054 5.239,0.132 5.185,0.192 5.031,0.209 4.874,0.225 4.631,0.322 4.423,0.356 4.214,0.392 3.965,0.426 3.851,0.478 3.71,0.544 3.271,0.66 3.134,0.676 2.995,0.693 2.886,0.686 2.78,0.713 2.666,0.737 2.646,0.729 2.519,0.729 2.388,0.729 2.23,0.676 2.154,0.66 2.077,0.641 1.949,0.72 1.913,0.633 1.878,0.547 1.85,0.478 1.763,0.529 1.68,0.581 1.556,0.633 1.592,0.538 1.626,0.442 1.61,0.373 1.61,0.331 1.61,0.286 1.731,0.278 1.799,0.296 1.869,0.311 2.025,0.339 2.128,0.322 2.23,0.303 2.382,0.286 2.509,0.339 2.639,0.392 2.689,0.338 2.812,0.311 2.935,0.286 3.004,0.365 3.064,0.269 3.123,0.175 3.222,0.14 3.367,0.163 3.515,0.192 3.661,0.14 3.774,0.098 3.885,0.054 4.094,-0.026 4.223,-0.051 4.354,-0.075 4.554,-0.176 4.674,-0.224 4.795,-0.275 4.883,-0.407 4.977,-0.39 5.073,-0.371 5.08,-0.381 5.185,-0.415 5.289,-0.447 5.445,-0.51 5.168,-0.613 4.893,-0.717 4.76,-0.752 4.684,-0.796 4.604,-0.837 4.44,-0.915 4.38,-0.967 4.319,-1.02 4.199,-0.967 4.06,-0.98 3.921,-0.985 3.756,-1.02 3.637,-1.063 3.515,-1.108 3.348,-1.125 3.227,-1.142 3.106,-1.159 3.021,-1.193 2.924,-1.125 c -0.094,0.07 -0.485,0.21 -0.648,0.21 -0.164,0 -0.26,0.059 -0.277,0.085 -0.018,0.025 -0.157,0.078 -0.157,0.078 0,0 -0.13,0.033 -0.162,0.051 -0.038,0.02 -0.195,0.079 -0.195,0.079 l -0.138,0.068 c 0,0 -0.101,0.095 -0.214,0.173 C 1.02,-0.302 1.045,-0.268 0.95,-0.215 0.856,-0.162 0.822,-0.095 0.734,-0.041 0.647,0.01 0.542,0.01 0.561,0.07 0.577,0.132 0.508,0.215 0.458,0.225 0.405,0.235 0.354,0.235 0.31,0.286 0.266,0.339 0.265,0.39 0.259,0.45 0.251,0.512 0.067,0.563 0.119,0.686"
             style="fill:#093158;fill-opacity:1;fill-rule:nonzero;stroke:none"
             id="path838"
             inkscape:connector-curvature="0" />
        </g>
        <g
           id="g840"
           transform="translate(620.5013,66.4251)">
          <path
             d="m 0,0 c 0.095,-0.04 0.138,-0.094 0.168,-0.176 0.035,-0.081 0.023,-0.056 0.092,-0.018 0.068,0.037 0.086,-0.008 0.161,0 0.075,0.006 0.104,-0.046 0.197,0.018 0.091,0.06 0.064,0.094 0.056,0.171 C 0.666,0.071 0.668,0.082 0.705,0.15 0.744,0.219 0.731,0.243 0.722,0.328 0.716,0.41 0.654,0.42 0.605,0.49 0.552,0.56 0.516,0.571 0.463,0.584 0.404,0.596 0.373,0.623 0.288,0.623 0.208,0.623 0.158,0.634 0.077,0.591 -0.007,0.547 -0.024,0.527 -0.063,0.464 -0.098,0.402 -0.134,0.358 -0.134,0.276 -0.137,0.257 -0.151,0.232 -0.156,0.163 -0.162,0.093 -0.092,0.038 0,0"
             style="fill:#093158;fill-opacity:1;fill-rule:nonzero;stroke:none"
             id="path842"
             inkscape:connector-curvature="0" />
        </g>
        <g
           id="g844"
           transform="translate(625.3327,63.5924)">
          <path
             d="m 0,0 c 0.095,-0.111 0.165,-0.083 0.264,-0.083 0.102,0 0.076,-0.037 0.109,0.043 C 0.404,0.044 0.424,0.012 0.517,0.054 0.609,0.102 0.6,0.113 0.609,0.195 0.625,0.276 0.604,0.32 0.592,0.402 0.584,0.482 0.554,0.494 0.498,0.546 0.442,0.596 0.428,0.59 0.396,0.647 0.366,0.703 0.305,0.684 0.253,0.722 0.201,0.76 0.17,0.76 0.121,0.729 0.069,0.697 0.037,0.689 -0.024,0.663 -0.086,0.639 -0.105,0.633 -0.097,0.585 -0.094,0.533 -0.112,0.521 -0.151,0.459 -0.187,0.395 -0.191,0.402 -0.191,0.309 -0.173,0.183 -0.173,0.239 -0.132,0.142 -0.086,0.049 -0.094,0.113 0,0"
             style="fill:#093158;fill-opacity:1;fill-rule:nonzero;stroke:none"
             id="path846"
             inkscape:connector-curvature="0" />
        </g>
        <g
           id="g848"
           transform="translate(629.0656,61.7368)">
          <path
             d="m 0,0 c -0.046,0.09 -0.029,0.156 -0.143,0.163 -0.116,0.008 -0.116,0 -0.19,-0.035 -0.074,-0.038 -0.085,0.023 -0.159,0.065 -0.074,0.044 -0.136,0.113 -0.226,0.161 -0.089,0.041 -0.267,0.13 -0.38,0.206 -0.111,0.074 -0.127,0.082 -0.237,0.06 -0.116,-0.023 -0.135,0.049 -0.206,0.095 -0.075,0.046 -0.172,0.062 -0.257,0.09 -0.079,0.03 -0.2,0 -0.267,0.043 -0.069,0.048 -0.078,0.054 -0.211,0.01 -0.133,-0.048 -0.271,0.029 -0.402,0.029 -0.132,0 -0.337,-0.029 -0.454,-0.01 -0.12,0.025 -0.5,-0.035 -0.611,-0.029 C -3.854,0.858 -4.028,0.789 -4.151,0.744 -4.28,0.702 -4.235,0.693 -4.323,0.606 -4.412,0.515 -4.444,0.574 -4.549,0.553 -4.652,0.53 -4.573,0.611 -4.677,0.574 -4.794,0.536 -4.822,0.484 -4.889,0.434 -4.957,0.381 -4.995,0.354 -5.117,0.312 -5.234,0.274 -5.382,0.119 -5.475,-0.007 -5.563,-0.132 -5.557,-0.111 -5.63,-0.246 -5.704,-0.38 -5.718,-0.386 -5.778,-0.509 -5.838,-0.627 -5.852,-0.67 -5.921,-0.752 -5.987,-0.836 -6.007,-0.813 -6.101,-0.895 -6.191,-0.976 -6.151,-0.954 -6.219,-0.997 -6.282,-1.044 -6.33,-1.05 -6.388,-1.05 -6.45,-1.05 -6.471,-1.11 -6.54,-1.184 -6.605,-1.257 -6.59,-1.238 -6.665,-1.297 -6.739,-1.356 -6.739,-1.334 -6.808,-1.356 -6.874,-1.378 -6.85,-1.431 -6.928,-1.484 -7,-1.535 -7.038,-1.549 -7.076,-1.602 c -0.032,-0.054 -0.045,0.014 -0.108,-0.007 -0.069,-0.023 -0.115,-0.125 -0.155,-0.194 -0.048,-0.068 -0.087,-0.044 -0.163,-0.053 -0.075,-0.006 -0.066,-0.029 -0.109,-0.113 -0.046,-0.079 -0.054,-0.064 -0.098,-0.102 -0.044,-0.039 -0.06,-0.009 -0.165,-0.053 -0.104,-0.044 -0.134,-0.075 -0.148,-0.112 -0.014,-0.038 -0.078,-0.088 -0.17,-0.14 -0.09,-0.053 -0.166,-0.135 -0.255,-0.216 -0.091,-0.083 -0.389,-0.327 -0.5,-0.478 -0.113,-0.149 -0.15,-0.09 -0.223,-0.179 -0.076,-0.087 -0.163,-0.14 -0.277,-0.298 -0.111,-0.155 -0.114,-0.141 -0.161,-0.185 -0.104,-0.106 -0.094,-0.102 -0.215,-0.237 -0.12,-0.133 -0.079,-0.121 -0.168,-0.203 -0.093,-0.082 -0.059,-0.168 -0.202,0.028 -0.046,0.056 -0.05,0.111 -0.096,0.186 -0.042,0.076 -0.09,0.024 -0.09,0.114 0,0.089 -0.041,0.125 -0.111,0.238 -0.063,0.112 -0.057,0.073 -0.015,0.155 0.048,0.083 0.039,0.076 0.133,0.172 0.101,0.098 0.135,0.172 0.182,0.269 0.045,0.097 0.088,0.172 0.15,0.305 0.059,0.136 0.072,0.126 0.065,0.232 -0.006,0.104 -0.013,0.112 0.06,0.134 0.074,0.022 0.144,0.171 0.252,0.253 0.113,0.082 0.157,0.187 0.21,0.312 0.052,0.126 0.115,0.25 0.213,0.385 0.1,0.132 0.124,0.146 0.224,0.207 0.095,0.06 0.2,0.227 0.29,0.298 0.089,0.075 0.197,0.107 0.26,0.076 0.068,-0.029 0.07,-0.04 0.162,-0.034 0.089,0.006 0.094,-0.006 0.132,-0.074 0.039,-0.066 0.136,0 0.188,0.051 0.051,0.052 0.079,0.061 0.215,0.105 0.136,0.041 0.114,-0.038 0.18,0.035 0.068,0.076 0.163,0.212 0.296,0.287 0.135,0.072 0.302,0.305 0.374,0.438 0.075,0.134 0.352,0.419 0.411,0.505 0.058,0.091 0.158,0.173 0.273,0.284 0.12,0.113 0.151,0.215 0.248,0.418 0.097,0.203 0.135,0.24 0.179,0.381 0.044,0.14 0.018,0.092 0.084,0.226 0.068,0.134 0.026,0.193 0.012,0.277 -0.016,0.082 -0.014,0.146 -0.006,0.249 0.008,0.105 0.036,0.165 0.074,0.253 0.038,0.089 0.024,0.128 -0.006,0.178 -0.032,0.053 -0.054,0.107 -0.032,0.181 0.026,0.074 -0.022,0.133 -0.05,0.177 -0.03,0.046 0,0.097 0,0.194 0,0.099 -0.02,0.122 -0.097,0.203 C -5.904,3.61 -5.904,3.584 -5.944,3.668 -5.986,3.75 -6.001,3.816 -6.119,3.894 -6.236,3.97 -6.235,3.883 -6.341,3.792 -6.45,3.703 -6.464,3.711 -6.542,3.711 -6.615,3.711 -6.631,3.652 -6.755,3.595 -6.881,3.536 -6.896,3.511 -7.046,3.381 -7.196,3.245 -7.172,3.312 -7.279,3.261 -7.386,3.214 -7.401,3.229 -7.549,3.122 -7.701,3.014 -7.749,3.057 -7.933,2.915 -8.116,2.775 -8.173,2.808 -8.29,2.666 -8.404,2.528 -8.414,2.542 -8.438,2.418 c -0.024,-0.123 0,-0.034 0,-0.099 0,-0.066 -0.072,-0.082 -0.133,-0.216 C -8.628,1.971 -8.651,2.029 -8.612,1.904 -8.571,1.78 -8.667,1.848 -8.768,1.762 -8.816,1.72 -8.876,1.706 -8.903,1.541 -8.928,1.374 -8.961,1.426 -8.994,1.275 -9.025,1.126 -8.994,1.196 -9.016,1.153 -9.04,1.11 -9.035,1.11 -9.051,1.036 -9.066,0.961 -9.025,0.994 -9.075,0.918 -9.125,0.844 -9.157,0.835 -9.165,0.744 -9.176,0.655 -9.193,0.631 -9.216,0.586 -9.241,0.547 -9.259,0.538 -9.259,0.455 c 0,-0.084 0.018,-0.115 0,-0.174 -0.015,-0.057 -0.015,-0.165 0,-0.222 C -9.241,0 -9.266,-0.067 -9.266,-0.15 c 0,-0.081 -0.008,-0.106 -0.008,-0.106 0,0 -0.015,-0.049 0,-0.091 0.015,-0.043 0.066,-0.026 0.074,-0.059 0.007,-0.032 0.024,-0.131 0.007,-0.173 -0.015,-0.041 -0.066,-0.077 -0.131,-0.134 -0.067,-0.057 -0.149,-0.205 -0.201,-0.288 -0.046,-0.083 -0.089,-0.141 -0.155,-0.301 -0.064,-0.157 -0.125,-0.189 -0.143,-0.254 -0.012,-0.068 0,-0.076 -0.072,-0.14 -0.075,-0.068 -0.073,-0.051 -0.131,-0.084 -0.06,-0.033 -0.044,-0.067 -0.126,-0.14 -0.084,-0.076 -0.091,-0.101 -0.131,-0.217 -0.042,-0.116 -0.102,-0.18 -0.142,-0.264 -0.041,-0.083 -0.058,-0.083 -0.083,-0.2 -0.023,-0.114 -0.068,-0.108 -0.159,-0.172 -0.09,-0.066 -0.072,-0.059 -0.156,-0.135 -0.085,-0.073 -0.033,0.093 -0.033,0.209 0,0.116 -0.022,0.107 -0.006,0.207 0.014,0.096 -0.025,0.096 -0.054,0.175 -0.022,0.074 0.018,0.128 -0.033,0.194 -0.053,0.068 -0.003,0.085 0.025,0.077 0.037,-0.006 0.046,0.068 0.046,0.068 l -0.009,0.116 c 0,0 -0.044,0.107 -0.051,0.157 -0.008,0.049 0.007,0.129 0.03,0.2 0.03,0.067 0.038,0.116 0,0.19 -0.03,0.075 -0.016,0.081 0.03,0.189 0.039,0.107 0.009,0.173 0.009,0.254 0,0.094 -0.009,0.132 0.007,0.185 0.02,0.069 0.039,0.15 0.023,0.19 -0.017,0.042 -0.009,0.076 -0.023,0.192 -0.016,0.117 -0.005,0.135 0.01,0.249 0.018,0.174 -0.026,0.168 0.022,0.295 0.049,0.126 0,0.084 0.041,0.326 0.042,0.24 0.008,0.138 0.102,0.207 0.091,0.063 0.111,0.164 0.23,0.296 0.116,0.133 0.064,0.15 0.124,0.182 0.058,0.033 0.09,0.076 0.181,0.183 0.092,0.108 0.082,0.074 0.142,0.124 0.056,0.048 0.082,0.066 0.099,0.144 0.016,0.071 0.067,0.178 0.088,0.27 0.027,0.09 0.068,0.157 0.119,0.23 0.048,0.075 0.076,0.133 0.059,0.2 -0.018,0.068 -0.011,0.151 0.017,0.24 0.024,0.091 0.04,0.101 0.024,0.183 -0.016,0.083 -0.01,0.115 0.016,0.222 0.025,0.108 0.007,0.127 0.025,0.215 0.014,0.093 0.05,0.109 0.038,0.161 -0.008,0.046 0,0.12 -0.008,0.23 -0.007,0.107 0.037,0.14 0.02,0.242 -0.02,0.097 0,0.14 0.007,0.239 0.011,0.1 -0.019,0.148 -0.027,0.256 -0.007,0.11 -0.048,0.173 -0.081,0.241 -0.031,0.064 -0.066,0.164 -0.09,0.204 -0.026,0.043 -0.065,0.135 -0.075,0.193 -0.006,0.055 -0.006,0.058 -0.048,0.15 -0.044,0.091 -0.101,0.14 -0.16,0.254 -0.055,0.119 -0.031,0.153 -0.099,0.217 -0.064,0.066 -0.091,0.072 -0.126,0.158 -0.031,0.082 -0.121,0.156 -0.173,0.222 -0.048,0.067 -0.033,0.108 -0.107,0.141 -0.075,0.034 -0.084,0.149 -0.089,0.217 -0.01,0.068 -0.116,0.188 -0.194,0.248 -0.071,0.059 -0.103,0.091 -0.141,0.149 -0.03,0.054 -0.03,0.097 -0.015,0.181 0.015,0.083 -0.047,0.149 -0.089,0.242 -0.039,0.09 -0.134,0.005 -0.193,-0.027 -0.058,-0.033 -0.103,-0.108 -0.139,-0.166 -0.032,-0.056 0,-0.109 -0.01,-0.198 -0.007,-0.09 -0.055,-0.13 -0.1,-0.181 -0.039,-0.052 -0.099,-0.132 -0.099,-0.132 0,0 -0.081,-0.116 -0.122,-0.192 -0.042,-0.075 -0.098,-0.126 -0.158,-0.157 -0.061,-0.033 0,-0.051 -0.098,-0.175 -0.103,-0.12 -0.11,-0.172 -0.183,-0.291 -0.074,-0.113 -0.15,-0.229 -0.191,-0.304 -0.038,-0.073 -0.066,-0.215 -0.098,-0.28 -0.036,-0.068 -0.118,-0.144 -0.118,-0.144 l -0.066,-0.114 -0.023,-0.183 c 0,0 -0.082,-0.207 -0.146,-0.338 -0.069,-0.135 -0.02,-0.079 -0.02,-0.079 0,0 -0.006,-0.083 -0.049,-0.173 -0.042,-0.09 -0.03,-0.107 -0.048,-0.222 -0.016,-0.115 -0.016,-0.198 -0.005,-0.294 0.011,-0.095 -0.011,-0.126 -0.047,-0.257 -0.035,-0.132 -0.02,-0.089 0.015,-0.149 0.029,-0.06 0.021,-0.042 0.029,-0.09 0.003,-0.049 0.04,-0.131 0.053,-0.184 0.008,-0.055 0.046,-0.162 0.072,-0.205 0.02,-0.042 0.013,-0.089 0.016,-0.166 0.004,-0.079 -0.012,-0.097 0.058,-0.145 0.074,-0.049 0.006,-0.084 0.006,-0.174 0,-0.088 -0.012,-0.083 0,-0.166 0.014,-0.086 0.038,-0.067 0.09,-0.131 0.055,-0.066 0.06,-0.045 0.06,-0.097 0,-0.053 -0.016,-0.047 0.013,-0.119 0.034,-0.073 0.053,-0.097 0.097,-0.175 0.041,-0.077 0.059,-0.126 0.101,-0.19 0.043,-0.067 0.072,-0.01 0.103,-0.067 0.027,-0.053 0.094,-0.088 0.171,-0.156 0.078,-0.065 0.105,-0.059 0.175,-0.065 0.072,-0.006 0.11,-0.027 0.178,-0.022 0.063,0.005 0.116,0.028 0.183,0.048 0.062,0.018 -0.008,0.129 -0.052,0.204 -0.042,0.071 -0.056,0.093 -0.092,0.171 -0.045,0.077 -0.026,0.107 -0.063,0.131 -0.036,0.024 -0.069,-0.035 -0.082,-0.005 -0.016,0.029 -0.048,0.058 -0.106,0.099 -0.052,0.044 -0.097,0.087 -0.165,0.111 -0.064,0.023 -0.095,0.111 -0.135,0.16 -0.043,0.048 -0.018,0.09 -0.025,0.142 -0.006,0.055 -0.018,0.098 -0.025,0.174 -0.006,0.08 0,0.113 -0.03,0.14 -0.031,0.021 -0.035,0.088 -0.095,0.16 -0.062,0.071 -0.085,0.049 -0.052,0.108 0.026,0.059 0.032,0.107 0.028,0.235 -0.006,0.125 -0.043,0.132 -0.066,0.232 -0.023,0.102 -0.061,0.042 -0.116,0.155 -0.051,0.114 0.022,0.133 0.055,0.317 0.038,0.186 -0.005,0.072 0.038,0.161 0.04,0.09 0.046,0.109 0.113,0.193 0.064,0.083 0.044,0.112 0.088,0.228 0.049,0.114 0.062,0.183 0.102,0.293 0.045,0.105 0.056,0.072 0,0.148 -0.053,0.079 0.051,0.079 0.128,0.095 0.076,0.02 0.076,0.067 0.099,0.155 0.027,0.091 0.07,0.121 0.125,0.243 0.058,0.118 0.063,0.118 0.091,0.208 0.03,0.087 0.087,0.135 0.177,0.212 0.086,0.082 0.06,0.085 0.072,0.129 0.008,0.039 -0.012,0.053 0.043,0.117 0.062,0.067 0.051,0.072 0.108,0.141 0.059,0.064 0.091,0.113 0.197,0.227 0.107,0.113 0.07,0.05 0.076,0.005 0.022,-0.047 0.022,-0.072 0.065,-0.168 0.054,-0.096 0.048,-0.064 0.074,-0.118 0.027,-0.056 0.064,-0.109 0.068,-0.165 0.006,-0.052 0.042,-0.125 0.076,-0.168 0.037,-0.042 0.1,-0.14 0.13,-0.184 0.039,-0.038 0.059,-0.053 0.068,-0.091 0.013,-0.035 0.029,-0.095 0.066,-0.194 0.034,-0.103 0.09,-0.126 0.129,-0.282 0.03,-0.156 0.082,-0.162 0.142,-0.267 0.058,-0.11 0.046,-0.141 0.066,-0.29 0.016,-0.151 0.022,-0.162 0.04,-0.293 0.019,-0.132 0.047,-0.065 0.054,-0.153 0.005,-0.09 0,-0.158 0.025,-0.246 0.024,-0.088 0.012,-0.127 0,-0.265 -0.014,-0.137 0.036,-0.127 0.054,-0.197 0.018,-0.072 0.018,-0.227 0,-0.302 -0.018,-0.068 -0.036,-0.07 -0.05,-0.154 -0.012,-0.082 -0.024,-0.167 0.014,-0.252 0.034,-0.081 0.018,-0.077 -0.054,-0.136 -0.073,-0.059 -0.083,-0.064 -0.161,-0.142 -0.08,-0.078 -0.098,-0.103 -0.146,-0.179 -0.047,-0.078 -0.09,-0.116 -0.122,-0.15 -0.038,-0.037 -0.073,-0.027 -0.155,-0.134 -0.087,-0.108 -0.075,0.024 -0.087,0.115 -0.013,0.089 -0.03,0.068 -0.071,0.132 -0.041,0.065 0.006,0.03 -0.056,0.071 -0.056,0.042 -0.04,0.067 -0.084,0.133 -0.041,0.066 -0.032,0.058 -0.049,0.142 -0.009,0.087 -0.039,0.102 -0.049,0.127 -0.023,0.021 -0.028,0.058 0.01,0.131 0.047,0.073 0.021,0.06 0.025,0.142 0.005,0.086 0.005,0.062 -0.028,0.106 -0.015,0.051 -0.061,0.082 -0.107,0.129 -0.035,0.048 -0.049,0.048 -0.023,0.133 0.032,0.081 0.032,0.131 0.044,0.201 0.012,0.073 0.016,0.089 0.044,0.132 0.029,0.044 0.026,0.09 0,0.129 -0.019,0.033 -0.037,0.074 -0.074,0.14 -0.024,0.068 -0.032,0.072 -0.088,0.023 -0.045,-0.049 -0.069,-0.083 -0.079,-0.184 -0.01,-0.103 -0.01,-0.09 -0.061,-0.156 -0.049,-0.067 -0.053,-0.113 -0.1,-0.215 -0.046,-0.101 -0.026,-0.096 -0.026,-0.215 0,-0.121 0,-0.095 -0.006,-0.197 -0.004,-0.102 0.012,-0.095 0.023,-0.176 0.015,-0.075 0.037,-0.04 0.049,-0.129 0.013,-0.091 0.029,-0.114 0.029,-0.193 0,-0.076 0.031,-0.094 0.069,-0.226 0.033,-0.133 0.044,-0.155 0.079,-0.264 0.026,-0.108 0.045,-0.269 0.065,-0.365 0.02,-0.096 0.038,-0.118 0.044,-0.196 0.002,-0.077 -0.018,-0.068 -0.044,-0.168 -0.035,-0.102 0,-0.082 0.006,-0.167 0.008,-0.083 0.032,-0.047 0.032,-0.138 0,-0.091 -0.038,-0.037 -0.087,-0.16 -0.051,-0.127 -0.006,-0.088 -0.006,-0.187 0,-0.097 -0.006,-0.509 -0.01,-0.572 -0.006,-0.092 0.037,-0.249 0.01,-0.295 -0.032,-0.048 -0.05,-0.438 -0.045,-0.519 0.007,-0.086 -0.031,-0.266 -0.021,-0.338 0.01,-0.071 0.004,-0.094 -0.018,-0.155 -0.023,-0.06 -0.012,-0.071 -0.016,-0.147 -0.007,-0.08 0.016,-0.366 0.004,-0.419 -0.011,-0.056 -0.019,-0.056 -0.004,-0.123 0.011,-0.063 0.004,-0.058 -0.037,-0.135 -0.045,-0.079 0.018,-0.072 0.037,-0.168 0.018,-0.097 0.004,-0.126 -0.027,-0.239 -0.031,-0.115 0.043,-0.139 0.051,-0.228 0.005,-0.091 0.054,-0.125 0.038,-0.227 -0.013,-0.101 0,-0.138 -0.024,-0.209 -0.022,-0.072 0.117,-0.037 0.123,-0.124 0.008,-0.095 0.038,-0.14 0.049,-0.235 0.015,-0.096 0.046,-0.091 0.144,-0.125 0.102,-0.037 0.054,-0.024 0.054,-0.113 0,-0.091 0.006,-0.091 0.028,-0.206 0.016,-0.113 0.02,-0.045 0.05,-0.125 0.034,-0.076 0.027,-0.084 0.05,-0.15 0.022,-0.065 0.114,-0.077 0.17,-0.197 0.049,-0.118 0.043,-0.075 0.117,-0.131 0.07,-0.052 0.07,-0.06 0.102,-0.166 0.03,-0.108 0.074,-0.132 0.15,-0.128 0.075,0.006 0.112,0.035 0.093,-0.13 -0.018,-0.169 -0.027,-0.133 -0.105,-0.3 -0.08,-0.167 -0.07,-0.149 -0.083,-0.257 -0.013,-0.109 0.037,-0.122 0.123,-0.281 0.084,-0.16 0.033,-0.127 0.022,-0.256 -0.016,-0.134 -0.034,-0.119 0.011,-0.218 0.038,-0.093 0.021,-0.071 -0.027,-0.208 -0.046,-0.137 -0.024,-0.121 -0.018,-0.244 0.006,-0.128 0.034,-0.085 -0.006,-0.253 -0.036,-0.167 -0.036,-0.16 -0.078,-0.282 -0.042,-0.121 0.018,-0.04 0.056,-0.121 0.034,-0.076 -0.028,-0.111 -0.05,-0.267 -0.02,-0.157 -0.033,-0.143 -0.042,-0.289 -0.006,-0.142 0.028,-0.103 0.012,-0.235 -0.012,-0.135 -0.035,-0.163 -0.053,-0.278 -0.02,-0.112 -0.026,-0.148 -0.013,-0.315 0.013,-0.17 -0.013,-0.161 -0.029,-0.268 -0.018,-0.11 -0.012,-0.074 0.029,-0.159 0.043,-0.082 0.043,-0.099 0.013,-0.25 -0.031,-0.148 -0.013,-0.124 -0.02,-0.214 -0.006,-0.089 0.015,-0.073 -0.017,-0.217 -0.027,-0.142 0.017,-0.15 0.006,-0.234 -0.011,-0.083 -0.011,-0.082 0.011,-0.231 0.026,-0.151 0.015,-0.187 -0.022,-0.294 -0.035,-0.107 -0.008,-0.079 0.022,-0.263 0.033,-0.188 -0.03,-0.443 -0.022,-0.737 0.005,-0.291 0,-0.255 -0.008,-0.432 -0.006,-0.169 0,-0.112 -0.014,-0.201 -0.019,-0.089 0.014,-0.072 0.051,-0.135 0.038,-0.056 0.026,-0.088 0.013,-0.207 -0.013,-0.116 0,-0.075 -0.031,-0.18 -0.029,-0.099 0.031,-0.047 0.061,-0.168 0.033,-0.118 0.011,-0.147 0.044,-0.278 0.027,-0.13 0.027,-0.102 0.053,-0.157 0.024,-0.053 0.006,-0.058 -0.04,-0.132 -0.037,-0.072 -0.004,-0.065 0.08,-0.145 0.084,-0.075 0.049,-0.068 0.115,-0.14 0.066,-0.075 0.023,-0.048 0,-0.079 -0.025,-0.03 -0.071,-0.03 -0.031,-0.075 0.042,-0.05 0.06,-0.062 0.113,-0.123 0.068,0.047 0.118,0.024 0.152,0.024 0.039,0 0.092,0 0.183,-0.061 0.085,-0.061 0.093,-0.023 0.192,-0.051 0.098,-0.032 0.217,-0.098 0.259,-0.135 0.046,-0.037 0.199,-0.037 0.321,-0.06 0.119,-0.021 0.089,0.053 0.038,0.173 -0.053,0.118 0.005,0.15 -0.01,0.268 -0.014,0.119 -0.043,0.125 -0.113,0.231 -0.078,0.102 -0.07,0.112 -0.07,0.178 0,0.066 0,0.08 -0.052,0.157 -0.053,0.073 -0.053,0.127 -0.114,0.199 -0.061,0.077 -0.061,0.166 -0.14,0.278 -0.084,0.112 -0.062,0.117 -0.077,0.215 -0.013,0.099 0,0.135 0,0.294 0,0.153 -0.021,0.304 0.015,0.408 0.041,0.102 0.016,0.131 -0.028,0.17 -0.047,0.039 -0.047,0.129 -0.075,0.27 -0.031,0.14 -0.046,0.153 -0.08,0.319 -0.039,0.163 -0.031,0.125 -0.039,0.239 -0.007,0.111 -0.019,0.186 -0.059,0.296 -0.038,0.113 -0.031,0.172 -0.059,0.283 -0.031,0.113 0.015,0.134 0.077,0.202 0.055,0.068 0.014,0.113 0.004,0.216 -0.004,0.106 0,0.189 -0.004,0.296 -0.011,0.113 -0.011,0.13 0,0.203 0.004,0.074 0.004,0.129 0,0.209 -0.011,0.085 -0.011,0.106 0,0.216 0.004,0.111 -0.011,0.099 0.004,0.217 0.018,0.119 0.022,0.156 0.059,0.274 0.036,0.121 0.017,0.15 -0.008,0.317 -0.021,0.16 0.018,0.191 0.052,0.236 0.038,0.046 0.053,0.046 0.038,0.173 -0.016,0.126 0.024,0.134 0.015,0.216 -0.006,0.079 0.037,0.119 0.023,0.267 -0.014,0.15 0.037,0.156 0.113,0.262 0.074,0.102 0.064,0.124 0.036,0.163 -0.028,0.036 -0.03,0.08 -0.036,0.179 -0.007,0.097 0.036,0.097 0.012,0.2 -0.019,0.106 0,0.111 0,0.226 0,0.112 0.017,0.08 0.03,0.224 0.016,0.139 -0.006,0.163 0,0.258 0.008,0.099 0.022,0.143 0.085,0.208 0.057,0.067 0,0.113 -0.047,0.234 -0.044,0.117 -0.044,0.163 -0.097,0.296 -0.052,0.136 0,0.158 -0.016,0.262 -0.015,0.105 -0.043,0.095 -0.094,0.208 -0.055,0.111 -0.074,0.059 0.019,0.156 0.101,0.099 0.12,0.165 0.188,0.27 0.068,0.102 0.021,0.066 0.037,0.126 0.017,0.06 0.083,0.08 0.152,0.135 0.066,0.053 0.08,0.111 0.117,0.215 0.039,0.102 0.061,0.102 0.163,0.155 0.104,0.053 0.129,0.024 0.248,0.024 0.12,0 0.191,-0.008 0.275,-0.077 0.082,-0.065 0.105,-0.027 0.197,0.009 0.087,0.039 0.14,0.032 0.226,-0.009 0.089,-0.037 0.114,-0.037 0.235,-0.037 0.116,0 0.11,-0.044 0.177,-0.012 0.067,0.03 0.262,-0.044 0.35,-0.076 0.09,-0.03 0.06,-0.036 0.039,-0.139 -0.025,-0.108 0.021,-0.135 0.026,-0.212 0.009,-0.074 0.042,-0.102 0.031,-0.19 -0.006,-0.092 0.078,-0.121 0.12,-0.158 0.045,-0.035 0.115,-0.097 0.115,-0.187 0,-0.091 0.093,-0.142 0.14,-0.215 0.043,-0.076 0.194,-0.174 0.29,-0.294 0.097,-0.117 0.182,-0.14 0.252,-0.219 0.077,-0.086 0.135,-0.091 0.212,-0.13 0.073,-0.036 0.149,-0.127 0.243,-0.161 0.098,-0.039 0.189,-0.063 0.277,-0.091 0.088,-0.031 0.29,-0.091 0.39,-0.107 0.094,-0.012 0.169,-0.028 0.222,-0.043 0.053,-0.016 0.165,-0.031 0.208,-0.073 0.043,-0.045 0.948,-0.023 1.065,-0.039 0.122,-0.015 0.314,0.032 0.375,0.016 0.058,-0.015 0.236,0.047 0.289,0.072 0.05,0.032 0.283,0.115 0.385,0.099 0.108,-0.016 0.1,0.016 0.151,0.06 0.054,0.043 0.067,-0.008 0.083,0.074 0.015,0.082 -0.029,0.125 -0.126,0.193 -0.102,0.068 0,0.06 -0.046,0.119 -0.046,0.06 -0.022,0.075 -0.029,0.156 -0.007,0.084 0,0.106 0.007,0.224 0.008,0.12 -0.014,0.106 -0.081,0.165 -0.067,0.06 -0.077,0.076 -0.128,0.15 -0.052,0.073 0,0.081 -0.015,0.201 -0.015,0.119 -0.068,0.125 -0.141,0.199 -0.074,0.075 -0.074,0.105 -0.18,0.203 -0.105,0.096 -0.261,0.231 -0.32,0.259 -0.058,0.032 -0.05,0.149 -0.164,0.187 -0.11,0.039 -0.336,0.194 -0.395,0.231 -0.062,0.039 -0.349,0.132 -0.439,0.195 -0.09,0.058 -0.44,0.053 -0.546,0.064 -0.101,0.018 -0.444,0.076 -0.587,0.056 -0.141,-0.024 -0.173,-0.016 -0.277,-0.038 -0.104,-0.024 -0.229,-0.008 -0.371,-0.067 -0.141,-0.059 -0.293,0.009 -0.458,-0.015 -0.158,-0.023 -0.332,-0.008 -0.409,-0.023 -0.074,-0.016 -0.208,0 -0.275,0.015 -0.067,0.014 -0.171,0.066 -0.29,0.052 -0.12,-0.016 -0.235,0.044 -0.277,0.044 -0.039,0 -0.134,0.023 -0.166,0.023 -0.028,0 0.061,0.06 -0.183,0.036 -0.247,-0.02 -0.286,0.024 -0.202,0.069 0.082,0.046 0.089,0.138 0.187,0.209 0.097,0.065 0.177,0.125 0.279,0.222 0.093,0.1 0.115,0.143 0.175,0.194 0.059,0.053 0.18,0.166 0.194,0.194 0.014,0.029 0.014,0.095 0.1,0.172 0.079,0.073 0.235,0.164 0.31,0.223 0.074,0.06 0.148,0.163 0.23,0.192 0.083,0.033 0.106,0.047 0.181,0.113 0.074,0.068 0.142,0.113 0.438,0.247 0.299,0.134 0.222,0.068 0.308,-0.051 0.081,-0.12 0.149,-0.052 0.244,-0.12 0.096,-0.067 0.189,-0.135 0.296,-0.179 0.112,-0.045 0.202,-0.142 0.314,-0.194 0.114,-0.052 0.272,-0.015 0.415,0.014 0.139,0.029 0.167,0.038 0.288,0.091 0.119,0.05 0.147,-0.053 0.269,-0.053 0.118,0 0.217,-0.073 0.298,-0.067 0.08,0.007 0.246,-0.022 0.363,-0.031 0.12,-0.006 0.187,0.038 0.257,0.031 0.065,-0.006 0.319,0.021 0.415,0.102 0.094,0.086 0.07,0.062 0.221,0.12 0.156,0.061 0.182,0.106 0.343,0.197 0.165,0.088 0.345,0.101 0.509,0.17 0.167,0.066 0.181,0.148 0.313,0.154 0.135,0.008 0.169,0.12 0.363,0.263 0.197,0.14 0.547,0.505 0.65,0.582 0.104,0.071 0.192,0.118 0.314,0.184 C -0.022,-0.328 0,-0.283 0.06,-0.192 0.118,-0.106 0.041,-0.09 0,0 m -8.816,0.622 c 0.04,0.108 0.063,0.082 0.063,0.235 0,0.147 0,0.138 0.018,0.276 0.02,0.138 -0.023,0.074 0.044,0.194 0.07,0.12 0.07,0.158 0.145,0.208 0.076,0.05 0.108,0.093 0.12,0.144 0.012,0.049 0.034,0.088 0.127,0.137 0.093,0.051 0.124,-0.003 0.197,0.107 0.066,0.115 0.063,0.092 0.151,0.194 0.084,0.109 0.098,0.083 0.127,0.147 0.019,0.061 0.017,-0.033 0.115,0.042 0.1,0.077 0.116,0.095 0.179,0.158 0.06,0.064 0.119,0.039 0.231,0.196 0.115,0.156 0.223,0.232 0.352,0.294 0.126,0.062 0.153,0.044 0.259,0.159 0.098,0.112 0.124,0.041 0.23,0.128 0.108,0.09 0.131,0.272 0.171,0.135 0.037,-0.137 0.042,-0.108 0.09,-0.222 0.055,-0.113 0.072,-0.15 0.06,-0.2 -0.014,-0.052 -0.028,-0.087 0.018,-0.148 0.044,-0.064 -0.036,0.029 0,-0.142 C -6.081,2.495 -6.165,2.601 -5.987,2.401 -5.925,2.333 -6.019,2.175 -6.051,2.094 -6.081,2.012 -6.088,1.923 -6.119,1.835 -6.151,1.749 -6.081,1.792 -6.127,1.701 -6.169,1.604 -6.178,1.597 -6.227,1.52 -6.275,1.447 -6.309,1.396 -6.318,1.327 -6.334,1.259 -6.431,1.153 -6.453,1.075 -6.471,1 -6.444,0.994 -6.508,0.907 -6.569,0.816 -6.515,0.912 -6.621,0.825 -6.728,0.737 -6.75,0.718 -6.811,0.607 -6.874,0.494 -6.91,0.479 -6.968,0.403 -7.024,0.329 -7.024,0.305 -7.055,0.264 -7.088,0.229 -7.088,0.184 -7.177,0.102 -7.259,0.021 -7.293,0.092 -7.369,0.01 -7.446,-0.075 -7.426,-0.119 -7.52,-0.143 c -0.094,-0.024 -0.105,-0.054 -0.161,-0.119 -0.06,-0.065 -0.06,-0.065 -0.126,-0.096 -0.07,-0.032 -0.117,-0.054 -0.144,-0.075 -0.033,-0.017 -0.041,-0.061 -0.085,-0.022 -0.042,0.036 -0.056,0.005 -0.116,0.048 -0.054,0.042 -0.023,0.075 0,0.156 0.027,0.084 0.022,0.127 0.08,0.164 0.057,0.039 0.06,0.057 0.113,0.132 0.049,0.074 0.075,0.113 0.104,0.113 0.035,0 0.039,0.026 0.048,0.081 0.002,0.06 0.016,0.139 0.029,0.17 0.017,0.033 0.017,0.015 0.097,0.05 0.079,0.04 0.132,0.059 0.141,0.096 0.014,0.037 0,0.056 0.014,0.102 0.011,0.042 0.107,0.111 0.125,0.168 0.02,0.054 0.02,0.048 0.074,0.1 0.059,0.051 0.113,0.095 0.146,0.169 0.033,0.075 0.045,0.102 0.116,0.182 0.065,0.082 0.118,0.1 0.164,0.15 0.04,0.051 0.057,0.033 0.08,0.134 0.023,0.098 0.078,0.188 -0.06,0.125 C -7.02,1.623 -7.055,1.555 -7.13,1.497 -7.21,1.439 -7.33,1.321 -7.395,1.298 -7.458,1.271 -7.486,1.245 -7.571,1.158 -7.652,1.071 -7.704,1.031 -7.797,0.956 -7.89,0.879 -7.905,0.825 -7.951,0.793 -8.008,0.761 -8.032,0.73 -8.072,0.618 -8.119,0.502 -8.198,0.359 -8.276,0.259 -8.35,0.158 -8.361,0.097 -8.379,0.045 -8.4,-0.004 -8.414,-0.048 -8.526,-0.13 -8.639,-0.212 -8.72,-0.322 -8.788,-0.262 c -0.013,0.07 -0.02,0.089 -0.028,0.162 -0.006,0.077 0.008,0.11 0.022,0.164 0.01,0.055 0.006,0.044 0.01,0.183 0.008,0.139 -0.01,0.131 -0.038,0.206 -0.025,0.077 -0.032,0.065 0.006,0.169 m 2.247,-4.886 c 0.071,0.026 0.116,-0.017 0.195,-0.017 0.083,0 0.146,0 0.209,-0.022 0.066,-0.019 0.098,-0.046 0.204,-0.102 0.107,-0.058 0.159,-0.074 0.237,-0.1 0.08,-0.026 0.144,-0.066 0.203,-0.109 0.058,-0.048 0.12,-0.089 0.162,-0.172 0.049,-0.083 0.151,-0.041 0.218,-0.083 0.067,-0.05 0.142,-0.146 0.216,-0.205 0.071,-0.06 0.125,-0.066 0.191,-0.13 0.065,-0.067 0.122,-0.073 0.155,-0.112 0.035,-0.039 0.113,-0.022 0.186,-0.039 0.07,-0.022 0.113,-0.047 0.188,-0.008 0.074,0.04 -0.014,0.139 -0.064,0.132 -0.052,-0.005 -0.068,0 -0.101,0.091 -0.03,0.091 -0.043,0.086 -0.133,0.091 -0.083,0.007 -0.162,0.132 -0.231,0.184 -0.071,0.053 -0.191,0.144 -0.277,0.215 -0.084,0.075 -0.13,0.145 -0.183,0.151 -0.051,0.008 -0.072,0.074 -0.08,0.118 -0.006,0.046 -0.089,0.1 -0.169,0.111 -0.078,0.015 -0.197,0.119 -0.359,0.173 -0.166,0.049 -0.245,0.123 -0.113,0.143 0.132,0.018 0.23,-0.015 0.289,-0.025 0.059,-0.018 0.091,0.029 0.195,0.043 0.104,0.015 0.132,0.02 0.197,0.059 0.07,0.039 0.128,0.008 0.153,-0.025 0.023,-0.034 0.124,-0.014 0.203,-0.019 0.078,-0.008 0.148,-0.04 0.221,-0.029 0.071,0.014 0.191,-0.004 0.275,-0.047 0.084,-0.036 0.15,-0.036 0.251,-0.084 0.095,-0.043 0.179,-0.123 0.266,-0.162 0.086,-0.038 0.019,-0.07 0.009,-0.124 -0.015,-0.053 0.018,-0.032 0.093,-0.08 0.068,-0.044 0.115,-0.118 0.145,-0.15 0.033,-0.033 0.042,-0.039 0.042,-0.106 0,-0.064 0.08,-0.039 0.104,-0.055 0.027,-0.02 0.048,-0.081 0.048,-0.081 0,0 0.057,-0.046 0.064,-0.091 0.007,-0.045 0.043,-0.045 0.09,-0.103 0.049,-0.062 0.055,-0.099 0.089,-0.159 0.04,-0.06 0.086,-0.093 0.111,-0.147 0.019,-0.053 0.053,-0.105 0.053,-0.187 0,-0.079 0.073,-0.02 0.028,-0.094 -0.045,-0.073 -0.062,-0.029 -0.152,-0.044 -0.101,-0.017 -0.116,0.008 -0.15,-0.053 -0.037,-0.056 -0.051,-0.035 -0.105,-0.064 -0.052,-0.031 -0.094,-0.094 -0.155,-0.075 -0.058,0.015 -0.058,0.03 -0.12,-0.007 -0.06,-0.039 -0.042,-0.039 -0.133,-0.052 -0.087,-0.014 -0.162,0.03 -0.266,0 -0.104,-0.03 -0.259,0.021 -0.398,0.052 -0.142,0.027 -0.371,0.007 -0.497,0 -0.124,-0.012 -0.266,0.102 -0.354,0.14 -0.091,0.037 -0.091,0.088 -0.23,0.197 -0.141,0.111 -0.244,0.159 -0.364,0.241 -0.116,0.078 -0.236,0.161 -0.284,0.212 -0.043,0.054 -0.07,0.128 -0.121,0.23 -0.054,0.103 -0.105,0.148 -0.143,0.213 -0.037,0.069 -0.089,0.114 -0.127,0.173 -0.033,0.058 0,0.133 0.019,0.193 m 5.527,3.952 C -1.144,-0.428 -1.196,-0.494 -1.295,-0.578 -1.397,-0.659 -1.526,-0.792 -1.59,-0.841 -1.653,-0.89 -1.682,-0.966 -1.704,-1.01 c -0.018,-0.045 -0.055,-0.019 -0.15,-0.074 -0.093,-0.057 -0.16,-0.082 -0.245,-0.148 -0.087,-0.059 -0.133,-0.097 -0.205,-0.147 -0.072,-0.054 -0.051,-0.057 -0.197,-0.064 -0.145,-0.005 -0.22,0.007 -0.352,-0.032 -0.135,-0.038 -0.106,-0.044 -0.24,-0.012 -0.128,0.03 -0.343,-0.014 -0.351,-0.089 -0.006,-0.076 -0.042,-0.08 -0.099,-0.07 -0.057,0.014 -0.251,0.025 -0.333,0.046 -0.083,0.017 -0.138,0 -0.181,-0.032 -0.045,-0.029 -0.125,-0.02 -0.202,-0.014 -0.073,0.008 -0.062,-0.006 -0.119,0.046 -0.06,0.051 -0.166,0.007 -0.238,0 -0.076,-0.008 -0.051,0.044 -0.178,0.037 -0.125,-0.008 -0.236,0 -0.312,0.03 -0.08,0.032 -0.119,0.1 -0.227,0.09 -0.107,-0.014 -0.077,0.017 -0.123,0.064 -0.053,0.044 -0.079,-0.014 -0.123,0.054 -0.044,0.071 -0.075,0.113 -0.053,0.169 0.029,0.058 0.117,0.046 0.21,0.101 0.094,0.058 0.233,0.078 0.294,0.142 0.065,0.061 0.153,0.046 0.214,0.121 0.065,0.075 0.079,0.083 0.079,0.083 0,0 0.01,0.018 0.104,-0.008 0.093,-0.023 0.226,-0.068 0.321,-0.023 0.093,0.044 0.189,0.019 0.291,0.011 0.097,-0.004 0.274,-0.031 0.368,-0.011 0.094,0.019 0.341,-0.023 0.432,-0.012 0.098,0.012 0.209,0 0.295,0.051 0.091,0.05 0.119,0.035 0.201,0.062 0.083,0.026 0.127,0.044 0.216,0.074 0.091,0.03 0.12,-0.024 0.172,0.071 0.043,0.096 -0.022,0.137 -0.216,0.129 -0.198,-0.005 -0.279,-0.029 -0.352,0.029 -0.076,0.054 -0.076,0.004 -0.218,0.024 -0.146,0.018 -0.223,0.018 -0.386,0.024 -0.162,0.006 -0.271,0.006 -0.396,0.026 -0.127,0.018 -0.209,0.031 -0.268,-0.006 -0.061,-0.037 -0.127,-0.026 -0.167,-0.02 -0.035,0.006 -0.006,0.091 -0.124,0.052 -0.115,-0.038 -0.105,-0.046 -0.192,-0.052 -0.09,-0.006 -0.137,-0.011 -0.191,-0.077 -0.048,-0.063 -0.061,-0.122 -0.125,-0.085 -0.062,0.038 -0.263,-0.087 -0.171,0.043 0.041,0.049 0.065,0.085 0.16,0.151 0.093,0.064 0.175,0.102 0.269,0.213 0.094,0.113 0.169,0.133 0.288,0.198 0.12,0.061 0.12,0.074 0.207,0.134 0.087,0.066 0.119,0.04 0.232,0.082 0.116,0.044 0.103,0 0.22,0.059 0.119,0.057 0.154,0.1 0.233,0.057 0.082,-0.045 0.211,-0.04 0.307,-0.028 0.104,0.013 0.215,-0.012 0.322,0.043 0.105,0.061 0.241,0.066 0.268,0 0.026,-0.06 0.169,-0.055 0.316,-0.015 0.145,0.036 0.274,-0.028 0.384,-0.078 0.104,-0.048 0.338,-0.11 0.439,-0.162 0.099,-0.052 0.19,-0.047 0.259,-0.081 0.067,-0.038 0,-0.052 0.092,-0.145 0.095,-0.096 0.237,-0.128 0.301,-0.171 0.065,-0.042 0,-0.047 -0.098,-0.162"
             style="fill:#093158;fill-opacity:1;fill-rule:nonzero;stroke:none"
             id="path850"
             inkscape:connector-curvature="0" />
        </g>
        <g
           id="g852"
           transform="translate(628.5042,48.4036)">
          <path
             d="M 0,0 C -0.126,-0.046 -0.29,0.022 -0.48,0.011 -0.673,0 -0.852,0.007 -0.966,0.007 -1.085,0.007 -1.159,0 -1.227,-0.024 -1.298,-0.046 -1.298,0.007 -1.327,0.029 -1.367,0.051 -1.512,0.051 -1.583,0.035 -1.652,0.017 -1.689,0.017 -1.772,0.017 -1.854,0.017 -1.988,0.029 -2.088,0.022 -2.181,0.017 -2.216,0.035 -2.335,0.007 -2.45,-0.024 -2.579,-0.016 -2.654,-0.012 -2.732,-0.008 -2.764,0.022 -2.831,0.011 -2.899,0 -3.102,0 -3.159,0 -3.218,0 -3.343,0.017 -3.419,0.007 -3.495,-0.008 -3.508,0 -3.482,0.071 c 0.019,0.07 0.005,0.032 0.01,0.2 0.003,0.171 0.009,0.11 0,0.262 -0.01,0.15 0,0.133 0.023,0.225 0.022,0.09 0.017,0.098 -0.008,0.225 -0.02,0.126 0.044,0.107 0.106,0.123 0.063,0.017 0.078,0.023 0.139,0.028 0.066,0.005 0.075,0.031 0.129,0.031 0.049,0 0.081,-0.042 0.119,0.013 0.039,0.058 0.07,0.078 0.126,0.078 0.058,0 0.164,0.039 0.214,0.039 0.053,0 0.114,0.013 0.152,0.058 0.04,0.048 0.102,0.066 0.175,0.051 0.071,-0.009 0.099,0.07 0.165,0.141 0.063,0.068 0.049,0.091 0.033,0.162 -0.025,0.069 -0.05,0.114 -0.134,0.22 -0.09,0.103 -0.027,0.133 -0.027,0.243 0,0.108 0.02,0.064 0,0.161 -0.016,0.097 -0.03,0.11 -0.081,0.167 -0.05,0.058 0.034,0.025 0.027,0.078 -0.009,0.051 -0.009,0.092 -0.056,0.171 -0.048,0.082 -0.056,0.082 -0.085,0.121 -0.029,0.042 0.012,0.035 0.017,0.106 0.006,0.07 -0.022,0.075 -0.059,0.139 C -2.531,3.174 -2.46,3.161 -2.525,3.217 -2.586,3.273 -2.561,3.303 -2.553,3.35 -2.547,3.396 -2.561,3.431 -2.574,3.483 -2.588,3.535 -2.627,3.634 -2.665,3.651 -2.708,3.668 -2.732,3.622 -2.8,3.6 -2.871,3.575 -2.92,3.6 -2.999,3.575 -3.073,3.553 -3.045,3.53 -3.073,3.525 -3.102,3.517 -3.13,3.525 -3.173,3.496 -3.212,3.464 -3.256,3.516 -3.286,3.47 -3.323,3.425 -3.357,3.431 -3.405,3.425 -3.449,3.419 -3.463,3.5 -3.495,3.462 -3.53,3.419 -3.57,3.425 -3.646,3.414 -3.721,3.402 -3.708,3.483 -3.725,3.553 c -0.023,0.069 -0.037,0.12 -0.064,0.201 -0.03,0.084 -0.089,0.099 -0.132,0.168 -0.05,0.07 -0.102,0.146 -0.177,0.227 -0.075,0.079 -0.051,0.093 -0.114,0.138 -0.064,0.049 0.135,0.201 0.087,0.24 -0.092,0.07 -0.118,0.024 -0.238,0.126 -0.053,0.049 -0.127,0.053 -0.173,0.056 -0.049,0.004 -0.065,-0.03 -0.039,0.018 0.03,0.046 0.049,0.115 0.112,0.115 0.065,0 0.123,0.118 0.202,0.151 C -4.18,5.03 -4.156,5.08 -4.15,5.218 -4.144,5.356 -4.182,5.351 -4.232,5.424 -4.278,5.502 -4.273,5.523 -4.3,5.604 -4.329,5.685 -4.354,5.698 -4.404,5.723 -4.456,5.744 -4.469,5.792 -4.531,5.849 -4.595,5.908 -4.655,5.923 -4.711,5.97 -4.758,6.016 -4.802,6.028 -4.88,6.012 -4.954,5.991 -4.928,6.048 -4.985,6.061 -5.041,6.08 -5.141,6.098 -5.163,6.034 -5.188,5.97 -5.244,5.975 -5.326,5.908 -5.41,5.839 -5.377,5.849 -5.413,5.752 -5.446,5.653 -5.511,5.669 -5.574,5.628 -5.639,5.589 -5.641,5.591 -5.662,5.496 -5.686,5.403 -5.702,5.435 -5.734,5.336 -5.773,5.227 -5.778,5.223 -5.773,5.109 -5.765,4.993 -5.734,5.067 -5.728,4.96 -5.723,4.847 -5.691,4.833 -5.674,4.75 -5.655,4.663 -5.623,4.654 -5.548,4.616 -5.472,4.574 -5.619,4.574 -5.665,4.535 -5.711,4.495 -5.711,4.483 -5.711,4.421 -5.711,4.358 -5.728,4.358 -5.78,4.321 -5.835,4.287 -5.835,4.287 -5.88,4.213 -5.925,4.137 -5.961,4.149 -6.016,4.068 -6.074,3.985 -6.105,4.004 -6.156,3.967 -6.207,3.934 -6.218,3.893 -6.235,3.831 -6.245,3.769 -6.212,3.783 -6.245,3.69 -6.272,3.6 -6.321,3.593 -6.383,3.452 -6.447,3.313 -6.458,3.178 -6.486,3.082 -6.518,2.985 -6.534,2.99 -6.547,2.915 -6.568,2.84 -6.509,2.876 -6.483,2.805 -6.453,2.738 -6.518,2.743 -6.547,2.738 -6.584,2.729 -6.616,2.737 -6.686,2.674 -6.754,2.612 -6.865,2.606 -6.901,2.616 -6.939,2.631 -7.012,2.606 -7.058,2.571 -7.11,2.533 -7.155,2.506 -7.226,2.524 -7.298,2.545 -7.329,2.49 -7.385,2.365 -7.445,2.244 -7.405,2.249 -7.398,2.157 -7.39,2.064 -7.325,2.083 -7.244,2.068 c 0.08,-0.011 0.14,-0.049 0.228,-0.071 0.083,-0.025 0.33,0.022 0.4,0.017 0.069,-0.004 0.158,0.037 0.209,0.082 0.048,0.041 0.04,0.011 0.09,-0.056 0.05,-0.068 0.028,0.061 0.088,0.043 C -6.167,2.064 -6.191,2.051 -6.167,1.954 -6.14,1.855 -6.18,1.879 -6.197,1.792 -6.213,1.707 -6.235,1.715 -6.253,1.644 -6.272,1.575 -6.3,1.596 -6.253,1.498 -6.203,1.398 -6.259,1.47 -6.243,1.366 -6.233,1.306 -6.249,1.278 -6.283,1.208 -6.329,1.134 -6.329,1.102 -6.333,0.993 -6.339,0.882 -6.343,0.913 -6.35,0.819 -6.359,0.728 -6.403,0.684 -6.447,0.61 -6.486,0.537 -6.503,0.562 -6.447,0.475 -6.383,0.389 -6.466,0.395 -6.483,0.314 -6.492,0.243 -6.506,0.088 -6.484,-0.024 -6.562,-0.051 -6.586,-0.042 -6.666,-0.1 c -0.082,-0.053 -0.16,-0.003 -0.221,0.016 -0.062,0.017 -0.073,0.06 -0.117,0.034 -0.046,-0.022 -0.086,-0.028 -0.111,-0.017 -0.028,0.011 -0.124,-0.017 -0.179,-0.026 -0.058,-0.007 -0.052,-0.034 -0.061,-0.114 -0.016,-0.081 0.04,-0.081 0.066,-0.118 0.029,-0.038 0.063,-0.075 0.111,-0.14 0.054,-0.07 0.054,-0.081 0.088,-0.125 0.037,-0.043 0.004,-0.073 0.004,-0.105 0,-0.031 0.006,-0.044 0.043,-0.074 0,0 0.017,-0.019 0.019,-0.027 0,0 0.155,0.041 0.193,0.021 0.034,-0.021 0.039,-0.049 0.103,0 0.062,0.049 0.079,0.036 0.185,0.026 0.104,-0.013 0.14,0.023 0.254,0.048 0.109,0.024 0.398,0.016 0.51,0.016 0.113,0 0.16,0.008 0.307,0.027 0.148,0.018 0.284,0.03 0.351,0.03 0.069,0 0.056,-0.025 0.141,-0.042 0.088,-0.019 0.108,0.007 0.255,-0.015 0.146,-0.016 0.297,-0.021 0.457,0 0.161,0.027 0.295,-0.03 0.405,-0.004 0.111,0.026 0.048,-0.012 0.123,-0.042 0.072,-0.031 0.117,0.042 0.228,0.046 0.109,0.008 0.27,0.022 0.37,-0.004 0.098,-0.026 0.246,-0.032 0.362,-0.037 0.118,-0.005 0.161,0 0.253,-0.013 0.093,-0.01 0.074,-0.036 0.148,-0.044 0.077,-0.004 0.071,0.038 0.135,0.044 0.067,0.008 0.063,-0.006 0.123,-0.006 0.062,0 0.178,0.039 0.243,0.014 0.058,-0.024 0.122,-0.008 0.214,-0.018 0.092,-0.013 0.261,-0.02 0.352,-0.006 0.093,0.01 0.287,-0.02 0.405,-0.052 0.115,-0.03 0.365,-0.037 0.472,-0.061 0.102,-0.022 0.108,0.012 0.092,0.055 -0.017,0.038 -0.01,0.06 0.004,0.094 0.019,0.034 0.053,0.03 0.109,0.076 0.06,0.049 0.07,0.057 0.087,0.093 0.009,0.035 0.042,0.087 0.067,0.103 0.021,0.019 0.072,0.065 0.145,0.095 0.074,0.028 0.058,0.039 0.07,0.098 0.01,0.058 0.032,0.097 0.075,0.187 C 0.251,0.017 0.117,0.045 0,0 m -5.424,5.385 c 0.024,0.019 0.065,0.037 0.077,0.05 0.013,0.018 0.056,0.074 0.071,0.099 0.015,0.024 0.025,0.041 0.049,0.068 0.022,0.028 0.035,0.044 0.039,0.079 0.009,0.037 -0.003,0.072 0.027,0.066 0.028,-0.008 0.04,-0.029 0.088,-0.012 0.048,0.02 0.062,0.028 0.091,0.02 0.037,-0.003 0.046,-0.012 0.075,-0.049 0.029,-0.034 0.033,-0.051 0.034,-0.081 0.001,-0.027 0.011,-0.075 0.039,-0.113 0.032,-0.043 0.032,-0.102 0.076,-0.097 0.04,0.005 0.045,0.009 0.065,-0.048 0.019,-0.058 0.011,-0.07 0.011,-0.113 0,-0.052 -0.007,-0.08 -0.036,-0.102 C -4.744,5.127 -4.768,5.12 -4.78,5.074 -4.802,5.032 -4.802,4.993 -4.819,4.961 -4.838,4.927 -4.838,4.9 -4.878,4.909 -4.919,4.919 -4.958,4.905 -4.978,4.873 -4.995,4.842 -5.004,4.805 -5.053,4.839 -5.104,4.873 -5.127,4.905 -5.161,4.938 -5.197,4.973 -5.234,5.006 -5.274,5.017 -5.31,5.032 -5.348,5.028 -5.334,5.071 -5.324,5.12 -5.32,5.127 -5.361,5.164 -5.406,5.2 -5.377,5.218 -5.41,5.239 -5.428,5.26 -5.438,5.267 -5.443,5.308 -5.45,5.345 -5.45,5.367 -5.424,5.385 m 1.35,-4.915 c -0.031,-0.101 0,-0.105 -0.031,-0.174 -0.027,-0.068 -0.002,-0.1 -0.023,-0.178 -0.016,-0.08 -0.013,-0.126 -0.061,-0.196 -0.049,-0.075 -0.054,0.041 -0.13,0.022 -0.072,-0.016 -0.128,-0.022 -0.171,0.006 -0.044,0.031 -0.025,0.062 -0.105,0.042 -0.082,-0.016 -0.087,-0.004 -0.185,-0.042 -0.098,-0.034 -0.124,0.018 -0.194,0 -0.064,-0.017 -0.147,0.026 -0.247,-0.006 -0.095,-0.028 -0.113,0.024 -0.171,0.032 -0.054,0.005 -0.036,0.068 -0.121,0.049 -0.088,-0.018 -0.174,0.024 -0.266,0.006 -0.048,-0.01 -0.093,-0.009 -0.14,-0.007 0.032,0.077 0.057,0.272 0.057,0.322 0,0.057 -0.007,0.086 0.009,0.232 0.018,0.15 0.018,0.139 -0.004,0.249 -0.026,0.109 -0.012,0.123 -0.037,0.215 -0.025,0.092 -0.009,0.141 0.011,0.216 0.021,0.074 0.042,0.066 0.036,0.116 -0.006,0.051 0.006,0.084 0.046,0.158 0.034,0.081 0.048,0.133 0.04,0.219 -0.006,0.085 0,0.085 0.056,0.176 0.056,0.092 0.031,0.141 0.066,0.221 0.038,0.081 -0.016,0.101 -0.075,0.168 -0.065,0.068 -0.075,0.149 -0.127,0.197 -0.05,0.05 -0.028,0.087 -0.028,0.087 l -0.025,0.097 c 0,0 -0.02,0.107 -0.025,0.134 -0.006,0.032 -0.038,0.078 -0.023,0.113 0.007,0.038 0.048,0.05 0.051,0.112 0.008,0.059 0.008,0.116 0.038,0.177 0.03,0.063 0.012,0.075 0.03,0.176 0.022,0.096 -0.018,0.075 -0.004,0.176 0.011,0.1 0.011,0.125 0,0.204 -0.014,0.08 0.004,0.075 0.074,0.092 0.066,0.017 0.087,0.069 0.152,0.116 0.066,0.049 0.066,0.062 0.136,0.093 0.067,0.028 0.059,0.08 0.149,0.104 0.087,0.026 0.103,0.057 0.189,0.063 0.089,0.006 0.13,0.034 0.241,0.03 0.113,-0.005 0.122,-0.063 0.154,-0.099 0.029,-0.036 0.099,-0.072 0.161,-0.107 0.062,-0.028 0.072,-0.1 0.089,-0.207 0.01,-0.104 0.029,-0.128 0.054,-0.227 0.024,-0.1 0.053,-0.117 0.066,-0.21 0.012,-0.094 0.02,-0.129 0.068,-0.216 0.051,-0.086 0.051,-0.049 0,-0.075 C -4.342,3.124 -4.391,3.141 -4.509,3.085 -4.628,3.032 -4.633,3.042 -4.694,2.982 -4.754,2.92 -4.802,2.909 -4.892,2.891 -4.98,2.871 -4.942,2.852 -5.014,2.784 -5.087,2.715 -5.133,2.728 -5.151,2.643 -5.167,2.556 -5.059,2.587 -5.025,2.533 -4.997,2.476 -5.045,2.416 -5.052,2.309 -5.059,2.206 -5.032,2.268 -4.997,2.218 -4.959,2.17 -4.949,2.142 -4.945,2.051 -4.942,1.961 -4.929,1.987 -4.886,1.934 -4.844,1.879 -4.844,1.895 -4.838,1.817 -4.832,1.736 -4.81,1.751 -4.794,1.7 -4.773,1.651 -4.802,1.613 -4.742,1.508 -4.682,1.404 -4.711,1.35 -4.694,1.227 -4.682,1.102 -4.663,1.097 -4.655,0.979 -4.638,0.863 -4.601,0.893 -4.566,0.827 -4.528,0.758 -4.579,0.752 -4.52,0.679 c 0.054,-0.074 0.017,-0.125 0.054,-0.198 0.038,-0.074 0.056,-0.024 0.11,-0.006 0.056,0.019 0.106,0.062 0.238,0.094 0.128,0.029 0.075,0 0.044,-0.099 m 0.451,0.907 C -3.721,1.346 -3.756,1.339 -3.821,1.286 -3.886,1.232 -3.88,1.286 -3.977,1.24 -4.077,1.194 -4.096,1.082 -4.152,1.215 c -0.06,0.131 -0.073,0.195 -0.101,0.293 -0.025,0.099 -0.005,0.105 -0.076,0.158 -0.072,0.053 -0.08,0.092 -0.08,0.145 0,0.049 -0.028,0.033 -0.034,0.136 -0.006,0.104 0,0.066 -0.07,0.157 -0.074,0.092 -0.08,0.073 -0.09,0.178 -0.015,0.102 0.034,0.025 -0.044,0.163 0.06,0.04 0.067,0.051 0.127,0.051 0.061,0 0.092,-0.031 0.119,0.028 0.023,0.059 0.006,0.064 0.066,0.072 0.057,0.008 0.057,-0.04 0.11,-0.008 0.052,0.032 0.073,0.032 0.089,0.065 0.023,0.032 0.053,0.087 0.081,0.048 0.024,-0.039 0.091,-0.081 0.103,-0.171 0.011,-0.093 0.029,-0.126 0.033,-0.19 0.008,-0.067 0.026,-0.105 0.014,-0.203 -0.014,-0.098 -0.078,-0.112 0.019,-0.19 0.098,-0.078 0.19,-0.17 0.288,-0.087 0.1,0.087 0.118,0.048 0.156,0.122 0.039,0.069 0.073,0.116 0.079,0.181 0.006,0.066 0,0.132 -0.006,0.189 -0.006,0.06 -0.014,0.113 -0.034,0.152 -0.018,0.04 -0.052,0.034 -0.044,0.079 0.005,0.047 0.005,0.063 -0.061,0.102 -0.062,0.042 -0.05,0.05 -0.05,0.12 0,0.073 -0.04,0.137 0,0.131 0.038,-0.006 0.089,-0.051 0.162,-0.034 0.073,0.021 0.092,-0.017 0.158,0.04 0.065,0.06 0.118,0.04 0.196,0.06 0.078,0.02 0.059,-0.033 0.084,-0.1 C -2.929,2.835 -2.963,2.844 -2.911,2.717 -2.855,2.596 -2.871,2.583 -2.823,2.504 -2.78,2.424 -2.84,2.452 -2.792,2.392 -2.746,2.332 -2.72,2.348 -2.708,2.257 -2.696,2.163 -2.7,2.163 -2.676,2.078 -2.648,1.993 -2.659,1.982 -2.615,1.883 -2.571,1.782 -2.525,1.763 -2.635,1.692 -2.746,1.62 -2.78,1.6 -2.855,1.594 -2.935,1.585 -3.001,1.56 -3.061,1.532 -3.12,1.508 -3.165,1.477 -3.238,1.465 -3.31,1.45 -3.323,1.435 -3.413,1.435 c -0.095,0 -0.113,-0.024 -0.21,-0.058"
             style="fill:#093158;fill-opacity:1;fill-rule:nonzero;stroke:none"
             id="path854"
             inkscape:connector-curvature="0" />
        </g>
        <path
           d="m 601.288,44.832 h 5.522 V 39.31 h -5.522 z"
           style="fill:#a6700e;fill-opacity:1;fill-rule:nonzero;stroke:none"
           id="path856"
           inkscape:connector-curvature="0" />
        <path
           d="m 628.902,44.832 h 5.522 V 39.31 h -5.522 z"
           style="fill:#a6700e;fill-opacity:1;fill-rule:nonzero;stroke:none"
           id="path858"
           inkscape:connector-curvature="0" />
        <path
           d="m 601.288,72.436 h 5.522 v -5.521 h -5.522 z"
           style="fill:#a6700e;fill-opacity:1;fill-rule:nonzero;stroke:none"
           id="path860"
           inkscape:connector-curvature="0" />
        <path
           d="m 628.902,72.436 h 5.522 v -5.521 h -5.522 z"
           style="fill:#a6700e;fill-opacity:1;fill-rule:nonzero;stroke:none"
           id="path862"
           inkscape:connector-curvature="0" />
        <g
           id="g864"
           transform="translate(617.8512,79.1102)">
          <path
             d="M 0,0 3.902,-3.901 0,-7.808 -3.896,-3.901 Z"
             style="fill:#a6700e;fill-opacity:1;fill-rule:nonzero;stroke:none"
             id="path866"
             inkscape:connector-curvature="0" />
        </g>
        <g
           id="g868"
           transform="translate(617.8512,40.4429)">
          <path
             d="M 0,0 3.902,-3.901 0,-7.809 -3.896,-3.901 Z"
             style="fill:#a6700e;fill-opacity:1;fill-rule:nonzero;stroke:none"
             id="path870"
             inkscape:connector-curvature="0" />
        </g>
        <g
           id="g872"
           transform="translate(598.5318,59.7676)">
          <path
             d="M 0,0 3.902,-3.901 0,-7.808 -3.896,-3.901 Z"
             style="fill:#a6700e;fill-opacity:1;fill-rule:nonzero;stroke:none"
             id="path874"
             inkscape:connector-curvature="0" />
        </g>
        <g
           id="g876"
           transform="translate(637.1782,59.7676)">
          <path
             d="M 0,0 3.902,-3.901 0.001,-7.808 -3.896,-3.901 Z"
             style="fill:#a6700e;fill-opacity:1;fill-rule:nonzero;stroke:none"
             id="path878"
             inkscape:connector-curvature="0" />
        </g>
        <g
           id="g880"
           transform="translate(540.4708,51.9545)">
          <path
             d="m 0,0 h 1.396 v 9.578 h 3.566 v 1.186 H -3.565 V 9.578 H 0 Z"
             style="fill:#093158;fill-opacity:1;fill-rule:nonzero;stroke:none"
             id="path882"
             inkscape:connector-curvature="0" />
        </g>
        <path
           d="m 546.372,51.954 h 1.299 v 7.815 h -1.299 z"
           style="fill:#093158;fill-opacity:1;fill-rule:nonzero;stroke:none"
           id="path884"
           inkscape:connector-curvature="0" />
        <g
           id="g886"
           transform="translate(550.89,51.9545)">
          <path
             d="M 0,0 H 4.962 V 1.089 H 1.299 V 7.815 H 0 Z"
             style="fill:#093158;fill-opacity:1;fill-rule:nonzero;stroke:none"
             id="path888"
             inkscape:connector-curvature="0" />
        </g>
        <g
           id="g890"
           transform="translate(559.8039,56.5118)">
          <path
             d="m 0,0 h -1.279 v 2.169 h 1.392 c 1.04,0 1.409,-0.271 1.409,-1.036 C 1.522,0.76 1.383,0.441 1.131,0.236 0.849,0.018 0.764,0 0,0 m 0.415,-3.469 h -1.694 v 2.38 h 2.008 c 0.223,0 0.458,-0.084 0.662,-0.237 0.275,-0.198 0.439,-0.558 0.439,-0.961 0,-0.426 -0.21,-0.822 -0.535,-1.008 -0.266,-0.159 -0.34,-0.174 -0.88,-0.174 m -2.994,-1.088 h 3.308 c 1.451,0 2.465,0.88 2.465,2.14 0,0.961 -0.572,1.706 -1.493,1.946 L 1.627,-0.452 1.7,-0.427 c 0.691,0.24 1.138,0.922 1.138,1.738 0,1.291 -0.852,1.946 -2.53,1.946 h -2.887 z"
             style="fill:#093158;fill-opacity:1;fill-rule:nonzero;stroke:none"
             id="path892"
             inkscape:connector-curvature="0" />
        </g>
        <g
           id="g894"
           transform="translate(565.0687,59.7691)">
          <path
             d="m 0,0 v -4.62 c 0,-1.565 0.318,-2.359 1.135,-2.833 0.6,-0.357 1.479,-0.589 2.237,-0.589 0.726,0 1.619,0.237 2.222,0.589 0.828,0.488 1.151,1.282 1.151,2.833 V 0 H 5.461 v -4.831 c 0,-1.397 -0.703,-2.105 -2.089,-2.105 -1.386,0 -2.089,0.708 -2.089,2.105 V 0 Z"
             style="fill:#093158;fill-opacity:1;fill-rule:nonzero;stroke:none"
             id="path896"
             inkscape:connector-curvature="0" />
        </g>
        <g
           id="g898"
           transform="translate(576.938,56.2034)">
          <path
             d="M 0,0 H -1.182 V 2.477 H 0 C 0.884,2.477 0.976,2.462 1.228,2.272 1.53,2.05 1.684,1.715 1.684,1.279 1.684,0.865 1.558,0.568 1.275,0.316 0.947,0.036 0.804,0 0,0 m 1.926,-4.249 h 1.508 l -2.146,3.267 0.034,0.007 c 1.052,0.212 1.758,1.138 1.758,2.303 0,1.443 -1.036,2.238 -2.918,2.238 h -2.643 v -7.815 h 1.299 v 3.16 h 1.066 l 0.007,-0.01 z"
             style="fill:#093158;fill-opacity:1;fill-rule:nonzero;stroke:none"
             id="path900"
             inkscape:connector-curvature="0" />
        </g>
        <g
           id="g902"
           transform="translate(586.0679,59.8987)">
          <path
             d="m 0,0 c -2.588,0 -4.539,-1.728 -4.539,-4.02 0,-2.329 2,-4.086 4.653,-4.086 0.627,0 1.569,0.12 2.292,0.292 0.112,0.025 0.26,0.069 0.448,0.125 l 0.21,0.061 v 3.59 H 1.765 V -6.861 L 1.746,-6.864 C 1.054,-6.98 0.705,-7.017 0.308,-7.017 c -1.985,0 -3.483,1.316 -3.483,3.062 0,1.643 1.379,2.882 3.207,2.882 0.569,0 1.307,-0.148 1.834,-0.369 0.112,-0.048 0.29,-0.146 0.531,-0.29 l 0.031,-0.019 0.551,1.083 -0.03,0.016 C 2.431,-0.385 2.191,-0.28 1.789,-0.179 1.316,-0.074 0.58,0 0,0"
             style="fill:#093158;fill-opacity:1;fill-rule:nonzero;stroke:none"
             id="path904"
             inkscape:connector-curvature="0" />
        </g>
        <g
           id="g906"
           transform="translate(646.6468,62.7182)">
          <path
             d="m 0,0 v -7.067 c 0,-1.405 0.365,-2.276 1.26,-3.008 0.798,-0.652 1.826,-0.997 2.971,-0.997 1.151,0 2.145,0.336 2.955,0.997 C 8.08,-9.343 8.43,-8.5 8.43,-7.067 V 0 H 7.033 v -6.662 c 0,-1.33 -0.097,-1.687 -0.608,-2.246 C 5.893,-9.505 5.129,-9.82 4.215,-9.82 3.3,-9.82 2.535,-9.505 2.003,-8.908 1.492,-8.35 1.396,-7.993 1.396,-6.662 V 0 Z"
             style="fill:#093158;fill-opacity:1;fill-rule:nonzero;stroke:none"
             id="path908"
             inkscape:connector-curvature="0" />
        </g>
        <g
           id="g910"
           transform="translate(663.7296,51.8579)">
          <path
             d="M 0,0 H 1.169 V 7.911 H -0.017 V 2.039 L -0.061,2.03 c -0.057,0.129 -0.13,0.256 -0.204,0.359 L -4.651,7.911 H -5.932 V 0.097 h 1.202 v 5.935 l 0.043,0.011 C -4.625,5.931 -4.535,5.8 -4.385,5.603 Z"
             style="fill:#093158;fill-opacity:1;fill-rule:nonzero;stroke:none"
             id="path912"
             inkscape:connector-curvature="0" />
        </g>
        <path
           d="m 667.884,51.954 h 1.3 v 7.815 h -1.3 z"
           style="fill:#093158;fill-opacity:1;fill-rule:nonzero;stroke:none"
           id="path914"
           inkscape:connector-curvature="0" />
        <g
           id="g916"
           transform="translate(674.4053,51.7602)">
          <path
             d="M 0,0 H 0.694 L 4.045,8.009 H 2.642 L 0.464,2.401 C 0.448,2.369 0.435,2.341 0.425,2.314 L 0.403,2.258 0.382,2.315 C 0.371,2.343 0.36,2.369 0.347,2.395 l -2.343,5.614 h -1.403 z"
             style="fill:#093158;fill-opacity:1;fill-rule:nonzero;stroke:none"
             id="path918"
             inkscape:connector-curvature="0" />
        </g>
        <g
           id="g920"
           transform="translate(680.296,51.9545)">
          <path
             d="M 0,0 H 4.961 V 1.089 H 1.3 V 3.468 H 4.248 V 4.557 H 1.3 V 6.726 H 4.864 V 7.815 H 0 Z"
             style="fill:#093158;fill-opacity:1;fill-rule:nonzero;stroke:none"
             id="path922"
             inkscape:connector-curvature="0" />
        </g>
        <g
           id="g924"
           transform="translate(690.1984,56.2262)">
          <path
             d="M 0,0 H -1.158 V 2.431 H 0 c 0.877,0 0.967,-0.015 1.214,-0.2 C 1.51,2.013 1.661,1.685 1.661,1.256 1.661,0.849 1.536,0.557 1.259,0.311 0.938,0.036 0.796,0 0,0 m 1.289,-1.005 0.033,0.007 c 1.052,0.213 1.759,1.138 1.759,2.303 0,1.443 -1.037,2.238 -2.92,2.238 h -2.642 v -7.815 h 1.299 v 3.161 h 1.066 l 0.007,-0.011 2.035,-3.15 h 1.507 z"
             style="fill:#093158;fill-opacity:1;fill-rule:nonzero;stroke:none"
             id="path926"
             inkscape:connector-curvature="0" />
        </g>
        <g
           id="g928"
           transform="translate(694.809,52.6562)">
          <path
             d="m 0,0 0.026,-0.015 c 0.563,-0.349 0.789,-0.46 1.108,-0.588 0.451,-0.16 1.004,-0.244 1.599,-0.244 1.787,0 2.855,0.836 2.855,2.238 0,0.97 -0.473,1.513 -1.948,2.234 C 2.165,4.339 1.884,4.493 1.66,4.828 1.601,4.916 1.569,5.054 1.569,5.215 1.569,5.793 2.15,6.137 3.124,6.137 3.525,6.137 3.847,6.089 4.2,5.977 4.578,5.866 4.75,5.792 5.162,5.512 L 5.197,5.488 5.662,6.575 5.635,6.59 C 5.138,6.856 4.947,6.95 4.592,7.047 4.159,7.175 3.657,7.242 3.14,7.242 1.406,7.242 0.285,6.402 0.285,5.102 0.285,4.255 0.838,3.597 2.022,3.029 L 3.433,2.349 C 4.041,2.06 4.289,1.736 4.289,1.229 4.289,0.601 3.762,0.225 2.878,0.225 2.46,0.225 2.01,0.316 1.612,0.482 1.311,0.608 1.106,0.734 0.615,1.093 L 0.583,1.117 Z"
             style="fill:#093158;fill-opacity:1;fill-rule:nonzero;stroke:none"
             id="path930"
             inkscape:connector-curvature="0" />
        </g>
        <path
           d="m 702.831,51.954 h 1.3 v 7.815 h -1.3 z"
           style="fill:#093158;fill-opacity:1;fill-rule:nonzero;stroke:none"
           id="path932"
           inkscape:connector-curvature="0" />
        <g
           id="g934"
           transform="translate(708.666,51.9545)">
          <path
             d="M 0,0 H 1.283 V 6.726 H 4.038 V 7.815 H -2.756 V 6.726 H 0 Z"
             style="fill:#093158;fill-opacity:1;fill-rule:nonzero;stroke:none"
             id="path936"
             inkscape:connector-curvature="0" />
        </g>
        <g
           id="g938"
           transform="translate(715.8231,51.9545)">
          <path
             d="M 0,0 H 1.283 V 3.484 L 4.28,7.815 H 2.77 L 0.747,4.683 -1.277,7.815 h -1.506 l 2.779,-4.317 z"
             style="fill:#093158;fill-opacity:1;fill-rule:nonzero;stroke:none"
             id="path940"
             inkscape:connector-curvature="0" />
        </g>
      </g>
    </g>
  </g>
</svg>
